<svg width="148" height="56" viewBox="0 0 148 56" fill="none" xmlns="http://www.w3.org/2000/svg">
<rect x="0.5" y="0.5" width="146.02" height="55" rx="5.9" fill="#008AFF"/>
<path d="M27.7824 27.224V26.296H29.5904C29.9424 26.296 30.2517 26.2373 30.5184 26.12C30.785 26.0027 30.993 25.8373 31.1424 25.624C31.2917 25.4 31.3664 25.1333 31.3664 24.824C31.3664 24.3547 31.201 23.992 30.8704 23.736C30.5397 23.48 30.113 23.352 29.5904 23.352H28.2304V31.448H29.7984C30.225 31.448 30.6037 31.3787 30.9344 31.24C31.265 31.1013 31.5264 30.8933 31.7184 30.616C31.9104 30.3387 32.0064 29.992 32.0064 29.576C32.0064 29.2773 31.9477 29.016 31.8304 28.792C31.7237 28.5573 31.569 28.3653 31.3664 28.216C31.1744 28.056 30.945 27.944 30.6784 27.88C30.4117 27.8053 30.1184 27.768 29.7984 27.768H27.7824V26.728H29.9104C30.4544 26.728 30.9664 26.7867 31.4464 26.904C31.9264 27.0213 32.353 27.2027 32.7264 27.448C33.1104 27.6933 33.409 28.008 33.6224 28.392C33.8357 28.776 33.9424 29.2347 33.9424 29.768C33.9424 30.504 33.7664 31.112 33.4144 31.592C33.073 32.072 32.5984 32.4293 31.9904 32.664C31.393 32.888 30.6997 33 29.9104 33H26.3424V21.8H29.7184C30.4224 21.8 31.041 21.9013 31.5744 22.104C32.1184 22.3067 32.5397 22.616 32.8384 23.032C33.1477 23.448 33.3024 23.976 33.3024 24.616C33.3024 25.1707 33.1477 25.6453 32.8384 26.04C32.5397 26.424 32.1184 26.7173 31.5744 26.92C31.041 27.1227 30.4224 27.224 29.7184 27.224H27.7824ZM35.2321 29.32C35.2321 28.5627 35.4028 27.896 35.7441 27.32C36.0961 26.744 36.5708 26.296 37.1681 25.976C37.7654 25.6453 38.4428 25.48 39.2001 25.48C39.9574 25.48 40.6294 25.6453 41.2161 25.976C41.8134 26.296 42.2881 26.744 42.6401 27.32C42.9921 27.896 43.1681 28.5627 43.1681 29.32C43.1681 30.0667 42.9921 30.7333 42.6401 31.32C42.2881 31.896 41.8134 32.3493 41.2161 32.68C40.6294 33 39.9574 33.16 39.2001 33.16C38.4428 33.16 37.7654 33 37.1681 32.68C36.5708 32.3493 36.0961 31.896 35.7441 31.32C35.4028 30.7333 35.2321 30.0667 35.2321 29.32ZM37.0081 29.32C37.0081 29.7787 37.1041 30.184 37.2961 30.536C37.4881 30.8773 37.7494 31.1493 38.0801 31.352C38.4108 31.544 38.7841 31.64 39.2001 31.64C39.6054 31.64 39.9734 31.544 40.3041 31.352C40.6454 31.1493 40.9121 30.8773 41.1041 30.536C41.2961 30.184 41.3921 29.7787 41.3921 29.32C41.3921 28.8613 41.2961 28.456 41.1041 28.104C40.9121 27.752 40.6454 27.48 40.3041 27.288C39.9734 27.096 39.6054 27 39.2001 27C38.7841 27 38.4108 27.096 38.0801 27.288C37.7494 27.48 37.4881 27.752 37.2961 28.104C37.1041 28.456 37.0081 28.8613 37.0081 29.32ZM44.2477 29.32C44.2477 28.5627 44.4184 27.896 44.7597 27.32C45.1117 26.744 45.5864 26.296 46.1837 25.976C46.7811 25.6453 47.4584 25.48 48.2157 25.48C48.9731 25.48 49.6451 25.6453 50.2317 25.976C50.8291 26.296 51.3037 26.744 51.6557 27.32C52.0077 27.896 52.1837 28.5627 52.1837 29.32C52.1837 30.0667 52.0077 30.7333 51.6557 31.32C51.3037 31.896 50.8291 32.3493 50.2317 32.68C49.6451 33 48.9731 33.16 48.2157 33.16C47.4584 33.16 46.7811 33 46.1837 32.68C45.5864 32.3493 45.1117 31.896 44.7597 31.32C44.4184 30.7333 44.2477 30.0667 44.2477 29.32ZM46.0237 29.32C46.0237 29.7787 46.1197 30.184 46.3117 30.536C46.5037 30.8773 46.7651 31.1493 47.0957 31.352C47.4264 31.544 47.7997 31.64 48.2157 31.64C48.6211 31.64 48.9891 31.544 49.3197 31.352C49.6611 31.1493 49.9277 30.8773 50.1197 30.536C50.3117 30.184 50.4077 29.7787 50.4077 29.32C50.4077 28.8613 50.3117 28.456 50.1197 28.104C49.9277 27.752 49.6611 27.48 49.3197 27.288C48.9891 27.096 48.6211 27 48.2157 27C47.7997 27 47.4264 27.096 47.0957 27.288C46.7651 27.48 46.5037 27.752 46.3117 28.104C46.1197 28.456 46.0237 28.8613 46.0237 29.32ZM53.7594 20.52H55.4554V33H53.7594V20.52ZM58.1594 25.64H60.2714L57.1034 28.68L60.5914 33H58.4954L54.9754 28.68L58.1594 25.64ZM74.8621 21.8H76.7181V33.56L68.5421 25.48V33H66.6861V21.24L74.8621 29.32V21.8ZM78.4977 29.32C78.4977 28.5627 78.6684 27.896 79.0097 27.32C79.3617 26.744 79.8364 26.296 80.4337 25.976C81.0311 25.6453 81.7084 25.48 82.4657 25.48C83.2231 25.48 83.8951 25.6453 84.4817 25.976C85.0791 26.296 85.5537 26.744 85.9057 27.32C86.2577 27.896 86.4337 28.5627 86.4337 29.32C86.4337 30.0667 86.2577 30.7333 85.9057 31.32C85.5537 31.896 85.0791 32.3493 84.4817 32.68C83.8951 33 83.2231 33.16 82.4657 33.16C81.7084 33.16 81.0311 33 80.4337 32.68C79.8364 32.3493 79.3617 31.896 79.0097 31.32C78.6684 30.7333 78.4977 30.0667 78.4977 29.32ZM80.2737 29.32C80.2737 29.7787 80.3697 30.184 80.5617 30.536C80.7537 30.8773 81.0151 31.1493 81.3457 31.352C81.6764 31.544 82.0497 31.64 82.4657 31.64C82.8711 31.64 83.2391 31.544 83.5697 31.352C83.9111 31.1493 84.1777 30.8773 84.3697 30.536C84.5617 30.184 84.6577 29.7787 84.6577 29.32C84.6577 28.8613 84.5617 28.456 84.3697 28.104C84.1777 27.752 83.9111 27.48 83.5697 27.288C83.2391 27.096 82.8711 27 82.4657 27C82.0497 27 81.6764 27.096 81.3457 27.288C81.0151 27.48 80.7537 27.752 80.5617 28.104C80.3697 28.456 80.2737 28.8613 80.2737 29.32ZM86.735 25.64H88.607L90.335 30.024L92.367 25.08L94.527 30.04L96.255 25.64H98.127L94.687 33.528L92.383 28.552L90.175 33.528L86.735 25.64Z" fill="white"/>
<path d="M121.77 28C121.77 32.2812 118.301 35.75 114.02 35.75C109.739 35.75 106.27 32.2812 106.27 28C106.27 23.7188 109.739 20.25 114.02 20.25C118.301 20.25 121.77 23.7188 121.77 28ZM107.77 28C107.77 31.4688 110.551 34.25 114.02 34.25C117.458 34.25 120.27 31.4688 120.27 28C120.27 24.5625 117.458 21.75 114.02 21.75C110.551 21.75 107.77 24.5625 107.77 28ZM110.02 28.625V27.375C110.02 27.1875 110.176 27 110.395 27H114.02V24.9062C114.02 24.5938 114.395 24.4062 114.645 24.6562L117.739 27.75C117.895 27.9062 117.895 28.125 117.739 28.2812L114.645 31.375C114.395 31.625 114.02 31.4375 114.02 31.0938V29H110.395C110.176 29 110.02 28.8438 110.02 28.625Z" fill="white"/>
<rect x="0.5" y="0.5" width="146.02" height="55" rx="5.9" stroke="#008AFF"/>
</svg>
