<svg width="167" height="57" viewBox="0 0 167 57" fill="none" xmlns="http://www.w3.org/2000/svg">
<rect x="0.880005" y="0.5" width="166.02" height="56" rx="6.4" fill="#009868" fill-opacity="0.12"/>
<path d="M40.0331 21.5C40.5644 21.5 41.0331 21.9688 41.0331 22.5V34.5C41.0331 35.0625 40.5644 35.5 40.0331 35.5H22.0331C21.4706 35.5 21.0331 35.0625 21.0331 34.5V22.5C21.0331 21.9688 21.4706 21.5 22.0331 21.5H40.0331ZM26.5331 30.75C27.2519 30.75 27.8456 30.125 27.8456 29.3438C27.8456 28.7188 27.4394 28.1562 26.8769 28L25.4706 27.5625C25.2831 27.5312 25.1894 27.375 25.1894 27.1875C25.1894 26.9375 25.3456 26.75 25.5644 26.75H26.4394C26.5644 26.75 26.7206 26.8125 26.8456 26.875C26.9394 26.9375 27.0644 26.9375 27.1581 26.8438L27.5019 26.5C27.6269 26.4062 27.6269 26.2188 27.5019 26.125C27.2206 25.9062 26.8769 25.7812 26.5019 25.7812V25.25C26.5019 25.125 26.4081 25 26.2519 25H25.7519C25.6269 25 25.5019 25.125 25.5019 25.25V25.7812C24.7831 25.7812 24.1894 26.4062 24.1894 27.1875C24.1894 27.8125 24.5956 28.3438 25.1581 28.5312L26.5644 28.9688C26.7519 29 26.8456 29.1562 26.8456 29.3438C26.8456 29.5938 26.6894 29.75 26.4706 29.75H25.5956C25.4706 29.75 25.3144 29.7188 25.1894 29.6562C25.0956 29.5938 24.9706 29.5938 24.8769 29.6875L24.5331 30.0312C24.4081 30.125 24.4081 30.3125 24.5331 30.4062C24.8144 30.625 25.1581 30.75 25.5331 30.75V31.25C25.5331 31.4062 25.6269 31.5 25.7831 31.5H26.2831C26.4081 31.5 26.5331 31.4062 26.5331 31.25V30.75ZM34.0331 30.25V29.75C34.0331 29.625 33.9081 29.5 33.7831 29.5H30.2831C30.1269 29.5 30.0331 29.625 30.0331 29.75V30.25C30.0331 30.4062 30.1269 30.5 30.2831 30.5H33.7831C33.9081 30.5 34.0331 30.4062 34.0331 30.25ZM39.0331 30.25V29.75C39.0331 29.625 38.9081 29.5 38.7831 29.5H36.2831C36.1269 29.5 36.0331 29.625 36.0331 29.75V30.25C36.0331 30.4062 36.1269 30.5 36.2831 30.5H38.7831C38.9081 30.5 39.0331 30.4062 39.0331 30.25ZM39.0331 27.25V26.75C39.0331 26.625 38.9081 26.5 38.7831 26.5H30.2831C30.1269 26.5 30.0331 26.625 30.0331 26.75V27.25C30.0331 27.4062 30.1269 27.5 30.2831 27.5H38.7831C38.9081 27.5 39.0331 27.4062 39.0331 27.25Z" fill="#009868"/>
<path d="M50.698 27.9C50.698 28.6893 50.874 29.3827 51.226 29.98C51.5887 30.5773 52.058 31.0413 52.634 31.372C53.2207 31.692 53.8553 31.852 54.538 31.852C55.0713 31.852 55.5513 31.7827 55.978 31.644C56.4047 31.5053 56.7887 31.3187 57.13 31.084C57.482 30.8387 57.786 30.5667 58.042 30.268V32.508C57.5727 32.892 57.066 33.1853 56.522 33.388C55.978 33.5907 55.2953 33.692 54.474 33.692C53.6527 33.692 52.8847 33.5533 52.17 33.276C51.466 32.9987 50.8527 32.5987 50.33 32.076C49.8073 31.5533 49.3967 30.94 49.098 30.236C48.81 29.5213 48.666 28.7427 48.666 27.9C48.666 27.0573 48.81 26.284 49.098 25.58C49.3967 24.8653 49.8073 24.2467 50.33 23.724C50.8527 23.2013 51.466 22.8013 52.17 22.524C52.8847 22.2467 53.6527 22.108 54.474 22.108C55.2953 22.108 55.978 22.2093 56.522 22.412C57.066 22.6147 57.5727 22.908 58.042 23.292V25.532C57.786 25.2333 57.482 24.9667 57.13 24.732C56.7887 24.4867 56.4047 24.2947 55.978 24.156C55.5513 24.0173 55.0713 23.948 54.538 23.948C53.8553 23.948 53.2207 24.1133 52.634 24.444C52.058 24.764 51.5887 25.2227 51.226 25.82C50.874 26.4067 50.698 27.1 50.698 27.9ZM61.9525 21.02V33.5H60.2245V21.02H61.9525ZM64.9605 29.02C64.9605 28.476 64.8485 28.0653 64.6245 27.788C64.4112 27.5107 64.0645 27.372 63.5845 27.372C63.2645 27.372 62.9818 27.4413 62.7365 27.58C62.4912 27.7187 62.2992 27.9107 62.1605 28.156C62.0218 28.4013 61.9525 28.6893 61.9525 29.02H61.5365C61.5365 28.4333 61.6432 27.9107 61.8565 27.452C62.0698 26.9933 62.3685 26.6253 62.7525 26.348C63.1472 26.0707 63.6218 25.932 64.1765 25.932C64.7205 25.932 65.1792 26.0387 65.5525 26.252C65.9365 26.4653 66.2245 26.7853 66.4165 27.212C66.6085 27.628 66.7045 28.1507 66.7045 28.78V33.5H64.9605V29.02ZM72.0964 33.66C71.3497 33.66 70.6884 33.5 70.1124 33.18C69.547 32.86 69.1097 32.412 68.8004 31.836C68.491 31.26 68.3364 30.588 68.3364 29.82C68.3364 29.0413 68.491 28.364 68.8004 27.788C69.1204 27.212 69.5684 26.7693 70.1444 26.46C70.7204 26.14 71.3977 25.98 72.1764 25.98C72.955 25.98 73.6164 26.1293 74.1604 26.428C74.7044 26.7267 75.1204 27.1587 75.4084 27.724C75.707 28.2787 75.8564 28.9507 75.8564 29.74C75.8564 29.8253 75.851 29.916 75.8404 30.012C75.8404 30.108 75.835 30.1773 75.8244 30.22H69.3604V29.036H74.3524L73.8244 29.772C73.8564 29.708 73.8884 29.6227 73.9204 29.516C73.963 29.3987 73.9844 29.3027 73.9844 29.228C73.9844 28.8333 73.9044 28.492 73.7444 28.204C73.595 27.916 73.3817 27.692 73.1044 27.532C72.8377 27.372 72.523 27.292 72.1604 27.292C71.723 27.292 71.3497 27.388 71.0404 27.58C70.731 27.772 70.4964 28.0493 70.3364 28.412C70.1764 28.7747 70.091 29.2227 70.0804 29.756C70.0804 30.2893 70.1604 30.7427 70.3204 31.116C70.4804 31.4787 70.715 31.756 71.0244 31.948C71.3444 32.14 71.7284 32.236 72.1764 32.236C72.6457 32.236 73.0564 32.14 73.4084 31.948C73.7604 31.756 74.0537 31.4627 74.2884 31.068L75.7764 31.676C75.3924 32.3373 74.8964 32.8333 74.2884 33.164C73.6804 33.4947 72.9497 33.66 72.0964 33.66ZM78.6577 29.82C78.6577 30.2893 78.7591 30.7 78.9617 31.052C79.1644 31.3933 79.4364 31.6653 79.7777 31.868C80.1297 32.0707 80.5191 32.172 80.9457 32.172C81.2977 32.172 81.6337 32.1187 81.9537 32.012C82.2737 31.9053 82.5564 31.756 82.8017 31.564C83.0471 31.372 83.2284 31.1587 83.3457 30.924V32.828C83.0897 33.084 82.7431 33.2867 82.3057 33.436C81.8684 33.5853 81.3884 33.66 80.8657 33.66C80.1084 33.66 79.4257 33.5 78.8177 33.18C78.2204 32.8493 77.7457 32.396 77.3937 31.82C77.0524 31.2333 76.8817 30.5667 76.8817 29.82C76.8817 29.0627 77.0524 28.396 77.3937 27.82C77.7457 27.244 78.2204 26.796 78.8177 26.476C79.4257 26.1453 80.1084 25.98 80.8657 25.98C81.3884 25.98 81.8684 26.0547 82.3057 26.204C82.7431 26.3533 83.0897 26.556 83.3457 26.812V28.716C83.2284 28.4707 83.0417 28.2573 82.7857 28.076C82.5404 27.884 82.2577 27.7347 81.9377 27.628C81.6177 27.5213 81.2871 27.468 80.9457 27.468C80.5191 27.468 80.1297 27.5693 79.7777 27.772C79.4364 27.9747 79.1644 28.252 78.9617 28.604C78.7591 28.956 78.6577 29.3613 78.6577 29.82ZM85.1917 21.02H86.8877V33.5H85.1917V21.02ZM89.5917 26.14H91.7037L88.5357 29.18L92.0237 33.5H89.9277L86.4077 29.18L89.5917 26.14ZM98.1185 22.3H100.006V33.5H98.1185V22.3ZM99.2385 23.964V22.3H101.494C102.305 22.3 103.009 22.444 103.606 22.732C104.214 23.0093 104.684 23.4093 105.014 23.932C105.345 24.444 105.51 25.0573 105.51 25.772C105.51 26.4867 105.345 27.1053 105.014 27.628C104.684 28.1507 104.214 28.556 103.606 28.844C103.009 29.1213 102.305 29.26 101.494 29.26H99.2385V27.596H101.494C102.145 27.596 102.668 27.4413 103.062 27.132C103.457 26.8227 103.654 26.3693 103.654 25.772C103.654 25.1747 103.457 24.7267 103.062 24.428C102.668 24.1187 102.145 23.964 101.494 23.964H99.2385ZM108.624 26.14V33.5H106.912V26.14H108.624ZM110.816 27.98C110.656 27.852 110.507 27.756 110.368 27.692C110.229 27.628 110.053 27.596 109.84 27.596C109.552 27.596 109.317 27.6707 109.136 27.82C108.955 27.9693 108.821 28.1773 108.736 28.444C108.661 28.7 108.624 29.004 108.624 29.356L108.048 29.02C108.048 28.4333 108.155 27.916 108.368 27.468C108.592 27.0093 108.875 26.6467 109.216 26.38C109.568 26.1133 109.931 25.98 110.304 25.98C110.571 25.98 110.821 26.0227 111.056 26.108C111.291 26.1827 111.488 26.3213 111.648 26.524L110.816 27.98ZM112.77 23.212C112.77 22.9133 112.877 22.6627 113.09 22.46C113.314 22.2573 113.57 22.156 113.858 22.156C114.167 22.156 114.423 22.2573 114.626 22.46C114.839 22.6627 114.946 22.9133 114.946 23.212C114.946 23.5 114.839 23.7507 114.626 23.964C114.423 24.1667 114.167 24.268 113.858 24.268C113.57 24.268 113.314 24.1667 113.09 23.964C112.877 23.7507 112.77 23.5 112.77 23.212ZM113.01 26.14H114.706V33.5H113.01V26.14ZM118.236 29.82C118.236 30.2893 118.337 30.7 118.54 31.052C118.743 31.3933 119.015 31.6653 119.356 31.868C119.708 32.0707 120.097 32.172 120.524 32.172C120.876 32.172 121.212 32.1187 121.532 32.012C121.852 31.9053 122.135 31.756 122.38 31.564C122.625 31.372 122.807 31.1587 122.924 30.924V32.828C122.668 33.084 122.321 33.2867 121.884 33.436C121.447 33.5853 120.967 33.66 120.444 33.66C119.687 33.66 119.004 33.5 118.396 33.18C117.799 32.8493 117.324 32.396 116.972 31.82C116.631 31.2333 116.46 30.5667 116.46 29.82C116.46 29.0627 116.631 28.396 116.972 27.82C117.324 27.244 117.799 26.796 118.396 26.476C119.004 26.1453 119.687 25.98 120.444 25.98C120.967 25.98 121.447 26.0547 121.884 26.204C122.321 26.3533 122.668 26.556 122.924 26.812V28.716C122.807 28.4707 122.62 28.2573 122.364 28.076C122.119 27.884 121.836 27.7347 121.516 27.628C121.196 27.5213 120.865 27.468 120.524 27.468C120.097 27.468 119.708 27.5693 119.356 27.772C119.015 27.9747 118.743 28.252 118.54 28.604C118.337 28.956 118.236 29.3613 118.236 29.82ZM124.77 23.212C124.77 22.9133 124.877 22.6627 125.09 22.46C125.314 22.2573 125.57 22.156 125.858 22.156C126.167 22.156 126.423 22.2573 126.626 22.46C126.839 22.6627 126.946 22.9133 126.946 23.212C126.946 23.5 126.839 23.7507 126.626 23.964C126.423 24.1667 126.167 24.268 125.858 24.268C125.57 24.268 125.314 24.1667 125.09 23.964C124.877 23.7507 124.77 23.5 124.77 23.212ZM125.01 26.14H126.706V33.5H125.01V26.14ZM133.82 29.02C133.82 28.476 133.708 28.0653 133.484 27.788C133.26 27.5107 132.913 27.372 132.444 27.372C132.124 27.372 131.841 27.4413 131.596 27.58C131.351 27.708 131.159 27.9 131.02 28.156C130.881 28.4013 130.812 28.6893 130.812 29.02V33.5H129.084V26.14H130.812V27.276C131.047 26.8387 131.345 26.5133 131.708 26.3C132.081 26.0867 132.524 25.98 133.036 25.98C133.868 25.98 134.503 26.236 134.94 26.748C135.377 27.2493 135.596 27.9427 135.596 28.828V33.5H133.82V29.02ZM137.387 33.996H139.099C139.109 34.3267 139.2 34.6253 139.371 34.892C139.552 35.1587 139.797 35.3667 140.107 35.516C140.416 35.6653 140.773 35.74 141.179 35.74C141.541 35.74 141.888 35.6547 142.219 35.484C142.549 35.3133 142.816 35.052 143.019 34.7C143.232 34.348 143.339 33.8947 143.339 33.34V26.14H145.035V33.34C145.035 34.2253 144.853 34.956 144.491 35.532C144.139 36.108 143.675 36.5347 143.099 36.812C142.523 37.1 141.899 37.244 141.227 37.244C140.427 37.244 139.744 37.1053 139.179 36.828C138.613 36.5613 138.176 36.1827 137.867 35.692C137.568 35.2013 137.408 34.636 137.387 33.996ZM137.243 29.788C137.243 28.9667 137.408 28.2787 137.739 27.724C138.069 27.1587 138.507 26.7267 139.051 26.428C139.605 26.1293 140.197 25.98 140.827 25.98C141.445 25.98 141.984 26.1347 142.443 26.444C142.912 26.7427 143.28 27.1747 143.547 27.74C143.824 28.3053 143.963 28.988 143.963 29.788C143.963 30.5773 143.824 31.2547 143.547 31.82C143.28 32.3853 142.912 32.8227 142.443 33.132C141.984 33.4307 141.445 33.58 140.827 33.58C140.197 33.58 139.605 33.4307 139.051 33.132C138.507 32.8333 138.069 32.4013 137.739 31.836C137.408 31.2707 137.243 30.588 137.243 29.788ZM139.035 29.788C139.035 30.2787 139.136 30.6947 139.339 31.036C139.541 31.3773 139.808 31.6387 140.139 31.82C140.48 31.9907 140.848 32.076 141.243 32.076C141.573 32.076 141.899 31.9907 142.219 31.82C142.549 31.6493 142.816 31.3933 143.019 31.052C143.232 30.7 143.339 30.2787 143.339 29.788C143.339 29.404 143.275 29.0733 143.147 28.796C143.029 28.508 142.869 28.268 142.667 28.076C142.464 27.8733 142.235 27.724 141.979 27.628C141.733 27.532 141.488 27.484 141.243 27.484C140.848 27.484 140.48 27.5747 140.139 27.756C139.808 27.9267 139.541 28.1827 139.339 28.524C139.136 28.8653 139.035 29.2867 139.035 29.788Z" fill="#009868"/>
<rect x="1.38" y="1" width="165.02" height="55" rx="5.9" stroke="#009868" stroke-opacity="0.2"/>
</svg>
