<svg width="660" height="359" viewBox="0 0 660 359" fill="none" xmlns="http://www.w3.org/2000/svg">
<rect x="12" y="24.6599" width="306" height="147" rx="16" fill="#009868" fill-opacity="0.1"/>
<path d="M55 81.0999V78.0599C55.7733 78.0599 56.4667 77.9666 57.08 77.7799C57.72 77.5666 58.2667 77.2866 58.72 76.9399C59.2 76.5932 59.56 76.1932 59.8 75.7399C60.04 75.2866 60.16 74.8066 60.16 74.2999C60.16 73.7666 60.04 73.2866 59.8 72.8599C59.56 72.4332 59.2133 72.1132 58.76 71.8999C58.3067 71.6599 57.72 71.5399 57 71.5399C55.9333 71.5399 55.0533 71.8466 54.36 72.4599C53.6667 73.0732 53.32 73.8732 53.32 74.8599H47.12C47.12 73.2066 47.52 71.7266 48.32 70.4199C49.1467 69.0866 50.3067 68.0466 51.8 67.2999C53.2933 66.5266 55.0267 66.1399 57 66.1399C59.1067 66.1399 60.8933 66.4866 62.36 67.1799C63.8267 67.8732 64.9333 68.8066 65.68 69.9799C66.4533 71.1532 66.84 72.4599 66.84 73.8999C66.84 75.4999 66.3067 76.8332 65.24 77.8999C64.2 78.9666 62.7867 79.7666 61 80.2999C59.2133 80.8332 57.2133 81.0999 55 81.0999ZM56.68 95.2999C55 95.2999 53.4933 95.0466 52.16 94.5399C50.8267 94.0332 49.6933 93.3266 48.76 92.4199C47.8533 91.5132 47.1467 90.4866 46.64 89.3399C46.16 88.1932 45.92 87.0066 45.92 85.7799H52.56C52.56 86.6866 52.76 87.4466 53.16 88.0599C53.56 88.6732 54.0933 89.1266 54.76 89.4199C55.4533 89.7132 56.1733 89.8599 56.92 89.8599C57.72 89.8599 58.4133 89.7399 59 89.4999C59.6133 89.2599 60.0933 88.8732 60.44 88.3399C60.7867 87.8066 60.96 87.1532 60.96 86.3799C60.96 85.7932 60.84 85.2599 60.6 84.7799C60.36 84.2999 59.9867 83.8866 59.48 83.5399C59 83.1666 58.3867 82.8866 57.64 82.6999C56.8933 82.5132 56.0133 82.4199 55 82.4199V78.9799C56.84 78.9799 58.52 79.1399 60.04 79.4599C61.5867 79.7532 62.9333 80.2332 64.08 80.8999C65.2267 81.5399 66.1067 82.3666 66.72 83.3799C67.3333 84.3932 67.64 85.6066 67.64 87.0199C67.64 88.6466 67.2 90.0866 66.32 91.3399C65.44 92.5666 64.1867 93.5399 62.56 94.2599C60.9333 94.9532 58.9733 95.2999 56.68 95.2999ZM76.9638 80.6599C76.9638 81.9666 77.0838 83.1666 77.3238 84.2599C77.5638 85.3266 77.9104 86.2466 78.3638 87.0199C78.8171 87.7666 79.3504 88.3532 79.9638 88.7799C80.6038 89.1799 81.3104 89.3799 82.0838 89.3799C82.8571 89.3799 83.5504 89.1799 84.1638 88.7799C84.8038 88.3532 85.3504 87.7666 85.8038 87.0199C86.2571 86.2466 86.6038 85.3266 86.8438 84.2599C87.0838 83.1666 87.2038 81.9666 87.2038 80.6599C87.2038 79.3532 87.0838 78.1666 86.8438 77.0999C86.6038 76.0066 86.2571 75.0866 85.8038 74.3399C85.3504 73.5666 84.8038 72.9799 84.1638 72.5799C83.5504 72.1532 82.8571 71.9399 82.0838 71.9399C81.3104 71.9399 80.6038 72.1532 79.9638 72.5799C79.3504 72.9799 78.8171 73.5666 78.3638 74.3399C77.9104 75.0866 77.5638 76.0066 77.3238 77.0999C77.0838 78.1666 76.9638 79.3532 76.9638 80.6599ZM70.4438 80.6599C70.4438 77.6199 70.9238 75.0199 71.8838 72.8599C72.8704 70.6999 74.2438 69.0466 76.0038 67.8999C77.7638 66.7266 79.7904 66.1399 82.0838 66.1399C84.4838 66.1399 86.5504 66.7266 88.2838 67.8999C90.0171 69.0466 91.3504 70.6999 92.2838 72.8599C93.2438 75.0199 93.7238 77.6199 93.7238 80.6599C93.7238 83.6999 93.2438 86.2999 92.2838 88.4599C91.3504 90.6199 90.0171 92.2866 88.2838 93.4599C86.5504 94.6066 84.4838 95.1799 82.0838 95.1799C79.7904 95.1799 77.7638 94.6066 76.0038 93.4599C74.2438 92.2866 72.8704 90.6199 71.8838 88.4599C70.9238 86.2999 70.4438 83.6999 70.4438 80.6599Z" fill="#05264E"/>
<path d="M107.33 80.7399V77.7799H111.85C112.623 77.7799 113.277 77.6599 113.81 77.4199C114.37 77.1799 114.797 76.8466 115.09 76.4199C115.383 75.9666 115.53 75.4199 115.53 74.7799C115.53 73.8199 115.21 73.0999 114.57 72.6199C113.93 72.1399 113.023 71.8999 111.85 71.8999H109.05V89.4199H112.49C113.37 89.4199 114.157 89.3132 114.85 89.0999C115.543 88.8599 116.09 88.4866 116.49 87.9799C116.917 87.4466 117.13 86.7266 117.13 85.8199C117.13 85.2332 117.01 84.7266 116.77 84.2999C116.53 83.8732 116.197 83.5266 115.77 83.2599C115.343 82.9932 114.85 82.8066 114.29 82.6999C113.757 82.5666 113.157 82.4999 112.49 82.4999H107.33V78.8199H113.25C114.61 78.8199 115.93 78.9666 117.21 79.2599C118.49 79.5532 119.65 80.0332 120.69 80.6999C121.73 81.3399 122.557 82.1666 123.17 83.1799C123.81 84.1666 124.13 85.3666 124.13 86.7799C124.13 88.6466 123.677 90.1532 122.77 91.2999C121.89 92.4466 120.637 93.2999 119.01 93.8599C117.383 94.3932 115.463 94.6599 113.25 94.6599H102.29V66.6599H112.57C114.517 66.6599 116.223 66.9266 117.69 67.4599C119.183 67.9666 120.357 68.7532 121.21 69.8199C122.09 70.8599 122.53 72.1799 122.53 73.7799C122.53 75.2466 122.09 76.4999 121.21 77.5399C120.357 78.5799 119.183 79.3799 117.69 79.9399C116.223 80.4732 114.517 80.7399 112.57 80.7399H107.33Z" fill="#05264E"/>
<path d="M46.43 128.96L46.76 127.46H51.635L51.98 128.96H46.43ZM49.175 124.13L47.525 127.985L47.495 128.375L46.04 131.66H44.045L49.175 120.575L54.305 131.66H52.31L50.885 128.465L50.84 128.03L49.175 124.13ZM56.4714 128.21C56.4714 128.65 56.5664 129.035 56.7564 129.365C56.9464 129.685 57.2014 129.94 57.5214 130.13C57.8514 130.32 58.2164 130.415 58.6164 130.415C58.9464 130.415 59.2614 130.365 59.5614 130.265C59.8614 130.165 60.1264 130.025 60.3564 129.845C60.5864 129.665 60.7564 129.465 60.8664 129.245V131.03C60.6264 131.27 60.3014 131.46 59.8914 131.6C59.4814 131.74 59.0314 131.81 58.5414 131.81C57.8314 131.81 57.1914 131.66 56.6214 131.36C56.0614 131.05 55.6164 130.625 55.2864 130.085C54.9664 129.535 54.8064 128.91 54.8064 128.21C54.8064 127.5 54.9664 126.875 55.2864 126.335C55.6164 125.795 56.0614 125.375 56.6214 125.075C57.1914 124.765 57.8314 124.61 58.5414 124.61C59.0314 124.61 59.4814 124.68 59.8914 124.82C60.3014 124.96 60.6264 125.15 60.8664 125.39V127.175C60.7564 126.945 60.5814 126.745 60.3414 126.575C60.1114 126.395 59.8464 126.255 59.5464 126.155C59.2464 126.055 58.9364 126.005 58.6164 126.005C58.2164 126.005 57.8514 126.1 57.5214 126.29C57.2014 126.48 56.9464 126.74 56.7564 127.07C56.5664 127.4 56.4714 127.78 56.4714 128.21ZM61.6971 124.76H65.6121V126.185H61.6971V124.76ZM62.8521 122.36H64.4571V131.66H62.8521V122.36ZM66.6693 122.015C66.6693 121.735 66.7693 121.5 66.9693 121.31C67.1793 121.12 67.4193 121.025 67.6893 121.025C67.9793 121.025 68.2193 121.12 68.4093 121.31C68.6093 121.5 68.7093 121.735 68.7093 122.015C68.7093 122.285 68.6093 122.52 68.4093 122.72C68.2193 122.91 67.9793 123.005 67.6893 123.005C67.4193 123.005 67.1793 122.91 66.9693 122.72C66.7693 122.52 66.6693 122.285 66.6693 122.015ZM66.8943 124.76H68.4843V131.66H66.8943V124.76ZM69.6637 124.76H71.4337L73.2337 129.215L75.0337 124.76H76.8187L73.2337 132.29L69.6637 124.76ZM80.6131 131.81C79.9131 131.81 79.2931 131.66 78.7531 131.36C78.2231 131.06 77.8131 130.64 77.5231 130.1C77.2331 129.56 77.0881 128.93 77.0881 128.21C77.0881 127.48 77.2331 126.845 77.5231 126.305C77.8231 125.765 78.2431 125.35 78.7831 125.06C79.3231 124.76 79.9581 124.61 80.6881 124.61C81.4181 124.61 82.0381 124.75 82.5481 125.03C83.0581 125.31 83.4481 125.715 83.7181 126.245C83.9981 126.765 84.1381 127.395 84.1381 128.135C84.1381 128.215 84.1331 128.3 84.1231 128.39C84.1231 128.48 84.1181 128.545 84.1081 128.585H78.0481V127.475H82.7281L82.2331 128.165C82.2631 128.105 82.2931 128.025 82.3231 127.925C82.3631 127.815 82.3831 127.725 82.3831 127.655C82.3831 127.285 82.3081 126.965 82.1581 126.695C82.0181 126.425 81.8181 126.215 81.5581 126.065C81.3081 125.915 81.0131 125.84 80.6731 125.84C80.2631 125.84 79.9131 125.93 79.6231 126.11C79.3331 126.29 79.1131 126.55 78.9631 126.89C78.8131 127.23 78.7331 127.65 78.7231 128.15C78.7231 128.65 78.7981 129.075 78.9481 129.425C79.0981 129.765 79.3181 130.025 79.6081 130.205C79.9081 130.385 80.2681 130.475 80.6881 130.475C81.1281 130.475 81.5131 130.385 81.8431 130.205C82.1731 130.025 82.4481 129.75 82.6681 129.38L84.0631 129.95C83.7031 130.57 83.2381 131.035 82.6681 131.345C82.0981 131.655 81.4131 131.81 80.6131 131.81ZM91.8465 128.96C91.8465 129.45 91.9515 129.83 92.1615 130.1C92.3715 130.37 92.6915 130.505 93.1215 130.505C93.4315 130.505 93.7015 130.445 93.9315 130.325C94.1615 130.195 94.3415 130.015 94.4715 129.785C94.6015 129.545 94.6665 129.27 94.6665 128.96V124.76H96.2865V131.66H94.6665V130.595C94.4465 130.995 94.1615 131.3 93.8115 131.51C93.4715 131.71 93.0615 131.81 92.5815 131.81C91.8115 131.81 91.2165 131.57 90.7965 131.09C90.3865 130.61 90.1815 129.96 90.1815 129.14V124.76H91.8465V128.96ZM98.6703 129.395C98.8903 129.635 99.1103 129.845 99.3303 130.025C99.5603 130.195 99.7903 130.325 100.02 130.415C100.25 130.495 100.48 130.535 100.71 130.535C101 130.535 101.225 130.47 101.385 130.34C101.555 130.21 101.64 130.03 101.64 129.8C101.64 129.6 101.575 129.43 101.445 129.29C101.315 129.14 101.135 129.015 100.905 128.915C100.675 128.805 100.405 128.695 100.095 128.585C99.7853 128.465 99.4753 128.325 99.1653 128.165C98.8653 127.995 98.6153 127.775 98.4153 127.505C98.2253 127.235 98.1303 126.895 98.1303 126.485C98.1303 126.065 98.2353 125.715 98.4453 125.435C98.6653 125.155 98.9553 124.95 99.3153 124.82C99.6853 124.68 100.08 124.61 100.5 124.61C100.88 124.61 101.235 124.665 101.565 124.775C101.905 124.885 102.21 125.03 102.48 125.21C102.75 125.39 102.98 125.595 103.17 125.825L102.27 126.785C102.04 126.515 101.765 126.295 101.445 126.125C101.125 125.955 100.795 125.87 100.455 125.87C100.225 125.87 100.035 125.92 99.8853 126.02C99.7353 126.12 99.6603 126.265 99.6603 126.455C99.6603 126.615 99.7253 126.76 99.8553 126.89C99.9953 127.01 100.175 127.12 100.395 127.22C100.625 127.32 100.88 127.425 101.16 127.535C101.54 127.685 101.89 127.85 102.21 128.03C102.53 128.21 102.785 128.43 102.975 128.69C103.175 128.95 103.275 129.29 103.275 129.71C103.275 130.36 103.05 130.885 102.6 131.285C102.16 131.675 101.56 131.87 100.8 131.87C100.33 131.87 99.8953 131.8 99.4953 131.66C99.1053 131.51 98.7603 131.32 98.4603 131.09C98.1703 130.85 97.9253 130.6 97.7253 130.34L98.6703 129.395ZM107.713 131.81C107.013 131.81 106.393 131.66 105.853 131.36C105.323 131.06 104.913 130.64 104.623 130.1C104.333 129.56 104.188 128.93 104.188 128.21C104.188 127.48 104.333 126.845 104.623 126.305C104.923 125.765 105.343 125.35 105.883 125.06C106.423 124.76 107.058 124.61 107.788 124.61C108.518 124.61 109.138 124.75 109.648 125.03C110.158 125.31 110.548 125.715 110.818 126.245C111.098 126.765 111.238 127.395 111.238 128.135C111.238 128.215 111.233 128.3 111.223 128.39C111.223 128.48 111.218 128.545 111.208 128.585H105.148V127.475H109.828L109.333 128.165C109.363 128.105 109.393 128.025 109.423 127.925C109.463 127.815 109.483 127.725 109.483 127.655C109.483 127.285 109.408 126.965 109.258 126.695C109.118 126.425 108.918 126.215 108.658 126.065C108.408 125.915 108.113 125.84 107.773 125.84C107.363 125.84 107.013 125.93 106.723 126.11C106.433 126.29 106.213 126.55 106.063 126.89C105.913 127.23 105.833 127.65 105.823 128.15C105.823 128.65 105.898 129.075 106.048 129.425C106.198 129.765 106.418 130.025 106.708 130.205C107.008 130.385 107.368 130.475 107.788 130.475C108.228 130.475 108.613 130.385 108.943 130.205C109.273 130.025 109.548 129.75 109.768 129.38L111.163 129.95C110.803 130.57 110.338 131.035 109.768 131.345C109.198 131.655 108.513 131.81 107.713 131.81ZM114.389 124.76V131.66H112.784V124.76H114.389ZM116.444 126.485C116.294 126.365 116.154 126.275 116.024 126.215C115.894 126.155 115.729 126.125 115.529 126.125C115.259 126.125 115.039 126.195 114.869 126.335C114.699 126.475 114.574 126.67 114.494 126.92C114.424 127.16 114.389 127.445 114.389 127.775L113.849 127.46C113.849 126.91 113.949 126.425 114.149 126.005C114.359 125.575 114.624 125.235 114.944 124.985C115.274 124.735 115.614 124.61 115.964 124.61C116.214 124.61 116.449 124.65 116.669 124.73C116.889 124.8 117.074 124.93 117.224 125.12L116.444 126.485ZM118.651 129.395C118.871 129.635 119.091 129.845 119.311 130.025C119.541 130.195 119.771 130.325 120.001 130.415C120.231 130.495 120.461 130.535 120.691 130.535C120.981 130.535 121.206 130.47 121.366 130.34C121.536 130.21 121.621 130.03 121.621 129.8C121.621 129.6 121.556 129.43 121.426 129.29C121.296 129.14 121.116 129.015 120.886 128.915C120.656 128.805 120.386 128.695 120.076 128.585C119.766 128.465 119.456 128.325 119.146 128.165C118.846 127.995 118.596 127.775 118.396 127.505C118.206 127.235 118.111 126.895 118.111 126.485C118.111 126.065 118.216 125.715 118.426 125.435C118.646 125.155 118.936 124.95 119.296 124.82C119.666 124.68 120.061 124.61 120.481 124.61C120.861 124.61 121.216 124.665 121.546 124.775C121.886 124.885 122.191 125.03 122.461 125.21C122.731 125.39 122.961 125.595 123.151 125.825L122.251 126.785C122.021 126.515 121.746 126.295 121.426 126.125C121.106 125.955 120.776 125.87 120.436 125.87C120.206 125.87 120.016 125.92 119.866 126.02C119.716 126.12 119.641 126.265 119.641 126.455C119.641 126.615 119.706 126.76 119.836 126.89C119.976 127.01 120.156 127.12 120.376 127.22C120.606 127.32 120.861 127.425 121.141 127.535C121.521 127.685 121.871 127.85 122.191 128.03C122.511 128.21 122.766 128.43 122.956 128.69C123.156 128.95 123.256 129.29 123.256 129.71C123.256 130.36 123.031 130.885 122.581 131.285C122.141 131.675 121.541 131.87 120.781 131.87C120.311 131.87 119.876 131.8 119.476 131.66C119.086 131.51 118.741 131.32 118.441 131.09C118.151 130.85 117.906 130.6 117.706 130.34L118.651 129.395Z" fill="#009868"/>
<rect x="12" y="195.66" width="306" height="147" rx="16" fill="#F69520" fill-opacity="0.1"/>
<path d="M44.56 260.7L60.8 237.66H65.84V265.66H58.8V258.62L59.56 258.18V247.46L53.52 255.82H63.84L64.52 254.94H70.24V260.7H44.56ZM72.7297 265.66L85.2097 252.74C85.9564 251.913 86.5964 251.167 87.1297 250.5C87.6897 249.833 88.103 249.18 88.3697 248.54C88.663 247.873 88.8097 247.167 88.8097 246.42C88.8097 245.993 88.7297 245.567 88.5697 245.14C88.4097 244.713 88.1697 244.34 87.8497 244.02C87.5297 243.673 87.1297 243.407 86.6497 243.22C86.1697 243.007 85.6097 242.9 84.9697 242.9C84.1164 242.9 83.3564 243.113 82.6897 243.54C82.0497 243.967 81.5564 244.567 81.2097 245.34C80.8897 246.113 80.7297 247.007 80.7297 248.02H74.0897C74.0897 246.02 74.503 244.193 75.3297 242.54C76.1564 240.887 77.3964 239.567 79.0497 238.58C80.7297 237.593 82.7697 237.1 85.1697 237.1C86.903 237.1 88.4364 237.367 89.7697 237.9C91.103 238.407 92.2097 239.1 93.0897 239.98C93.9964 240.833 94.6764 241.78 95.1297 242.82C95.583 243.86 95.8097 244.913 95.8097 245.98C95.8097 247.5 95.4364 248.9 94.6897 250.18C93.943 251.433 92.9697 252.58 91.7697 253.62L85.2497 259.46H96.4497V265.66H72.7297Z" fill="#05264E"/>
<path d="M110.17 251.74V248.78H114.69C115.463 248.78 116.117 248.66 116.65 248.42C117.21 248.18 117.637 247.847 117.93 247.42C118.223 246.967 118.37 246.42 118.37 245.78C118.37 244.82 118.05 244.1 117.41 243.62C116.77 243.14 115.863 242.9 114.69 242.9H111.89V260.42H115.33C116.21 260.42 116.997 260.313 117.69 260.1C118.383 259.86 118.93 259.487 119.33 258.98C119.757 258.447 119.97 257.727 119.97 256.82C119.97 256.233 119.85 255.727 119.61 255.3C119.37 254.873 119.037 254.527 118.61 254.26C118.183 253.993 117.69 253.807 117.13 253.7C116.597 253.567 115.997 253.5 115.33 253.5H110.17V249.82H116.09C117.45 249.82 118.77 249.967 120.05 250.26C121.33 250.553 122.49 251.033 123.53 251.7C124.57 252.34 125.397 253.167 126.01 254.18C126.65 255.167 126.97 256.367 126.97 257.78C126.97 259.647 126.517 261.153 125.61 262.3C124.73 263.447 123.477 264.3 121.85 264.86C120.223 265.393 118.303 265.66 116.09 265.66H105.13V237.66H115.41C117.357 237.66 119.063 237.927 120.53 238.46C122.023 238.967 123.197 239.753 124.05 240.82C124.93 241.86 125.37 243.18 125.37 244.78C125.37 246.247 124.93 247.5 124.05 248.54C123.197 249.58 122.023 250.38 120.53 250.94C119.063 251.473 117.357 251.74 115.41 251.74H110.17Z" fill="#05264E"/>
<path d="M45.17 292.16H46.955V302.66H45.17V292.16ZM53.6059 298.46C53.6059 297.95 53.5009 297.565 53.2909 297.305C53.0809 297.045 52.7559 296.915 52.3159 296.915C52.0159 296.915 51.7509 296.98 51.5209 297.11C51.2909 297.23 51.1109 297.41 50.9809 297.65C50.8509 297.88 50.7859 298.15 50.7859 298.46V302.66H49.1659V295.76H50.7859V296.825C51.0059 296.415 51.2859 296.11 51.6259 295.91C51.9759 295.71 52.3909 295.61 52.8709 295.61C53.6509 295.61 54.2459 295.85 54.6559 296.33C55.0659 296.8 55.2709 297.45 55.2709 298.28V302.66H53.6059V298.46ZM57.6547 300.395C57.8747 300.635 58.0947 300.845 58.3147 301.025C58.5447 301.195 58.7747 301.325 59.0047 301.415C59.2347 301.495 59.4647 301.535 59.6947 301.535C59.9847 301.535 60.2097 301.47 60.3697 301.34C60.5397 301.21 60.6247 301.03 60.6247 300.8C60.6247 300.6 60.5597 300.43 60.4297 300.29C60.2997 300.14 60.1197 300.015 59.8897 299.915C59.6597 299.805 59.3897 299.695 59.0797 299.585C58.7697 299.465 58.4597 299.325 58.1497 299.165C57.8497 298.995 57.5997 298.775 57.3997 298.505C57.2097 298.235 57.1147 297.895 57.1147 297.485C57.1147 297.065 57.2197 296.715 57.4297 296.435C57.6497 296.155 57.9397 295.95 58.2997 295.82C58.6697 295.68 59.0647 295.61 59.4847 295.61C59.8647 295.61 60.2197 295.665 60.5497 295.775C60.8897 295.885 61.1947 296.03 61.4647 296.21C61.7347 296.39 61.9647 296.595 62.1547 296.825L61.2547 297.785C61.0247 297.515 60.7497 297.295 60.4297 297.125C60.1097 296.955 59.7797 296.87 59.4397 296.87C59.2097 296.87 59.0197 296.92 58.8697 297.02C58.7197 297.12 58.6447 297.265 58.6447 297.455C58.6447 297.615 58.7097 297.76 58.8397 297.89C58.9797 298.01 59.1597 298.12 59.3797 298.22C59.6097 298.32 59.8647 298.425 60.1447 298.535C60.5247 298.685 60.8747 298.85 61.1947 299.03C61.5147 299.21 61.7697 299.43 61.9597 299.69C62.1597 299.95 62.2597 300.29 62.2597 300.71C62.2597 301.36 62.0347 301.885 61.5847 302.285C61.1447 302.675 60.5447 302.87 59.7847 302.87C59.3147 302.87 58.8797 302.8 58.4797 302.66C58.0897 302.51 57.7447 302.32 57.4447 302.09C57.1547 301.85 56.9097 301.6 56.7097 301.34L57.6547 300.395ZM62.7371 295.76H66.6521V297.185H62.7371V295.76ZM63.8921 293.36H65.4971V302.66H63.8921V293.36ZM68.7894 300.515C68.7894 300.745 68.8444 300.945 68.9544 301.115C69.0644 301.275 69.2144 301.395 69.4044 301.475C69.6044 301.555 69.8294 301.595 70.0794 301.595C70.3994 301.595 70.6894 301.53 70.9494 301.4C71.2194 301.27 71.4344 301.08 71.5944 300.83C71.7644 300.57 71.8494 300.27 71.8494 299.93L72.0894 300.83C72.0894 301.27 71.9594 301.64 71.6994 301.94C71.4494 302.23 71.1294 302.45 70.7394 302.6C70.3594 302.74 69.9694 302.81 69.5694 302.81C69.1394 302.81 68.7394 302.725 68.3694 302.555C67.9994 302.385 67.7044 302.135 67.4844 301.805C67.2644 301.475 67.1544 301.075 67.1544 300.605C67.1544 299.935 67.3894 299.405 67.8594 299.015C68.3294 298.615 68.9944 298.415 69.8544 298.415C70.3144 298.415 70.7094 298.465 71.0394 298.565C71.3794 298.665 71.6594 298.785 71.8794 298.925C72.0994 299.055 72.2544 299.175 72.3444 299.285V300.11C72.0344 299.89 71.7044 299.73 71.3544 299.63C71.0044 299.53 70.6344 299.48 70.2444 299.48C69.9044 299.48 69.6294 299.525 69.4194 299.615C69.2094 299.695 69.0494 299.81 68.9394 299.96C68.8394 300.11 68.7894 300.295 68.7894 300.515ZM68.2794 297.56L67.6194 296.42C67.9294 296.23 68.3294 296.045 68.8194 295.865C69.3194 295.685 69.8894 295.595 70.5294 295.595C71.0994 295.595 71.5994 295.68 72.0294 295.85C72.4694 296.02 72.8144 296.265 73.0644 296.585C73.3144 296.895 73.4394 297.28 73.4394 297.74V302.66H71.8494V298.055C71.8494 297.835 71.8094 297.655 71.7294 297.515C71.6594 297.375 71.5594 297.26 71.4294 297.17C71.2994 297.08 71.1444 297.015 70.9644 296.975C70.7844 296.935 70.5894 296.915 70.3794 296.915C70.0594 296.915 69.7544 296.955 69.4644 297.035C69.1844 297.105 68.9394 297.195 68.7294 297.305C68.5294 297.405 68.3794 297.49 68.2794 297.56ZM75.328 290.96H76.948V302.66H75.328V290.96ZM79.0194 290.96H80.6394V302.66H79.0194V290.96ZM85.7108 302.81C85.0108 302.81 84.3908 302.66 83.8508 302.36C83.3208 302.06 82.9108 301.64 82.6208 301.1C82.3308 300.56 82.1858 299.93 82.1858 299.21C82.1858 298.48 82.3308 297.845 82.6208 297.305C82.9208 296.765 83.3408 296.35 83.8808 296.06C84.4208 295.76 85.0558 295.61 85.7858 295.61C86.5158 295.61 87.1358 295.75 87.6458 296.03C88.1558 296.31 88.5458 296.715 88.8158 297.245C89.0958 297.765 89.2358 298.395 89.2358 299.135C89.2358 299.215 89.2308 299.3 89.2208 299.39C89.2208 299.48 89.2158 299.545 89.2058 299.585H83.1458V298.475H87.8258L87.3308 299.165C87.3608 299.105 87.3908 299.025 87.4208 298.925C87.4608 298.815 87.4808 298.725 87.4808 298.655C87.4808 298.285 87.4058 297.965 87.2558 297.695C87.1158 297.425 86.9158 297.215 86.6558 297.065C86.4058 296.915 86.1108 296.84 85.7708 296.84C85.3608 296.84 85.0108 296.93 84.7208 297.11C84.4308 297.29 84.2108 297.55 84.0608 297.89C83.9108 298.23 83.8308 298.65 83.8208 299.15C83.8208 299.65 83.8958 300.075 84.0458 300.425C84.1958 300.765 84.4158 301.025 84.7058 301.205C85.0058 301.385 85.3658 301.475 85.7858 301.475C86.2258 301.475 86.6108 301.385 86.9408 301.205C87.2708 301.025 87.5458 300.75 87.7658 300.38L89.1608 300.95C88.8008 301.57 88.3358 302.035 87.7658 302.345C87.1958 302.655 86.5108 302.81 85.7108 302.81ZM95.9721 290.96H97.6071V302.66H95.9721V290.96ZM90.2571 299.21C90.2571 298.45 90.4121 297.805 90.7221 297.275C91.0321 296.735 91.4421 296.325 91.9521 296.045C92.4721 295.755 93.0271 295.61 93.6171 295.61C94.1971 295.61 94.7021 295.755 95.1321 296.045C95.5721 296.335 95.9171 296.75 96.1671 297.29C96.4271 297.82 96.5571 298.46 96.5571 299.21C96.5571 299.95 96.4271 300.59 96.1671 301.13C95.9171 301.67 95.5721 302.085 95.1321 302.375C94.7021 302.665 94.1971 302.81 93.6171 302.81C93.0271 302.81 92.4721 302.67 91.9521 302.39C91.4421 302.1 91.0321 301.685 90.7221 301.145C90.4121 300.605 90.2571 299.96 90.2571 299.21ZM91.9371 299.21C91.9371 299.67 92.0321 300.065 92.2221 300.395C92.4121 300.725 92.6621 300.975 92.9721 301.145C93.2921 301.315 93.6371 301.4 94.0071 301.4C94.3171 301.4 94.6221 301.315 94.9221 301.145C95.2321 300.975 95.4821 300.73 95.6721 300.41C95.8721 300.08 95.9721 299.68 95.9721 299.21C95.9721 298.74 95.8721 298.345 95.6721 298.025C95.4821 297.695 95.2321 297.445 94.9221 297.275C94.6221 297.105 94.3171 297.02 94.0071 297.02C93.6371 297.02 93.2921 297.105 92.9721 297.275C92.6621 297.445 92.4121 297.695 92.2221 298.025C92.0321 298.355 91.9371 298.75 91.9371 299.21ZM105.507 299.96L105.837 298.46H110.712L111.057 299.96H105.507ZM108.252 295.13L106.602 298.985L106.572 299.375L105.117 302.66H103.122L108.252 291.575L113.382 302.66H111.387L109.962 299.465L109.917 299.03L108.252 295.13ZM116.044 305.96H114.409V295.76H116.044V305.96ZM121.759 299.21C121.759 299.97 121.604 300.625 121.294 301.175C120.984 301.715 120.574 302.13 120.064 302.42C119.554 302.7 118.999 302.84 118.399 302.84C117.809 302.84 117.294 302.695 116.854 302.405C116.424 302.105 116.089 301.685 115.849 301.145C115.619 300.595 115.504 299.95 115.504 299.21C115.504 298.46 115.619 297.815 115.849 297.275C116.089 296.735 116.424 296.32 116.854 296.03C117.294 295.73 117.809 295.58 118.399 295.58C118.999 295.58 119.554 295.725 120.064 296.015C120.574 296.295 120.984 296.705 121.294 297.245C121.604 297.785 121.759 298.44 121.759 299.21ZM120.079 299.21C120.079 298.75 119.984 298.36 119.794 298.04C119.604 297.71 119.349 297.465 119.029 297.305C118.719 297.135 118.374 297.05 117.994 297.05C117.684 297.05 117.379 297.135 117.079 297.305C116.779 297.465 116.529 297.705 116.329 298.025C116.139 298.345 116.044 298.74 116.044 299.21C116.044 299.68 116.139 300.075 116.329 300.395C116.529 300.715 116.779 300.96 117.079 301.13C117.379 301.29 117.684 301.37 117.994 301.37C118.374 301.37 118.719 301.29 119.029 301.13C119.349 300.96 119.604 300.715 119.794 300.395C119.984 300.065 120.079 299.67 120.079 299.21ZM124.877 305.96H123.242V295.76H124.877V305.96ZM130.592 299.21C130.592 299.97 130.437 300.625 130.127 301.175C129.817 301.715 129.407 302.13 128.897 302.42C128.387 302.7 127.832 302.84 127.232 302.84C126.642 302.84 126.127 302.695 125.687 302.405C125.257 302.105 124.922 301.685 124.682 301.145C124.452 300.595 124.337 299.95 124.337 299.21C124.337 298.46 124.452 297.815 124.682 297.275C124.922 296.735 125.257 296.32 125.687 296.03C126.127 295.73 126.642 295.58 127.232 295.58C127.832 295.58 128.387 295.725 128.897 296.015C129.407 296.295 129.817 296.705 130.127 297.245C130.437 297.785 130.592 298.44 130.592 299.21ZM128.912 299.21C128.912 298.75 128.817 298.36 128.627 298.04C128.437 297.71 128.182 297.465 127.862 297.305C127.552 297.135 127.207 297.05 126.827 297.05C126.517 297.05 126.212 297.135 125.912 297.305C125.612 297.465 125.362 297.705 125.162 298.025C124.972 298.345 124.877 298.74 124.877 299.21C124.877 299.68 124.972 300.075 125.162 300.395C125.362 300.715 125.612 300.96 125.912 301.13C126.212 301.29 126.517 301.37 126.827 301.37C127.207 301.37 127.552 301.29 127.862 301.13C128.182 300.96 128.437 300.715 128.627 300.395C128.817 300.065 128.912 299.67 128.912 299.21ZM132.45 300.395C132.67 300.635 132.89 300.845 133.11 301.025C133.34 301.195 133.57 301.325 133.8 301.415C134.03 301.495 134.26 301.535 134.49 301.535C134.78 301.535 135.005 301.47 135.165 301.34C135.335 301.21 135.42 301.03 135.42 300.8C135.42 300.6 135.355 300.43 135.225 300.29C135.095 300.14 134.915 300.015 134.685 299.915C134.455 299.805 134.185 299.695 133.875 299.585C133.565 299.465 133.255 299.325 132.945 299.165C132.645 298.995 132.395 298.775 132.195 298.505C132.005 298.235 131.91 297.895 131.91 297.485C131.91 297.065 132.015 296.715 132.225 296.435C132.445 296.155 132.735 295.95 133.095 295.82C133.465 295.68 133.86 295.61 134.28 295.61C134.66 295.61 135.015 295.665 135.345 295.775C135.685 295.885 135.99 296.03 136.26 296.21C136.53 296.39 136.76 296.595 136.95 296.825L136.05 297.785C135.82 297.515 135.545 297.295 135.225 297.125C134.905 296.955 134.575 296.87 134.235 296.87C134.005 296.87 133.815 296.92 133.665 297.02C133.515 297.12 133.44 297.265 133.44 297.455C133.44 297.615 133.505 297.76 133.635 297.89C133.775 298.01 133.955 298.12 134.175 298.22C134.405 298.32 134.66 298.425 134.94 298.535C135.32 298.685 135.67 298.85 135.99 299.03C136.31 299.21 136.565 299.43 136.755 299.69C136.955 299.95 137.055 300.29 137.055 300.71C137.055 301.36 136.83 301.885 136.38 302.285C135.94 302.675 135.34 302.87 134.58 302.87C134.11 302.87 133.675 302.8 133.275 302.66C132.885 302.51 132.54 302.32 132.24 302.09C131.95 301.85 131.705 301.6 131.505 301.34L132.45 300.395Z" fill="#F69520"/>
<rect x="342" y="40.6599" width="306" height="147" rx="16" fill="#A70A29" fill-opacity="0.1"/>
<path d="M398.2 101.7C398.2 103.353 397.867 104.78 397.2 105.98C396.56 107.18 395.68 108.167 394.56 108.94C393.467 109.713 392.253 110.287 390.92 110.66C389.613 111.007 388.28 111.18 386.92 111.18C385.213 111.18 383.667 111.007 382.28 110.66C380.893 110.34 379.667 109.913 378.6 109.38C377.533 108.82 376.56 108.207 375.68 107.54L378.32 101.98C379.093 102.62 379.88 103.167 380.68 103.62C381.507 104.047 382.333 104.393 383.16 104.66C383.987 104.9 384.733 105.02 385.4 105.02C386.547 105.02 387.52 104.873 388.32 104.58C389.12 104.287 389.733 103.833 390.16 103.22C390.587 102.607 390.8 101.86 390.8 100.98C390.8 100.047 390.533 99.2999 390 98.7399C389.493 98.1532 388.827 97.7266 388 97.4599C387.2 97.1932 386.333 97.0599 385.4 97.0599C384.68 97.0599 383.88 97.1132 383 97.2199C382.147 97.2999 381.253 97.4732 380.32 97.7399C379.413 97.9799 378.48 98.3399 377.52 98.8199L381.44 82.6599H397.6V88.4999H386.4L384.8 93.4999C385.547 93.1532 386.32 92.9132 387.12 92.7799C387.947 92.6199 388.8 92.5399 389.68 92.5399C391.173 92.5399 392.56 92.8999 393.84 93.6199C395.147 94.3399 396.2 95.3799 397 96.7399C397.8 98.0999 398.2 99.7532 398.2 101.7ZM408.461 100.82C408.461 101.78 408.661 102.62 409.061 103.34C409.488 104.033 410.048 104.58 410.741 104.98C411.461 105.353 412.275 105.54 413.181 105.54C414.061 105.54 414.848 105.353 415.541 104.98C416.261 104.58 416.821 104.033 417.221 103.34C417.648 102.62 417.861 101.78 417.861 100.82C417.861 99.8866 417.648 99.0599 417.221 98.3399C416.821 97.6199 416.261 97.0599 415.541 96.6599C414.848 96.2599 414.061 96.0599 413.181 96.0599C412.275 96.0599 411.461 96.2599 410.741 96.6599C410.048 97.0599 409.488 97.6199 409.061 98.3399C408.661 99.0599 408.461 99.8866 408.461 100.82ZM413.101 82.7799H421.661L412.621 92.8999L411.221 93.4999C411.968 92.7532 412.675 92.2732 413.341 92.0599C414.035 91.8466 414.888 91.7399 415.901 91.7399C416.941 91.7399 417.968 91.9532 418.981 92.3799C420.021 92.7799 420.955 93.3799 421.781 94.1799C422.635 94.9532 423.301 95.8999 423.781 97.0199C424.288 98.1399 424.541 99.4066 424.541 100.82C424.541 103.113 424.021 105.047 422.981 106.62C421.968 108.167 420.595 109.34 418.861 110.14C417.155 110.913 415.261 111.3 413.181 111.3C411.075 111.3 409.155 110.913 407.421 110.14C405.715 109.34 404.341 108.167 403.301 106.62C402.288 105.047 401.781 103.113 401.781 100.82C401.781 99.3266 402.088 97.9399 402.701 96.6599C403.341 95.3799 404.115 94.1799 405.021 93.0599L413.101 82.7799Z" fill="#05264E"/>
<path d="M433.16 102.82V96.9799H454.92V102.82H433.16ZM440.92 89.0599H447.16V110.74H440.92V89.0599Z" fill="#05264E"/>
<path d="M376.475 142.41C376.475 143.15 376.64 143.8 376.97 144.36C377.31 144.92 377.75 145.355 378.29 145.665C378.84 145.965 379.435 146.115 380.075 146.115C380.575 146.115 381.025 146.05 381.425 145.92C381.825 145.79 382.185 145.615 382.505 145.395C382.835 145.165 383.12 144.91 383.36 144.63V146.73C382.92 147.09 382.445 147.365 381.935 147.555C381.425 147.745 380.785 147.84 380.015 147.84C379.245 147.84 378.525 147.71 377.855 147.45C377.195 147.19 376.62 146.815 376.13 146.325C375.64 145.835 375.255 145.26 374.975 144.6C374.705 143.93 374.57 143.2 374.57 142.41C374.57 141.62 374.705 140.895 374.975 140.235C375.255 139.565 375.64 138.985 376.13 138.495C376.62 138.005 377.195 137.63 377.855 137.37C378.525 137.11 379.245 136.98 380.015 136.98C380.785 136.98 381.425 137.075 381.935 137.265C382.445 137.455 382.92 137.73 383.36 138.09V140.19C383.12 139.91 382.835 139.66 382.505 139.44C382.185 139.21 381.825 139.03 381.425 138.9C381.025 138.77 380.575 138.705 380.075 138.705C379.435 138.705 378.84 138.86 378.29 139.17C377.75 139.47 377.31 139.9 376.97 140.46C376.64 141.01 376.475 141.66 376.475 142.41ZM384.881 144.21C384.881 143.5 385.041 142.875 385.361 142.335C385.691 141.795 386.136 141.375 386.696 141.075C387.256 140.765 387.891 140.61 388.601 140.61C389.311 140.61 389.941 140.765 390.491 141.075C391.051 141.375 391.496 141.795 391.826 142.335C392.156 142.875 392.321 143.5 392.321 144.21C392.321 144.91 392.156 145.535 391.826 146.085C391.496 146.625 391.051 147.05 390.491 147.36C389.941 147.66 389.311 147.81 388.601 147.81C387.891 147.81 387.256 147.66 386.696 147.36C386.136 147.05 385.691 146.625 385.361 146.085C385.041 145.535 384.881 144.91 384.881 144.21ZM386.546 144.21C386.546 144.64 386.636 145.02 386.816 145.35C386.996 145.67 387.241 145.925 387.551 146.115C387.861 146.295 388.211 146.385 388.601 146.385C388.981 146.385 389.326 146.295 389.636 146.115C389.956 145.925 390.206 145.67 390.386 145.35C390.566 145.02 390.656 144.64 390.656 144.21C390.656 143.78 390.566 143.4 390.386 143.07C390.206 142.74 389.956 142.485 389.636 142.305C389.326 142.125 388.981 142.035 388.601 142.035C388.211 142.035 387.861 142.125 387.551 142.305C387.241 142.485 386.996 142.74 386.816 143.07C386.636 143.4 386.546 143.78 386.546 144.21ZM395.523 144.96C395.523 145.45 395.628 145.83 395.838 146.1C396.048 146.37 396.368 146.505 396.798 146.505C397.108 146.505 397.378 146.445 397.608 146.325C397.838 146.195 398.018 146.015 398.148 145.785C398.278 145.545 398.343 145.27 398.343 144.96V140.76H399.963V147.66H398.343V146.595C398.123 146.995 397.838 147.3 397.488 147.51C397.148 147.71 396.738 147.81 396.258 147.81C395.488 147.81 394.893 147.57 394.473 147.09C394.063 146.61 393.858 145.96 393.858 145.14V140.76H395.523V144.96ZM406.472 143.46C406.472 142.95 406.367 142.565 406.157 142.305C405.947 142.045 405.622 141.915 405.182 141.915C404.882 141.915 404.617 141.98 404.387 142.11C404.157 142.23 403.977 142.41 403.847 142.65C403.717 142.88 403.652 143.15 403.652 143.46V147.66H402.032V140.76H403.652V141.825C403.872 141.415 404.152 141.11 404.492 140.91C404.842 140.71 405.257 140.61 405.737 140.61C406.517 140.61 407.112 140.85 407.522 141.33C407.932 141.8 408.137 142.45 408.137 143.28V147.66H406.472V143.46ZM409.246 140.76H413.161V142.185H409.246V140.76ZM410.401 138.36H412.006V147.66H410.401V138.36ZM415.883 140.76V147.66H414.278V140.76H415.883ZM417.938 142.485C417.788 142.365 417.648 142.275 417.518 142.215C417.388 142.155 417.223 142.125 417.023 142.125C416.753 142.125 416.533 142.195 416.363 142.335C416.193 142.475 416.068 142.67 415.988 142.92C415.918 143.16 415.883 143.445 415.883 143.775L415.343 143.46C415.343 142.91 415.443 142.425 415.643 142.005C415.853 141.575 416.118 141.235 416.438 140.985C416.768 140.735 417.108 140.61 417.458 140.61C417.708 140.61 417.943 140.65 418.163 140.73C418.383 140.8 418.568 140.93 418.718 141.12L417.938 142.485ZM419.77 138.015C419.77 137.735 419.87 137.5 420.07 137.31C420.28 137.12 420.52 137.025 420.79 137.025C421.08 137.025 421.32 137.12 421.51 137.31C421.71 137.5 421.81 137.735 421.81 138.015C421.81 138.285 421.71 138.52 421.51 138.72C421.32 138.91 421.08 139.005 420.79 139.005C420.52 139.005 420.28 138.91 420.07 138.72C419.87 138.52 419.77 138.285 419.77 138.015ZM419.995 140.76H421.585V147.66H419.995V140.76ZM426.814 147.81C426.114 147.81 425.494 147.66 424.954 147.36C424.424 147.06 424.014 146.64 423.724 146.1C423.434 145.56 423.289 144.93 423.289 144.21C423.289 143.48 423.434 142.845 423.724 142.305C424.024 141.765 424.444 141.35 424.984 141.06C425.524 140.76 426.159 140.61 426.889 140.61C427.619 140.61 428.239 140.75 428.749 141.03C429.259 141.31 429.649 141.715 429.919 142.245C430.199 142.765 430.339 143.395 430.339 144.135C430.339 144.215 430.334 144.3 430.324 144.39C430.324 144.48 430.319 144.545 430.309 144.585H424.249V143.475H428.929L428.434 144.165C428.464 144.105 428.494 144.025 428.524 143.925C428.564 143.815 428.584 143.725 428.584 143.655C428.584 143.285 428.509 142.965 428.359 142.695C428.219 142.425 428.019 142.215 427.759 142.065C427.509 141.915 427.214 141.84 426.874 141.84C426.464 141.84 426.114 141.93 425.824 142.11C425.534 142.29 425.314 142.55 425.164 142.89C425.014 143.23 424.934 143.65 424.924 144.15C424.924 144.65 424.999 145.075 425.149 145.425C425.299 145.765 425.519 146.025 425.809 146.205C426.109 146.385 426.469 146.475 426.889 146.475C427.329 146.475 427.714 146.385 428.044 146.205C428.374 146.025 428.649 145.75 428.869 145.38L430.264 145.95C429.904 146.57 429.439 147.035 428.869 147.345C428.299 147.655 427.614 147.81 426.814 147.81ZM432.201 145.395C432.421 145.635 432.641 145.845 432.861 146.025C433.091 146.195 433.321 146.325 433.551 146.415C433.781 146.495 434.011 146.535 434.241 146.535C434.531 146.535 434.756 146.47 434.916 146.34C435.086 146.21 435.171 146.03 435.171 145.8C435.171 145.6 435.106 145.43 434.976 145.29C434.846 145.14 434.666 145.015 434.436 144.915C434.206 144.805 433.936 144.695 433.626 144.585C433.316 144.465 433.006 144.325 432.696 144.165C432.396 143.995 432.146 143.775 431.946 143.505C431.756 143.235 431.661 142.895 431.661 142.485C431.661 142.065 431.766 141.715 431.976 141.435C432.196 141.155 432.486 140.95 432.846 140.82C433.216 140.68 433.611 140.61 434.031 140.61C434.411 140.61 434.766 140.665 435.096 140.775C435.436 140.885 435.741 141.03 436.011 141.21C436.281 141.39 436.511 141.595 436.701 141.825L435.801 142.785C435.571 142.515 435.296 142.295 434.976 142.125C434.656 141.955 434.326 141.87 433.986 141.87C433.756 141.87 433.566 141.92 433.416 142.02C433.266 142.12 433.191 142.265 433.191 142.455C433.191 142.615 433.256 142.76 433.386 142.89C433.526 143.01 433.706 143.12 433.926 143.22C434.156 143.32 434.411 143.425 434.691 143.535C435.071 143.685 435.421 143.85 435.741 144.03C436.061 144.21 436.316 144.43 436.506 144.69C436.706 144.95 436.806 145.29 436.806 145.71C436.806 146.36 436.581 146.885 436.131 147.285C435.691 147.675 435.091 147.87 434.331 147.87C433.861 147.87 433.426 147.8 433.026 147.66C432.636 147.51 432.291 147.32 431.991 147.09C431.701 146.85 431.456 146.6 431.256 146.34L432.201 145.395ZM442.8 137.16H444.57V144.135C444.57 144.785 444.74 145.31 445.08 145.71C445.43 146.1 445.945 146.295 446.625 146.295C447.295 146.295 447.805 146.1 448.155 145.71C448.505 145.31 448.68 144.785 448.68 144.135V137.16H450.45V144.21C450.45 144.79 450.355 145.31 450.165 145.77C449.985 146.22 449.725 146.605 449.385 146.925C449.045 147.245 448.64 147.49 448.17 147.66C447.7 147.83 447.185 147.915 446.625 147.915C446.065 147.915 445.55 147.83 445.08 147.66C444.61 147.49 444.2 147.245 443.85 146.925C443.51 146.605 443.25 146.22 443.07 145.77C442.89 145.31 442.8 144.79 442.8 144.21V137.16ZM452.899 145.395C453.119 145.635 453.339 145.845 453.559 146.025C453.789 146.195 454.019 146.325 454.249 146.415C454.479 146.495 454.709 146.535 454.939 146.535C455.229 146.535 455.454 146.47 455.614 146.34C455.784 146.21 455.869 146.03 455.869 145.8C455.869 145.6 455.804 145.43 455.674 145.29C455.544 145.14 455.364 145.015 455.134 144.915C454.904 144.805 454.634 144.695 454.324 144.585C454.014 144.465 453.704 144.325 453.394 144.165C453.094 143.995 452.844 143.775 452.644 143.505C452.454 143.235 452.359 142.895 452.359 142.485C452.359 142.065 452.464 141.715 452.674 141.435C452.894 141.155 453.184 140.95 453.544 140.82C453.914 140.68 454.309 140.61 454.729 140.61C455.109 140.61 455.464 140.665 455.794 140.775C456.134 140.885 456.439 141.03 456.709 141.21C456.979 141.39 457.209 141.595 457.399 141.825L456.499 142.785C456.269 142.515 455.994 142.295 455.674 142.125C455.354 141.955 455.024 141.87 454.684 141.87C454.454 141.87 454.264 141.92 454.114 142.02C453.964 142.12 453.889 142.265 453.889 142.455C453.889 142.615 453.954 142.76 454.084 142.89C454.224 143.01 454.404 143.12 454.624 143.22C454.854 143.32 455.109 143.425 455.389 143.535C455.769 143.685 456.119 143.85 456.439 144.03C456.759 144.21 457.014 144.43 457.204 144.69C457.404 144.95 457.504 145.29 457.504 145.71C457.504 146.36 457.279 146.885 456.829 147.285C456.389 147.675 455.789 147.87 455.029 147.87C454.559 147.87 454.124 147.8 453.724 147.66C453.334 147.51 452.989 147.32 452.689 147.09C452.399 146.85 452.154 146.6 451.954 146.34L452.899 145.395ZM461.941 147.81C461.241 147.81 460.621 147.66 460.081 147.36C459.551 147.06 459.141 146.64 458.851 146.1C458.561 145.56 458.416 144.93 458.416 144.21C458.416 143.48 458.561 142.845 458.851 142.305C459.151 141.765 459.571 141.35 460.111 141.06C460.651 140.76 461.286 140.61 462.016 140.61C462.746 140.61 463.366 140.75 463.876 141.03C464.386 141.31 464.776 141.715 465.046 142.245C465.326 142.765 465.466 143.395 465.466 144.135C465.466 144.215 465.461 144.3 465.451 144.39C465.451 144.48 465.446 144.545 465.436 144.585H459.376V143.475H464.056L463.561 144.165C463.591 144.105 463.621 144.025 463.651 143.925C463.691 143.815 463.711 143.725 463.711 143.655C463.711 143.285 463.636 142.965 463.486 142.695C463.346 142.425 463.146 142.215 462.886 142.065C462.636 141.915 462.341 141.84 462.001 141.84C461.591 141.84 461.241 141.93 460.951 142.11C460.661 142.29 460.441 142.55 460.291 142.89C460.141 143.23 460.061 143.65 460.051 144.15C460.051 144.65 460.126 145.075 460.276 145.425C460.426 145.765 460.646 146.025 460.936 146.205C461.236 146.385 461.596 146.475 462.016 146.475C462.456 146.475 462.841 146.385 463.171 146.205C463.501 146.025 463.776 145.75 463.996 145.38L465.391 145.95C465.031 146.57 464.566 147.035 463.996 147.345C463.426 147.655 462.741 147.81 461.941 147.81Z" fill="#A70A29"/>
<rect x="342" y="211.66" width="306" height="147" rx="16" fill="#008AFF" fill-opacity="0.1"/>
<path d="M374.8 281.66L387.28 268.74C388.027 267.913 388.667 267.167 389.2 266.5C389.76 265.833 390.173 265.18 390.44 264.54C390.733 263.873 390.88 263.167 390.88 262.42C390.88 261.993 390.8 261.567 390.64 261.14C390.48 260.713 390.24 260.34 389.92 260.02C389.6 259.673 389.2 259.407 388.72 259.22C388.24 259.007 387.68 258.9 387.04 258.9C386.187 258.9 385.427 259.113 384.76 259.54C384.12 259.967 383.627 260.567 383.28 261.34C382.96 262.113 382.8 263.007 382.8 264.02H376.16C376.16 262.02 376.573 260.193 377.4 258.54C378.227 256.887 379.467 255.567 381.12 254.58C382.8 253.593 384.84 253.1 387.24 253.1C388.973 253.1 390.507 253.367 391.84 253.9C393.173 254.407 394.28 255.1 395.16 255.98C396.067 256.833 396.747 257.78 397.2 258.82C397.653 259.86 397.88 260.913 397.88 261.98C397.88 263.5 397.507 264.9 396.76 266.18C396.013 267.433 395.04 268.58 393.84 269.62L387.32 275.46H398.52V281.66H374.8ZM401.45 259.98V253.66H424.29L410.77 281.66H403.45L414.37 259.98H401.45Z" fill="#05264E"/>
<path d="M436.38 267.74V264.78H440.9C441.673 264.78 442.327 264.66 442.86 264.42C443.42 264.18 443.847 263.847 444.14 263.42C444.433 262.967 444.58 262.42 444.58 261.78C444.58 260.82 444.26 260.1 443.62 259.62C442.98 259.14 442.073 258.9 440.9 258.9H438.1V276.42H441.54C442.42 276.42 443.207 276.313 443.9 276.1C444.593 275.86 445.14 275.487 445.54 274.98C445.967 274.447 446.18 273.727 446.18 272.82C446.18 272.233 446.06 271.727 445.82 271.3C445.58 270.873 445.247 270.527 444.82 270.26C444.393 269.993 443.9 269.807 443.34 269.7C442.807 269.567 442.207 269.5 441.54 269.5H436.38V265.82H442.3C443.66 265.82 444.98 265.967 446.26 266.26C447.54 266.553 448.7 267.033 449.74 267.7C450.78 268.34 451.607 269.167 452.22 270.18C452.86 271.167 453.18 272.367 453.18 273.78C453.18 275.647 452.727 277.153 451.82 278.3C450.94 279.447 449.687 280.3 448.06 280.86C446.433 281.393 444.513 281.66 442.3 281.66H431.34V253.66H441.62C443.567 253.66 445.273 253.927 446.74 254.46C448.233 254.967 449.407 255.753 450.26 256.82C451.14 257.86 451.58 259.18 451.58 260.78C451.58 262.247 451.14 263.5 450.26 264.54C449.407 265.58 448.233 266.38 446.74 266.94C445.273 267.473 443.567 267.74 441.62 267.74H436.38Z" fill="#05264E"/>
<path d="M375.875 313.845V312.21H383.36V313.845H375.875ZM382.22 308.16H383.99V318.66H382.22V308.16ZM375.17 308.16H376.94V318.66H375.17V308.16ZM387.217 316.515C387.217 316.745 387.272 316.945 387.382 317.115C387.492 317.275 387.642 317.395 387.832 317.475C388.032 317.555 388.257 317.595 388.507 317.595C388.827 317.595 389.117 317.53 389.377 317.4C389.647 317.27 389.862 317.08 390.022 316.83C390.192 316.57 390.277 316.27 390.277 315.93L390.517 316.83C390.517 317.27 390.387 317.64 390.127 317.94C389.877 318.23 389.557 318.45 389.167 318.6C388.787 318.74 388.397 318.81 387.997 318.81C387.567 318.81 387.167 318.725 386.797 318.555C386.427 318.385 386.132 318.135 385.912 317.805C385.692 317.475 385.582 317.075 385.582 316.605C385.582 315.935 385.817 315.405 386.287 315.015C386.757 314.615 387.422 314.415 388.282 314.415C388.742 314.415 389.137 314.465 389.467 314.565C389.807 314.665 390.087 314.785 390.307 314.925C390.527 315.055 390.682 315.175 390.772 315.285V316.11C390.462 315.89 390.132 315.73 389.782 315.63C389.432 315.53 389.062 315.48 388.672 315.48C388.332 315.48 388.057 315.525 387.847 315.615C387.637 315.695 387.477 315.81 387.367 315.96C387.267 316.11 387.217 316.295 387.217 316.515ZM386.707 313.56L386.047 312.42C386.357 312.23 386.757 312.045 387.247 311.865C387.747 311.685 388.317 311.595 388.957 311.595C389.527 311.595 390.027 311.68 390.457 311.85C390.897 312.02 391.242 312.265 391.492 312.585C391.742 312.895 391.867 313.28 391.867 313.74V318.66H390.277V314.055C390.277 313.835 390.237 313.655 390.157 313.515C390.087 313.375 389.987 313.26 389.857 313.17C389.727 313.08 389.572 313.015 389.392 312.975C389.212 312.935 389.017 312.915 388.807 312.915C388.487 312.915 388.182 312.955 387.892 313.035C387.612 313.105 387.367 313.195 387.157 313.305C386.957 313.405 386.807 313.49 386.707 313.56ZM395.331 321.96H393.696V311.76H395.331V321.96ZM401.046 315.21C401.046 315.97 400.891 316.625 400.581 317.175C400.271 317.715 399.861 318.13 399.351 318.42C398.841 318.7 398.286 318.84 397.686 318.84C397.096 318.84 396.581 318.695 396.141 318.405C395.711 318.105 395.376 317.685 395.136 317.145C394.906 316.595 394.791 315.95 394.791 315.21C394.791 314.46 394.906 313.815 395.136 313.275C395.376 312.735 395.711 312.32 396.141 312.03C396.581 311.73 397.096 311.58 397.686 311.58C398.286 311.58 398.841 311.725 399.351 312.015C399.861 312.295 400.271 312.705 400.581 313.245C400.891 313.785 401.046 314.44 401.046 315.21ZM399.366 315.21C399.366 314.75 399.271 314.36 399.081 314.04C398.891 313.71 398.636 313.465 398.316 313.305C398.006 313.135 397.661 313.05 397.281 313.05C396.971 313.05 396.666 313.135 396.366 313.305C396.066 313.465 395.816 313.705 395.616 314.025C395.426 314.345 395.331 314.74 395.331 315.21C395.331 315.68 395.426 316.075 395.616 316.395C395.816 316.715 396.066 316.96 396.366 317.13C396.666 317.29 396.971 317.37 397.281 317.37C397.661 317.37 398.006 317.29 398.316 317.13C398.636 316.96 398.891 316.715 399.081 316.395C399.271 316.065 399.366 315.67 399.366 315.21ZM404.164 321.96H402.529V311.76H404.164V321.96ZM409.879 315.21C409.879 315.97 409.724 316.625 409.414 317.175C409.104 317.715 408.694 318.13 408.184 318.42C407.674 318.7 407.119 318.84 406.519 318.84C405.929 318.84 405.414 318.695 404.974 318.405C404.544 318.105 404.209 317.685 403.969 317.145C403.739 316.595 403.624 315.95 403.624 315.21C403.624 314.46 403.739 313.815 403.969 313.275C404.209 312.735 404.544 312.32 404.974 312.03C405.414 311.73 405.929 311.58 406.519 311.58C407.119 311.58 407.674 311.725 408.184 312.015C408.694 312.295 409.104 312.705 409.414 313.245C409.724 313.785 409.879 314.44 409.879 315.21ZM408.199 315.21C408.199 314.75 408.104 314.36 407.914 314.04C407.724 313.71 407.469 313.465 407.149 313.305C406.839 313.135 406.494 313.05 406.114 313.05C405.804 313.05 405.499 313.135 405.199 313.305C404.899 313.465 404.649 313.705 404.449 314.025C404.259 314.345 404.164 314.74 404.164 315.21C404.164 315.68 404.259 316.075 404.449 316.395C404.649 316.715 404.899 316.96 405.199 317.13C405.499 317.29 405.804 317.37 406.114 317.37C406.494 317.37 406.839 317.29 407.149 317.13C407.469 316.96 407.724 316.715 407.914 316.395C408.104 316.065 408.199 315.67 408.199 315.21ZM417.307 311.76L412.807 321.96H411.082L412.882 317.85L410.107 311.76H411.967L414.172 317.22L413.407 317.175L415.567 311.76H417.307ZM424.214 313.41C424.214 314.15 424.379 314.8 424.709 315.36C425.049 315.92 425.489 316.355 426.029 316.665C426.579 316.965 427.174 317.115 427.814 317.115C428.314 317.115 428.764 317.05 429.164 316.92C429.564 316.79 429.924 316.615 430.244 316.395C430.574 316.165 430.859 315.91 431.099 315.63V317.73C430.659 318.09 430.184 318.365 429.674 318.555C429.164 318.745 428.524 318.84 427.754 318.84C426.984 318.84 426.264 318.71 425.594 318.45C424.934 318.19 424.359 317.815 423.869 317.325C423.379 316.835 422.994 316.26 422.714 315.6C422.444 314.93 422.309 314.2 422.309 313.41C422.309 312.62 422.444 311.895 422.714 311.235C422.994 310.565 423.379 309.985 423.869 309.495C424.359 309.005 424.934 308.63 425.594 308.37C426.264 308.11 426.984 307.98 427.754 307.98C428.524 307.98 429.164 308.075 429.674 308.265C430.184 308.455 430.659 308.73 431.099 309.09V311.19C430.859 310.91 430.574 310.66 430.244 310.44C429.924 310.21 429.564 310.03 429.164 309.9C428.764 309.77 428.314 309.705 427.814 309.705C427.174 309.705 426.579 309.86 426.029 310.17C425.489 310.47 425.049 310.9 424.709 311.46C424.379 312.01 424.214 312.66 424.214 313.41ZM434.81 315.96C434.81 316.45 434.915 316.83 435.125 317.1C435.335 317.37 435.655 317.505 436.085 317.505C436.395 317.505 436.665 317.445 436.895 317.325C437.125 317.195 437.305 317.015 437.435 316.785C437.565 316.545 437.63 316.27 437.63 315.96V311.76H439.25V318.66H437.63V317.595C437.41 317.995 437.125 318.3 436.775 318.51C436.435 318.71 436.025 318.81 435.545 318.81C434.775 318.81 434.18 318.57 433.76 318.09C433.35 317.61 433.145 316.96 433.145 316.14V311.76H434.81V315.96ZM441.634 316.395C441.854 316.635 442.074 316.845 442.294 317.025C442.524 317.195 442.754 317.325 442.984 317.415C443.214 317.495 443.444 317.535 443.674 317.535C443.964 317.535 444.189 317.47 444.349 317.34C444.519 317.21 444.604 317.03 444.604 316.8C444.604 316.6 444.539 316.43 444.409 316.29C444.279 316.14 444.099 316.015 443.869 315.915C443.639 315.805 443.369 315.695 443.059 315.585C442.749 315.465 442.439 315.325 442.129 315.165C441.829 314.995 441.579 314.775 441.379 314.505C441.189 314.235 441.094 313.895 441.094 313.485C441.094 313.065 441.199 312.715 441.409 312.435C441.629 312.155 441.919 311.95 442.279 311.82C442.649 311.68 443.044 311.61 443.464 311.61C443.844 311.61 444.199 311.665 444.529 311.775C444.869 311.885 445.174 312.03 445.444 312.21C445.714 312.39 445.944 312.595 446.134 312.825L445.234 313.785C445.004 313.515 444.729 313.295 444.409 313.125C444.089 312.955 443.759 312.87 443.419 312.87C443.189 312.87 442.999 312.92 442.849 313.02C442.699 313.12 442.624 313.265 442.624 313.455C442.624 313.615 442.689 313.76 442.819 313.89C442.959 314.01 443.139 314.12 443.359 314.22C443.589 314.32 443.844 314.425 444.124 314.535C444.504 314.685 444.854 314.85 445.174 315.03C445.494 315.21 445.749 315.43 445.939 315.69C446.139 315.95 446.239 316.29 446.239 316.71C446.239 317.36 446.014 317.885 445.564 318.285C445.124 318.675 444.524 318.87 443.764 318.87C443.294 318.87 442.859 318.8 442.459 318.66C442.069 318.51 441.724 318.32 441.424 318.09C441.134 317.85 440.889 317.6 440.689 317.34L441.634 316.395ZM446.717 311.76H450.632V313.185H446.717V311.76ZM447.872 309.36H449.477V318.66H447.872V309.36ZM451.224 315.21C451.224 314.5 451.384 313.875 451.704 313.335C452.034 312.795 452.479 312.375 453.039 312.075C453.599 311.765 454.234 311.61 454.944 311.61C455.654 311.61 456.284 311.765 456.834 312.075C457.394 312.375 457.839 312.795 458.169 313.335C458.499 313.875 458.664 314.5 458.664 315.21C458.664 315.91 458.499 316.535 458.169 317.085C457.839 317.625 457.394 318.05 456.834 318.36C456.284 318.66 455.654 318.81 454.944 318.81C454.234 318.81 453.599 318.66 453.039 318.36C452.479 318.05 452.034 317.625 451.704 317.085C451.384 316.535 451.224 315.91 451.224 315.21ZM452.889 315.21C452.889 315.64 452.979 316.02 453.159 316.35C453.339 316.67 453.584 316.925 453.894 317.115C454.204 317.295 454.554 317.385 454.944 317.385C455.324 317.385 455.669 317.295 455.979 317.115C456.299 316.925 456.549 316.67 456.729 316.35C456.909 316.02 456.999 315.64 456.999 315.21C456.999 314.78 456.909 314.4 456.729 314.07C456.549 313.74 456.299 313.485 455.979 313.305C455.669 313.125 455.324 313.035 454.944 313.035C454.554 313.035 454.204 313.125 453.894 313.305C453.584 313.485 453.339 313.74 453.159 314.07C452.979 314.4 452.889 314.78 452.889 315.21ZM470.071 314.28V318.66H468.451V314.46C468.451 313.94 468.356 313.555 468.166 313.305C467.986 313.045 467.696 312.915 467.296 312.915C467.026 312.915 466.786 312.975 466.576 313.095C466.376 313.215 466.216 313.39 466.096 313.62C465.986 313.85 465.931 314.13 465.931 314.46V318.66H464.311V314.46C464.311 313.94 464.216 313.555 464.026 313.305C463.846 313.045 463.556 312.915 463.156 312.915C462.876 312.915 462.631 312.975 462.421 313.095C462.221 313.215 462.066 313.39 461.956 313.62C461.846 313.85 461.791 314.13 461.791 314.46V318.66H460.201V311.76H461.791V312.765C461.991 312.385 462.251 312.1 462.571 311.91C462.901 311.71 463.286 311.61 463.726 311.61C464.236 311.61 464.656 311.715 464.986 311.925C465.326 312.135 465.571 312.44 465.721 312.84C465.961 312.44 466.261 312.135 466.621 311.925C466.991 311.715 467.411 311.61 467.881 311.61C468.371 311.61 468.776 311.715 469.096 311.925C469.426 312.125 469.671 312.425 469.831 312.825C469.991 313.225 470.071 313.71 470.071 314.28ZM475.139 318.81C474.439 318.81 473.819 318.66 473.279 318.36C472.749 318.06 472.339 317.64 472.049 317.1C471.759 316.56 471.614 315.93 471.614 315.21C471.614 314.48 471.759 313.845 472.049 313.305C472.349 312.765 472.769 312.35 473.309 312.06C473.849 311.76 474.484 311.61 475.214 311.61C475.944 311.61 476.564 311.75 477.074 312.03C477.584 312.31 477.974 312.715 478.244 313.245C478.524 313.765 478.664 314.395 478.664 315.135C478.664 315.215 478.659 315.3 478.649 315.39C478.649 315.48 478.644 315.545 478.634 315.585H472.574V314.475H477.254L476.759 315.165C476.789 315.105 476.819 315.025 476.849 314.925C476.889 314.815 476.909 314.725 476.909 314.655C476.909 314.285 476.834 313.965 476.684 313.695C476.544 313.425 476.344 313.215 476.084 313.065C475.834 312.915 475.539 312.84 475.199 312.84C474.789 312.84 474.439 312.93 474.149 313.11C473.859 313.29 473.639 313.55 473.489 313.89C473.339 314.23 473.259 314.65 473.249 315.15C473.249 315.65 473.324 316.075 473.474 316.425C473.624 316.765 473.844 317.025 474.134 317.205C474.434 317.385 474.794 317.475 475.214 317.475C475.654 317.475 476.039 317.385 476.369 317.205C476.699 317.025 476.974 316.75 477.194 316.38L478.589 316.95C478.229 317.57 477.764 318.035 477.194 318.345C476.624 318.655 475.939 318.81 475.139 318.81ZM481.816 311.76V318.66H480.211V311.76H481.816ZM483.871 313.485C483.721 313.365 483.581 313.275 483.451 313.215C483.321 313.155 483.156 313.125 482.956 313.125C482.686 313.125 482.466 313.195 482.296 313.335C482.126 313.475 482.001 313.67 481.921 313.92C481.851 314.16 481.816 314.445 481.816 314.775L481.276 314.46C481.276 313.91 481.376 313.425 481.576 313.005C481.786 312.575 482.051 312.235 482.371 311.985C482.701 311.735 483.041 311.61 483.391 311.61C483.641 311.61 483.876 311.65 484.096 311.73C484.316 311.8 484.501 311.93 484.651 312.12L483.871 313.485ZM486.078 316.395C486.298 316.635 486.518 316.845 486.738 317.025C486.968 317.195 487.198 317.325 487.428 317.415C487.658 317.495 487.888 317.535 488.118 317.535C488.408 317.535 488.633 317.47 488.793 317.34C488.963 317.21 489.048 317.03 489.048 316.8C489.048 316.6 488.983 316.43 488.853 316.29C488.723 316.14 488.543 316.015 488.313 315.915C488.083 315.805 487.813 315.695 487.503 315.585C487.193 315.465 486.883 315.325 486.573 315.165C486.273 314.995 486.023 314.775 485.823 314.505C485.633 314.235 485.538 313.895 485.538 313.485C485.538 313.065 485.643 312.715 485.853 312.435C486.073 312.155 486.363 311.95 486.723 311.82C487.093 311.68 487.488 311.61 487.908 311.61C488.288 311.61 488.643 311.665 488.973 311.775C489.313 311.885 489.618 312.03 489.888 312.21C490.158 312.39 490.388 312.595 490.578 312.825L489.678 313.785C489.448 313.515 489.173 313.295 488.853 313.125C488.533 312.955 488.203 312.87 487.863 312.87C487.633 312.87 487.443 312.92 487.293 313.02C487.143 313.12 487.068 313.265 487.068 313.455C487.068 313.615 487.133 313.76 487.263 313.89C487.403 314.01 487.583 314.12 487.803 314.22C488.033 314.32 488.288 314.425 488.568 314.535C488.948 314.685 489.298 314.85 489.618 315.03C489.938 315.21 490.193 315.43 490.383 315.69C490.583 315.95 490.683 316.29 490.683 316.71C490.683 317.36 490.458 317.885 490.008 318.285C489.568 318.675 488.968 318.87 488.208 318.87C487.738 318.87 487.303 318.8 486.903 318.66C486.513 318.51 486.168 318.32 485.868 318.09C485.578 317.85 485.333 317.6 485.133 317.34L486.078 316.395Z" fill="#008AFF"/>
</svg>
