<svg width="37" height="53" viewBox="0 0 37 53" fill="none" xmlns="http://www.w3.org/2000/svg">
<path d="M28.25 15C28.625 15 29 15.375 29 15.75V17.25C29 17.6719 28.625 18 28.25 18H8.75C8.32812 18 8 17.6719 8 17.25V15.75C8 15.375 8.32812 15 8.75 15H14.375L14.7969 14.1562C14.9844 13.7812 15.3594 13.5 15.7812 13.5H21.1719C21.5938 13.5 21.9688 13.7812 22.1562 14.1562L22.625 15H28.25ZM10.4844 35.3906L9.5 19.5H27.5L26.4688 35.3906C26.4219 36.6094 25.4375 37.5 24.2188 37.5H12.7344C11.5156 37.5 10.5312 36.6094 10.4844 35.3906Z" fill="#022F5D"/>
</svg>
