<svg width="70" height="71" viewBox="0 0 70 71" fill="none" xmlns="http://www.w3.org/2000/svg">
<rect y="0.5" width="70" height="70" rx="35" fill="#6363F5" fill-opacity="0.1"/>
<path d="M38.6 35.3438L39.8031 37.75H45.764L35.7562 47.9766C35.3734 48.3594 34.7719 48.3594 34.389 47.9766L24.3812 37.75H29.5219L31.1625 33.8672L34.2797 40.7578C34.6078 41.4141 35.5375 41.4688 35.8656 40.8125L38.6 35.3438ZM46.9672 26.0469C49.6469 28.7812 49.7562 33.1016 47.4047 36H40.8969L39.3656 32.9922C39.0375 32.3359 38.1078 32.3359 37.7797 32.9922L35.1 38.3516L31.9281 31.2969C31.6 30.5859 30.6156 30.5859 30.3422 31.2969L28.3734 36H22.7953C20.389 33.1016 20.4984 28.7812 23.1781 26.0469L23.2875 25.9375C26.1312 23.0391 30.725 23.0391 33.5687 25.9375L35.1 27.4688L36.5765 25.9375C39.4203 23.0391 44.014 23.0391 46.8578 25.9375L46.9672 26.0469Z" fill="#6363F5"/>
</svg>
