<svg width="70" height="71" viewBox="0 0 70 71" fill="none" xmlns="http://www.w3.org/2000/svg">
<rect y="0.5" width="70" height="70" rx="35" fill="#009868" fill-opacity="0.1"/>
<path d="M35.0453 28.125C34.0609 28.125 33.0765 28.3438 32.2015 28.6719C31.4906 28.125 30.889 27.3594 30.5609 26.4297C31.9828 25.8281 33.4594 25.5 35.1 25.5C36.6859 25.5 38.2172 25.8281 39.5844 26.4297C39.2562 27.3594 38.7094 28.125 37.9437 28.6719C37.0687 28.3438 36.0844 28.125 35.0453 28.125ZM28.264 46.0078C25.6937 44.0938 23.9437 41.0312 23.725 37.6406C24.1078 37.5312 24.5453 37.4766 24.9281 37.4766C25.475 37.4766 25.9125 37.5312 26.4047 37.6953C26.6234 40.1016 27.8265 42.2344 29.6312 43.7109C29.4125 44.5859 28.9203 45.3516 28.264 46.0078ZM40.514 43.7109C42.3187 42.2344 43.5219 40.1016 43.7406 37.6953C44.2328 37.5312 44.6703 37.4766 45.2172 37.4766C45.6 37.4766 46.0375 37.5312 46.4203 37.6406C46.2015 41.0312 44.4515 44.0938 41.8812 46.0078C41.225 45.3516 40.7328 44.5859 40.514 43.7109ZM46.7484 32.5C48.6078 33.5938 50.0844 35.3984 50.7953 37.5312C50.85 37.75 50.7953 37.9688 50.5765 38.0781C50.4125 38.1875 50.1937 38.1328 50.0297 37.9688C49.5375 37.3672 48.9906 36.9297 48.4437 36.6016C45.3265 34.7422 41.2797 35.8359 39.475 39.0625C37.6703 42.2891 38.764 46.3906 41.8812 48.25C42.4281 48.5781 43.0844 48.7969 43.85 48.9609C44.0687 49.0156 44.1781 49.2344 44.1781 49.3984C44.1781 49.6172 44.0687 49.8359 43.85 49.8359C41.6625 50.2734 39.4203 49.8906 37.5609 48.7969C36.5765 48.1953 35.7562 47.4297 35.0453 46.6094C34.389 47.4297 33.5687 48.1953 32.5844 48.7969C30.725 49.8906 28.4828 50.2734 26.2953 49.8359C26.0765 49.8359 25.9672 49.6172 25.9125 49.3984C25.9125 49.2344 26.0765 49.0156 26.2953 48.9609C27.0609 48.7969 27.6625 48.5781 28.264 48.25C31.3812 46.3906 32.475 42.2891 30.6703 39.0625C28.8109 35.8359 24.8187 34.7422 21.7015 36.6016C21.1 36.9297 20.6078 37.3672 20.0609 37.9688C19.9515 38.1328 19.7328 38.1875 19.514 38.0781C19.35 37.9688 19.2953 37.75 19.35 37.5312C20.0609 35.3984 21.5375 33.5938 23.3969 32.5C24.3812 31.8984 25.4203 31.5703 26.4594 31.4062C26.0765 30.4219 25.9125 29.3828 25.9125 28.2891C25.9125 26.0469 26.6781 23.9141 28.1547 22.1641C28.264 22 28.4828 22 28.7015 22.0547C28.8656 22.1641 28.9203 22.3828 28.8656 22.6016C28.6469 23.3672 28.5375 24.0781 28.5375 24.7344C28.5375 28.3984 31.4359 31.4609 35.1 31.4609C38.7094 31.4609 41.6625 28.3984 41.6625 24.7344C41.6625 24.0234 41.4984 23.3672 41.2797 22.6016C41.225 22.3828 41.2797 22.1641 41.4984 22.0547C41.6625 22 41.8812 22 42.0453 22.1641C43.4672 23.9141 44.2875 26.0469 44.2875 28.2891C44.2875 29.3828 44.0687 30.4219 43.7406 31.4062C44.7797 31.5703 45.764 31.8984 46.7484 32.5ZM35.0453 39.5547C36.5219 39.5547 37.6703 38.3516 37.6703 36.9297C37.6703 35.4531 36.5219 34.3047 35.0453 34.3047C33.6234 34.3047 32.4203 35.4531 32.4203 36.9297C32.4203 38.3516 33.6234 39.5547 35.0453 39.5547Z" fill="#009868"/>
</svg>
