<svg width="70" height="71" viewBox="0 0 70 71" fill="none" xmlns="http://www.w3.org/2000/svg">
<rect y="0.5" width="70" height="70" rx="35" fill="#008AFF" fill-opacity="0.1"/>
<path d="M30.725 43C31.1625 43 31.6 43.4375 31.6 43.875C31.6 44.3672 31.1625 44.75 30.725 44.75C30.2328 44.75 29.85 44.3672 29.85 43.875C29.85 43.4375 30.2328 43 30.725 43ZM39.475 44.75C38.9828 44.75 38.6 44.3672 38.6 43.875C38.6 43.4375 38.9828 43 39.475 43C39.9125 43 40.35 43.4375 40.35 43.875C40.35 44.3672 39.9125 44.75 39.475 44.75ZM51.725 22C52.1625 22 52.6 22.4375 52.6 22.875V24.625C52.6 25.1172 52.1625 25.5 51.725 25.5H18.475C17.9828 25.5 17.6 25.1172 17.6 24.625V22.875C17.6 22.4375 17.9828 22 18.475 22H51.725ZM51.725 46.5C52.1625 46.5 52.6 46.9375 52.6 47.375V49.125C52.6 49.6172 52.1625 50 51.725 50H18.475C17.9828 50 17.6 49.6172 17.6 49.125V47.375C17.6 46.9375 17.9828 46.5 18.475 46.5H21.1V27.25H49.1V46.5H51.725ZM43.85 35.5625V34.6875C43.85 34.4688 43.6312 34.25 43.4125 34.25H35.975V32.5H41.6625C41.8812 32.5 42.1 32.3359 42.1 32.0625V31.1875C42.1 30.9688 41.8812 30.75 41.6625 30.75H35.975V29.4375C35.975 29.2188 35.7562 29 35.5375 29H34.6625C34.389 29 34.225 29.2188 34.225 29.4375V30.75H28.5375C28.264 30.75 28.1 30.9688 28.1 31.1875V32.0625C28.1 32.3359 28.264 32.5 28.5375 32.5H34.225V34.25H26.7875C26.514 34.25 26.35 34.4688 26.35 34.6875V35.5625C26.35 35.8359 26.514 36 26.7875 36H34.225V37.75H28.5375C28.264 37.75 28.1 37.9688 28.1 38.1875V39.0625C28.1 39.3359 28.264 39.5 28.5375 39.5H34.225V41.25H30.725C29.2484 41.25 28.1 42.4531 28.1 43.875C28.1 45.3516 29.2484 46.5 30.725 46.5C32.1469 46.5 33.35 45.3516 33.35 43.875V43H36.85V43.875C36.85 45.3516 37.9984 46.5 39.475 46.5C40.8969 46.5 42.1 45.3516 42.1 43.875C42.1 42.4531 40.8969 41.25 39.475 41.25H35.975V39.5H41.6625C41.8812 39.5 42.1 39.3359 42.1 39.0625V38.1875C42.1 37.9688 41.8812 37.75 41.6625 37.75H35.975V36H43.4125C43.6312 36 43.85 35.8359 43.85 35.5625Z" fill="#008AFF"/>
</svg>
