<svg width="70" height="71" viewBox="0 0 70 71" fill="none" xmlns="http://www.w3.org/2000/svg">
<rect y="0.5" width="70" height="70" rx="35" fill="#F69520" fill-opacity="0.1"/>
<path d="M48.3984 25.3359L42.9844 30.75H34.7266L45.8281 22.4375C46.1562 22.1641 46.5938 22.0547 47.0312 22.0547C47.3594 22.0547 47.6328 22.1094 47.9062 22.2188C49.1094 22.8203 49.3281 24.4062 48.3984 25.3359ZM48.125 32.5C48.5625 32.5 49 32.9375 49 33.375V35.125C49 35.6172 48.5625 36 48.125 36H47.25C47.25 40.4297 44.4609 44.2578 40.5781 45.7891C41.2891 46.7188 41.7812 47.8125 41.9453 49.0156C42.0547 49.5078 41.6172 50 41.0703 50H28.875C28.3281 50 27.8906 49.5078 28 49.0156C28.1641 47.8125 28.6562 46.7188 29.3672 45.7891C25.4844 44.2578 22.75 40.4297 22.75 36H21.875C21.3828 36 21 35.6172 21 35.125V33.375C21 32.9375 21.3828 32.5 21.875 32.5H48.125Z" fill="#F69520"/>
</svg>
