<svg width="123" height="31" viewBox="0 0 123 31" fill="none" xmlns="http://www.w3.org/2000/svg">
<path d="M22.3956 15.0947C22.3956 18.7275 19.7296 21.7451 16.2433 22.2725V17.2041H17.9425L18.2648 15.0947H16.2433V13.7471C16.2433 13.1611 16.5363 12.6045 17.4445 12.6045H18.3527V10.8174C18.3527 10.8174 17.5323 10.6709 16.712 10.6709C15.0714 10.6709 13.9874 11.6963 13.9874 13.5127V15.0947H12.1417V17.2041H13.9874V22.2725C10.5011 21.7451 7.86438 18.7275 7.86438 15.0947C7.86438 11.0811 11.1163 7.8291 15.13 7.8291C19.1437 7.8291 22.3956 11.0811 22.3956 15.0947Z" fill="#022F5D"/>
<rect x="0.630005" y="0.719727" width="29" height="29" rx="14.5" stroke="#ECF1F6"/>
<path d="M57.4897 20.7197H54.7651V11.96H57.4897V20.7197ZM56.1128 10.7881C55.2632 10.7881 54.5601 10.0557 54.5601 9.17676C54.5601 8.32715 55.2632 7.62402 56.1128 7.62402C56.9917 7.62402 57.6948 8.32715 57.6948 9.17676C57.6948 10.0557 56.9917 10.7881 56.1128 10.7881ZM67.6558 20.7197H64.9604V16.4717C64.9604 15.4463 64.9312 14.1572 63.5249 14.1572C62.1187 14.1572 61.9136 15.2412 61.9136 16.3838V20.7197H59.189V11.96H61.7964V13.1611H61.8257C62.2065 12.4873 63.0854 11.7549 64.4038 11.7549C67.1577 11.7549 67.6851 13.5713 67.6851 15.915V20.7197H67.6558Z" fill="#022F5D"/>
<rect x="46.63" y="0.719727" width="29" height="29" rx="14.5" stroke="#ECF1F6"/>
<path d="M107.123 11.7256C108.968 11.7256 110.492 13.249 110.492 15.0947C110.492 16.9697 108.968 18.4639 107.123 18.4639C105.248 18.4639 103.753 16.9697 103.753 15.0947C103.753 13.249 105.248 11.7256 107.123 11.7256ZM107.123 17.292C108.324 17.292 109.291 16.3252 109.291 15.0947C109.291 13.8936 108.324 12.9268 107.123 12.9268C105.892 12.9268 104.925 13.8936 104.925 15.0947C104.925 16.3252 105.921 17.292 107.123 17.292ZM111.4 11.6084C111.4 12.0479 111.048 12.3994 110.609 12.3994C110.169 12.3994 109.818 12.0479 109.818 11.6084C109.818 11.1689 110.169 10.8174 110.609 10.8174C111.048 10.8174 111.4 11.1689 111.4 11.6084ZM113.626 12.3994C113.685 13.4834 113.685 16.7354 113.626 17.8193C113.568 18.874 113.333 19.7822 112.572 20.5732C111.81 21.335 110.873 21.5693 109.818 21.6279C108.734 21.6865 105.482 21.6865 104.398 21.6279C103.343 21.5693 102.435 21.335 101.644 20.5732C100.882 19.7822 100.648 18.874 100.589 17.8193C100.531 16.7354 100.531 13.4834 100.589 12.3994C100.648 11.3447 100.882 10.4072 101.644 9.64551C102.435 8.88379 103.343 8.64941 104.398 8.59082C105.482 8.53223 108.734 8.53223 109.818 8.59082C110.873 8.64941 111.81 8.88379 112.572 9.64551C113.333 10.4072 113.568 11.3447 113.626 12.3994ZM112.22 18.9619C112.572 18.1123 112.484 16.0615 112.484 15.0947C112.484 14.1572 112.572 12.1064 112.22 11.2275C111.986 10.6709 111.546 10.2021 110.99 9.99707C110.111 9.64551 108.06 9.7334 107.123 9.7334C106.156 9.7334 104.105 9.64551 103.255 9.99707C102.669 10.2314 102.23 10.6709 101.996 11.2275C101.644 12.1064 101.732 14.1572 101.732 15.0947C101.732 16.0615 101.644 18.1123 101.996 18.9619C102.23 19.5479 102.669 19.9873 103.255 20.2217C104.105 20.5732 106.156 20.4854 107.123 20.4854C108.06 20.4854 110.111 20.5732 110.99 20.2217C111.546 19.9873 112.015 19.5479 112.22 18.9619Z" fill="#022F5D"/>
<rect x="92.63" y="0.719727" width="29" height="29" rx="14.5" stroke="#ECF1F6"/>
</svg>
