<svg width="41" height="41" viewBox="0 0 41 41" fill="none" xmlns="http://www.w3.org/2000/svg">
<rect x="0.543945" y="0.875977" width="40" height="40" rx="6" fill="#0A5F59" fill-opacity="0.1"/>
<path d="M28.4877 20.876C28.4877 24.751 25.6439 27.9697 21.9252 28.5322V23.126H23.7377L24.0814 20.876H21.9252V19.4385C21.9252 18.8135 22.2377 18.2197 23.2064 18.2197H24.1752V16.3135C24.1752 16.3135 23.3002 16.1572 22.4252 16.1572C20.6752 16.1572 19.5189 17.251 19.5189 19.1885V20.876H17.5502V23.126H19.5189V28.5322C15.8002 27.9697 12.9877 24.751 12.9877 20.876C12.9877 16.5947 16.4564 13.126 20.7377 13.126C25.0189 13.126 28.4877 16.5947 28.4877 20.876Z" fill="#0A5F59"/>
</svg>
