<svg width="147" height="57" viewBox="0 0 147 57" fill="none" xmlns="http://www.w3.org/2000/svg">
<rect x="0.5" y="1" width="145.36" height="55" rx="5.9" fill="#008AFF"/>
<path d="M27.7305 29.244V27.644H33.1225C33.1438 28.4653 33.0371 29.244 32.8025 29.98C32.5678 30.7053 32.2158 31.3507 31.7465 31.916C31.2771 32.4813 30.6905 32.9293 29.9865 33.26C29.2931 33.58 28.5038 33.74 27.6185 33.74C26.7758 33.74 25.9971 33.6013 25.2825 33.324C24.5678 33.036 23.9438 32.6307 23.4105 32.108C22.8878 31.5853 22.4825 30.9667 22.1945 30.252C21.9065 29.5373 21.7625 28.7533 21.7625 27.9C21.7625 27.0467 21.9065 26.268 22.1945 25.564C22.4931 24.8493 22.9038 24.236 23.4265 23.724C23.9598 23.2013 24.5838 22.8013 25.2985 22.524C26.0238 22.2467 26.8078 22.108 27.6505 22.108C28.3865 22.108 29.0531 22.2093 29.6505 22.412C30.2478 22.604 30.7811 22.8867 31.2505 23.26C31.7305 23.6227 32.1358 24.0653 32.4665 24.588L30.9305 25.612C30.6211 25.0787 30.1891 24.652 29.6345 24.332C29.0905 24.012 28.4291 23.852 27.6505 23.852C26.9251 23.852 26.2691 24.0227 25.6825 24.364C25.0958 24.6947 24.6265 25.164 24.2745 25.772C23.9225 26.3693 23.7465 27.0787 23.7465 27.9C23.7465 28.7107 23.9171 29.4253 24.2585 30.044C24.6105 30.652 25.0798 31.1267 25.6665 31.468C26.2531 31.8093 26.9145 31.98 27.6505 31.98C28.1518 31.98 28.5998 31.9107 28.9945 31.772C29.3891 31.6333 29.7305 31.436 30.0185 31.18C30.3065 30.924 30.5465 30.6307 30.7385 30.3C30.9305 29.9693 31.0745 29.6173 31.1705 29.244H27.7305ZM38.1147 33.66C37.3681 33.66 36.7067 33.5 36.1307 33.18C35.5654 32.86 35.1281 32.412 34.8187 31.836C34.5094 31.26 34.3547 30.588 34.3547 29.82C34.3547 29.0413 34.5094 28.364 34.8187 27.788C35.1387 27.212 35.5867 26.7693 36.1627 26.46C36.7387 26.14 37.4161 25.98 38.1947 25.98C38.9734 25.98 39.6347 26.1293 40.1787 26.428C40.7227 26.7267 41.1387 27.1587 41.4267 27.724C41.7254 28.2787 41.8747 28.9507 41.8747 29.74C41.8747 29.8253 41.8694 29.916 41.8587 30.012C41.8587 30.108 41.8534 30.1773 41.8427 30.22H35.3787V29.036H40.3707L39.8427 29.772C39.8747 29.708 39.9067 29.6227 39.9387 29.516C39.9814 29.3987 40.0027 29.3027 40.0027 29.228C40.0027 28.8333 39.9227 28.492 39.7627 28.204C39.6134 27.916 39.4001 27.692 39.1227 27.532C38.8561 27.372 38.5414 27.292 38.1787 27.292C37.7414 27.292 37.3681 27.388 37.0587 27.58C36.7494 27.772 36.5147 28.0493 36.3547 28.412C36.1947 28.7747 36.1094 29.2227 36.0987 29.756C36.0987 30.2893 36.1787 30.7427 36.3387 31.116C36.4987 31.4787 36.7334 31.756 37.0427 31.948C37.3627 32.14 37.7467 32.236 38.1947 32.236C38.6641 32.236 39.0747 32.14 39.4267 31.948C39.7787 31.756 40.0721 31.4627 40.3067 31.068L41.7947 31.676C41.4107 32.3373 40.9147 32.8333 40.3067 33.164C39.6987 33.4947 38.9681 33.66 38.1147 33.66ZM42.5001 26.14H46.6761V27.66H42.5001V26.14ZM43.7321 23.58H45.4441V33.5H43.7321V23.58ZM53.5447 29.9C53.7901 30.3267 54.0514 30.7053 54.3287 31.036C54.6167 31.356 54.9314 31.6067 55.2727 31.788C55.6141 31.9587 55.9981 32.044 56.4247 32.044C56.9367 32.044 57.3527 31.9053 57.6727 31.628C57.9927 31.3507 58.1527 30.9933 58.1527 30.556C58.1527 30.14 58.0514 29.8093 57.8487 29.564C57.6461 29.308 57.3634 29.0947 57.0007 28.924C56.6487 28.7427 56.2381 28.5667 55.7687 28.396C55.4914 28.3 55.1821 28.172 54.8407 28.012C54.4994 27.8413 54.1741 27.6333 53.8647 27.388C53.5554 27.132 53.2994 26.8227 53.0967 26.46C52.8941 26.0867 52.7927 25.6387 52.7927 25.116C52.7927 24.5187 52.9474 23.996 53.2567 23.548C53.5661 23.0893 53.9821 22.7373 54.5047 22.492C55.0381 22.236 55.6407 22.108 56.3127 22.108C56.9741 22.108 57.5501 22.2253 58.0407 22.46C58.5314 22.6947 58.9421 22.9933 59.2727 23.356C59.6141 23.7187 59.8807 24.0973 60.0727 24.492L58.5367 25.356C58.3981 25.0787 58.2221 24.8227 58.0087 24.588C57.7954 24.3427 57.5447 24.1507 57.2567 24.012C56.9794 23.8627 56.6541 23.788 56.2807 23.788C55.7581 23.788 55.3741 23.9107 55.1287 24.156C54.8834 24.3907 54.7607 24.668 54.7607 24.988C54.7607 25.276 54.8461 25.5373 55.0167 25.772C55.1981 25.996 55.4754 26.2093 55.8487 26.412C56.2221 26.6147 56.7074 26.8227 57.3047 27.036C57.6354 27.1533 57.9661 27.3027 58.2967 27.484C58.6381 27.6653 58.9474 27.8947 59.2247 28.172C59.5021 28.4387 59.7207 28.7533 59.8807 29.116C60.0514 29.4787 60.1367 29.9053 60.1367 30.396C60.1367 30.9187 60.0354 31.388 59.8327 31.804C59.6301 32.22 59.3527 32.572 59.0007 32.86C58.6487 33.1373 58.2487 33.3507 57.8007 33.5C57.3634 33.66 56.9047 33.74 56.4247 33.74C55.7634 33.74 55.1501 33.612 54.5847 33.356C54.0301 33.0893 53.5447 32.7373 53.1287 32.3C52.7127 31.8627 52.3821 31.388 52.1367 30.876L53.5447 29.9ZM60.9064 26.14H65.0824V27.66H60.9064V26.14ZM62.1384 23.58H63.8504V33.5H62.1384V23.58ZM67.3621 31.212C67.3621 31.4573 67.4208 31.6707 67.5381 31.852C67.6554 32.0227 67.8154 32.1507 68.0181 32.236C68.2314 32.3213 68.4714 32.364 68.7381 32.364C69.0794 32.364 69.3888 32.2947 69.6661 32.156C69.9541 32.0173 70.1834 31.8147 70.3541 31.548C70.5354 31.2707 70.6261 30.9507 70.6261 30.588L70.8821 31.548C70.8821 32.0173 70.7434 32.412 70.4661 32.732C70.1994 33.0413 69.8581 33.276 69.4421 33.436C69.0368 33.5853 68.6208 33.66 68.1941 33.66C67.7354 33.66 67.3088 33.5693 66.9141 33.388C66.5194 33.2067 66.2048 32.94 65.9701 32.588C65.7354 32.236 65.6181 31.8093 65.6181 31.308C65.6181 30.5933 65.8688 30.028 66.3701 29.612C66.8714 29.1853 67.5808 28.972 68.4981 28.972C68.9888 28.972 69.4101 29.0253 69.7621 29.132C70.1248 29.2387 70.4234 29.3667 70.6581 29.516C70.8928 29.6547 71.0581 29.7827 71.1541 29.9V30.78C70.8234 30.5453 70.4714 30.3747 70.0981 30.268C69.7248 30.1613 69.3301 30.108 68.9141 30.108C68.5514 30.108 68.2581 30.156 68.0341 30.252C67.8101 30.3373 67.6394 30.46 67.5221 30.62C67.4154 30.78 67.3621 30.9773 67.3621 31.212ZM66.8181 28.06L66.1141 26.844C66.4448 26.6413 66.8714 26.444 67.3941 26.252C67.9274 26.06 68.5354 25.964 69.2181 25.964C69.8261 25.964 70.3594 26.0547 70.8181 26.236C71.2874 26.4173 71.6554 26.6787 71.9221 27.02C72.1888 27.3507 72.3221 27.7613 72.3221 28.252V33.5H70.6261V28.588C70.6261 28.3533 70.5834 28.1613 70.4981 28.012C70.4234 27.8627 70.3168 27.74 70.1781 27.644C70.0394 27.548 69.8741 27.4787 69.6821 27.436C69.4901 27.3933 69.2821 27.372 69.0581 27.372C68.7168 27.372 68.3914 27.4147 68.0821 27.5C67.7834 27.5747 67.5221 27.6707 67.2981 27.788C67.0848 27.8947 66.9248 27.9853 66.8181 28.06ZM76.0486 26.14V33.5H74.3366V26.14H76.0486ZM78.2406 27.98C78.0806 27.852 77.9313 27.756 77.7926 27.692C77.6539 27.628 77.4779 27.596 77.2646 27.596C76.9766 27.596 76.7419 27.6707 76.5606 27.82C76.3793 27.9693 76.2459 28.1773 76.1606 28.444C76.0859 28.7 76.0486 29.004 76.0486 29.356L75.4726 29.02C75.4726 28.4333 75.5793 27.916 75.7926 27.468C76.0166 27.0093 76.2993 26.6467 76.6406 26.38C76.9926 26.1133 77.3553 25.98 77.7286 25.98C77.9953 25.98 78.2459 26.0227 78.4806 26.108C78.7153 26.1827 78.9126 26.3213 79.0726 26.524L78.2406 27.98ZM79.2345 26.14H83.4105V27.66H79.2345V26.14ZM80.4665 23.58H82.1785V33.5H80.4665V23.58ZM87.8022 33.66C87.0556 33.66 86.3942 33.5 85.8182 33.18C85.2529 32.86 84.8156 32.412 84.5062 31.836C84.1969 31.26 84.0422 30.588 84.0422 29.82C84.0422 29.0413 84.1969 28.364 84.5062 27.788C84.8262 27.212 85.2742 26.7693 85.8502 26.46C86.4262 26.14 87.1036 25.98 87.8822 25.98C88.6609 25.98 89.3222 26.1293 89.8662 26.428C90.4102 26.7267 90.8262 27.1587 91.1142 27.724C91.4129 28.2787 91.5622 28.9507 91.5622 29.74C91.5622 29.8253 91.5569 29.916 91.5462 30.012C91.5462 30.108 91.5409 30.1773 91.5302 30.22H85.0662V29.036H90.0582L89.5302 29.772C89.5622 29.708 89.5942 29.6227 89.6262 29.516C89.6689 29.3987 89.6902 29.3027 89.6902 29.228C89.6902 28.8333 89.6102 28.492 89.4502 28.204C89.3009 27.916 89.0876 27.692 88.8102 27.532C88.5436 27.372 88.2289 27.292 87.8662 27.292C87.4289 27.292 87.0556 27.388 86.7462 27.58C86.4369 27.772 86.2022 28.0493 86.0422 28.412C85.8822 28.7747 85.7969 29.2227 85.7862 29.756C85.7862 30.2893 85.8662 30.7427 86.0262 31.116C86.1862 31.4787 86.4209 31.756 86.7302 31.948C87.0502 32.14 87.4342 32.236 87.8822 32.236C88.3516 32.236 88.7622 32.14 89.1142 31.948C89.4662 31.756 89.7596 31.4627 89.9942 31.068L91.4822 31.676C91.0982 32.3373 90.6022 32.8333 89.9942 33.164C89.3862 33.4947 88.6556 33.66 87.8022 33.66ZM98.7476 21.02H100.492V33.5H98.7476V21.02ZM92.6516 29.82C92.6516 29.0093 92.8169 28.3213 93.1476 27.756C93.4783 27.18 93.9156 26.7427 94.4596 26.444C95.0143 26.1347 95.6063 25.98 96.2356 25.98C96.8543 25.98 97.3929 26.1347 97.8516 26.444C98.3209 26.7533 98.6889 27.196 98.9556 27.772C99.2329 28.3373 99.3716 29.02 99.3716 29.82C99.3716 30.6093 99.2329 31.292 98.9556 31.868C98.6889 32.444 98.3209 32.8867 97.8516 33.196C97.3929 33.5053 96.8543 33.66 96.2356 33.66C95.6063 33.66 95.0143 33.5107 94.4596 33.212C93.9156 32.9027 93.4783 32.46 93.1476 31.884C92.8169 31.308 92.6516 30.62 92.6516 29.82ZM94.4436 29.82C94.4436 30.3107 94.5449 30.732 94.7476 31.084C94.9503 31.436 95.2169 31.7027 95.5476 31.884C95.8889 32.0653 96.2569 32.156 96.6516 32.156C96.9823 32.156 97.3076 32.0653 97.6276 31.884C97.9583 31.7027 98.2249 31.4413 98.4276 31.1C98.6409 30.748 98.7476 30.3213 98.7476 29.82C98.7476 29.3187 98.6409 28.8973 98.4276 28.556C98.2249 28.204 97.9583 27.9373 97.6276 27.756C97.3076 27.5747 96.9823 27.484 96.6516 27.484C96.2569 27.484 95.8889 27.5747 95.5476 27.756C95.2169 27.9373 94.9503 28.204 94.7476 28.556C94.5449 28.908 94.4436 29.3293 94.4436 29.82Z" fill="white"/>
<path d="M125.11 28.5C125.11 32.7812 121.641 36.25 117.36 36.25C113.079 36.25 109.61 32.7812 109.61 28.5C109.61 24.2188 113.079 20.75 117.36 20.75C121.641 20.75 125.11 24.2188 125.11 28.5ZM111.11 28.5C111.11 31.9688 113.891 34.75 117.36 34.75C120.797 34.75 123.61 31.9688 123.61 28.5C123.61 25.0625 120.797 22.25 117.36 22.25C113.891 22.25 111.11 25.0625 111.11 28.5ZM113.36 29.125V27.875C113.36 27.6875 113.516 27.5 113.735 27.5H117.36V25.4062C117.36 25.0938 117.735 24.9062 117.985 25.1562L121.079 28.25C121.235 28.4062 121.235 28.625 121.079 28.7812L117.985 31.875C117.735 32.125 117.36 31.9375 117.36 31.5938V29.5H113.735C113.516 29.5 113.36 29.3438 113.36 29.125Z" fill="white"/>
<rect x="0.5" y="1" width="145.36" height="55" rx="5.9" stroke="#008AFF"/>
</svg>
