<svg width="41" height="41" viewBox="0 0 41 41" fill="none" xmlns="http://www.w3.org/2000/svg">
<rect x="0.543945" y="0.875977" width="40" height="40" rx="6" fill="#0A5F59" fill-opacity="0.1"/>
<path d="M20.7377 13.126C24.9877 13.126 28.4877 16.626 28.4877 20.876C28.4877 25.1572 24.9877 28.626 20.7377 28.626C16.4564 28.626 12.9877 25.1572 12.9877 20.876C12.9877 16.626 16.4564 13.126 20.7377 13.126ZM25.8314 16.7197C25.7064 16.9072 24.6127 18.3135 22.1439 19.3135C22.3939 19.8135 22.5502 20.1885 22.7377 20.626C24.9252 20.3447 27.1127 20.7822 27.3314 20.8447C27.3314 19.2822 26.7689 17.8447 25.8314 16.7197ZM25.1127 15.9385C23.4877 14.501 21.2689 13.9697 19.1752 14.4697C19.3627 14.7197 20.5502 16.3447 21.6439 18.3447C23.9877 17.4697 24.9877 16.126 25.1127 15.9385ZM17.8939 14.9072C16.0502 15.7822 14.6752 17.501 14.2377 19.5322C14.5502 19.5635 17.2689 19.5635 20.3627 18.751C19.2689 16.7822 18.0814 15.1572 17.8939 14.9072ZM14.1127 20.9072C14.1127 22.5947 14.7377 24.1572 15.8002 25.3135C16.8627 23.501 19.0502 21.5635 21.4564 20.876C21.2689 20.501 21.1127 20.126 20.8939 19.751C17.6127 20.751 14.3939 20.7197 14.1127 20.6885C14.1127 20.7822 14.1127 20.8447 14.1127 20.9072ZM16.6439 26.126C18.6127 27.6572 21.1752 27.9072 23.3002 27.001C23.2064 26.4072 22.8314 24.376 21.8939 21.9697C19.2377 22.876 17.3627 24.7197 16.6439 26.126ZM24.4252 26.376C25.8939 25.376 26.9564 23.7822 27.2689 21.9385C27.0189 21.876 25.2064 21.3447 23.1439 21.6572C23.9877 24.0635 24.3627 26.001 24.4252 26.376Z" fill="#0A5F59"/>
</svg>
