<svg width="91" height="14" viewBox="0 0 91 14" fill="none" xmlns="http://www.w3.org/2000/svg">
<path d="M7.01677 0.683044C7.3238 0.0689816 8.19373 0.0945675 8.47517 0.683044L10.1638 4.08597L13.8994 4.62328C14.5646 4.72562 14.8205 5.54437 14.3344 6.03051L11.6478 8.66586L12.2875 12.3758C12.3898 13.0411 11.6734 13.5528 11.0849 13.2457L7.75876 11.4803L4.40701 13.2457C3.81853 13.5528 3.10212 13.0411 3.20447 12.3758L3.84412 8.66586L1.15759 6.03051C0.67146 5.54437 0.927319 4.72562 1.59255 4.62328L5.35369 4.08597L7.01677 0.683044Z" fill="#F69520"/>
<path d="M25.7668 0.683044C26.0738 0.0689816 26.9437 0.0945675 27.2252 0.683044L28.9138 4.08597L32.6494 4.62328C33.3146 4.72562 33.5705 5.54437 33.0844 6.03051L30.3978 8.66586L31.0375 12.3758C31.1398 13.0411 30.4234 13.5528 29.8349 13.2457L26.5088 11.4803L23.157 13.2457C22.5685 13.5528 21.8521 13.0411 21.9545 12.3758L22.5941 8.66586L19.9076 6.03051C19.4215 5.54437 19.6773 4.72562 20.3426 4.62328L24.1037 4.08597L25.7668 0.683044Z" fill="#F69520"/>
<path d="M44.5168 0.683044C44.8238 0.0689816 45.6937 0.0945675 45.9752 0.683044L47.6638 4.08597L51.3994 4.62328C52.0646 4.72562 52.3205 5.54437 51.8344 6.03051L49.1478 8.66586L49.7875 12.3758C49.8898 13.0411 49.1734 13.5528 48.5849 13.2457L45.2588 11.4803L41.907 13.2457C41.3185 13.5528 40.6021 13.0411 40.7045 12.3758L41.3441 8.66586L38.6576 6.03051C38.1715 5.54437 38.4273 4.72562 39.0926 4.62328L42.8537 4.08597L44.5168 0.683044Z" fill="#F69520"/>
<path d="M63.2668 0.683044C63.5738 0.0689816 64.4437 0.0945675 64.7252 0.683044L66.4138 4.08597L70.1494 4.62328C70.8146 4.72562 71.0705 5.54437 70.5844 6.03051L67.8978 8.66586L68.5375 12.3758C68.6398 13.0411 67.9234 13.5528 67.3349 13.2457L64.0088 11.4803L60.657 13.2457C60.0685 13.5528 59.3521 13.0411 59.4545 12.3758L60.0941 8.66586L57.4076 6.03051C56.9215 5.54437 57.1773 4.72562 57.8426 4.62328L61.6037 4.08597L63.2668 0.683044Z" fill="#F69520"/>
<path d="M82.0168 0.683044C82.3238 0.0689816 83.1937 0.0945675 83.4752 0.683044L85.1638 4.08597L88.8994 4.62328C89.5646 4.72562 89.8205 5.54437 89.3344 6.03051L86.6478 8.66586L87.2875 12.3758C87.3898 13.0411 86.6734 13.5528 86.0849 13.2457L82.7588 11.4803L79.407 13.2457C78.8185 13.5528 78.1021 13.0411 78.2045 12.3758L78.8441 8.66586L76.1576 6.03051C75.6715 5.54437 75.9273 4.72562 76.5926 4.62328L80.3537 4.08597L82.0168 0.683044Z" fill="#F69520"/>
</svg>
