<svg width="158" height="51" viewBox="0 0 158 51" fill="none" xmlns="http://www.w3.org/2000/svg">
<rect x="0.969971" width="157" height="51" rx="4" fill="#008AFF"/>
<path d="M25.4481 25.385V24.54H26.9171C27.1858 24.54 27.4198 24.4967 27.6191 24.41C27.8184 24.3233 27.9701 24.1977 28.0741 24.033C28.1868 23.8683 28.2431 23.6733 28.2431 23.448C28.2431 23.1013 28.1218 22.837 27.8791 22.655C27.6451 22.473 27.3244 22.382 26.9171 22.382H25.9161V28.518H27.1121C27.4241 28.518 27.7058 28.4747 27.9571 28.388C28.2084 28.2927 28.4034 28.1453 28.5421 27.946C28.6894 27.7467 28.7631 27.491 28.7631 27.179C28.7631 26.9537 28.7198 26.763 28.6331 26.607C28.5551 26.4423 28.4381 26.308 28.2821 26.204C28.1348 26.0913 27.9614 26.0133 27.7621 25.97C27.5628 25.918 27.3461 25.892 27.1121 25.892H25.4481V24.878H27.2811C27.7231 24.878 28.1434 24.9257 28.5421 25.021C28.9494 25.1163 29.3134 25.268 29.6341 25.476C29.9548 25.6753 30.2061 25.9353 30.3881 26.256C30.5788 26.5767 30.6741 26.9623 30.6741 27.413C30.6741 28.011 30.5311 28.5007 30.2451 28.882C29.9678 29.2633 29.5734 29.545 29.0621 29.727C28.5508 29.909 27.9571 30 27.2811 30H24.0571V20.9H27.0861C27.6928 20.9 28.2258 20.9867 28.6851 21.16C29.1444 21.3247 29.5041 21.576 29.7641 21.914C30.0241 22.252 30.1541 22.681 30.1541 23.201C30.1541 23.6603 30.0241 24.0547 29.7641 24.384C29.5041 24.7133 29.1444 24.9647 28.6851 25.138C28.2258 25.3027 27.6928 25.385 27.0861 25.385H25.4481ZM31.8993 27.01C31.8993 26.386 32.0423 25.84 32.3283 25.372C32.6229 24.904 33.0173 24.54 33.5113 24.28C34.0139 24.02 34.5816 23.89 35.2143 23.89C35.8469 23.89 36.4103 24.02 36.9043 24.28C37.4069 24.54 37.8013 24.904 38.0873 25.372C38.3819 25.84 38.5293 26.386 38.5293 27.01C38.5293 27.6253 38.3819 28.1713 38.0873 28.648C37.8013 29.116 37.4069 29.48 36.9043 29.74C36.4103 30 35.8469 30.13 35.2143 30.13C34.5816 30.13 34.0139 30 33.5113 29.74C33.0173 29.48 32.6229 29.116 32.3283 28.648C32.0423 28.1713 31.8993 27.6253 31.8993 27.01ZM33.6153 27.01C33.6153 27.348 33.6846 27.647 33.8233 27.907C33.9706 28.1583 34.1656 28.3577 34.4083 28.505C34.6509 28.6437 34.9196 28.713 35.2143 28.713C35.5089 28.713 35.7776 28.6437 36.0203 28.505C36.2629 28.3577 36.4536 28.1583 36.5923 27.907C36.7396 27.647 36.8133 27.348 36.8133 27.01C36.8133 26.672 36.7396 26.373 36.5923 26.113C36.4536 25.853 36.2629 25.6537 36.0203 25.515C35.7776 25.3763 35.5089 25.307 35.2143 25.307C34.9196 25.307 34.6509 25.3763 34.4083 25.515C34.1656 25.6537 33.9706 25.853 33.8233 26.113C33.6846 26.373 33.6153 26.672 33.6153 27.01ZM39.5895 27.01C39.5895 26.386 39.7325 25.84 40.0185 25.372C40.3132 24.904 40.7075 24.54 41.2015 24.28C41.7042 24.02 42.2718 23.89 42.9045 23.89C43.5372 23.89 44.1005 24.02 44.5945 24.28C45.0972 24.54 45.4915 24.904 45.7775 25.372C46.0722 25.84 46.2195 26.386 46.2195 27.01C46.2195 27.6253 46.0722 28.1713 45.7775 28.648C45.4915 29.116 45.0972 29.48 44.5945 29.74C44.1005 30 43.5372 30.13 42.9045 30.13C42.2718 30.13 41.7042 30 41.2015 29.74C40.7075 29.48 40.3132 29.116 40.0185 28.648C39.7325 28.1713 39.5895 27.6253 39.5895 27.01ZM41.3055 27.01C41.3055 27.348 41.3748 27.647 41.5135 27.907C41.6608 28.1583 41.8558 28.3577 42.0985 28.505C42.3412 28.6437 42.6098 28.713 42.9045 28.713C43.1992 28.713 43.4678 28.6437 43.7105 28.505C43.9532 28.3577 44.1438 28.1583 44.2825 27.907C44.4298 27.647 44.5035 27.348 44.5035 27.01C44.5035 26.672 44.4298 26.373 44.2825 26.113C44.1438 25.853 43.9532 25.6537 43.7105 25.515C43.4678 25.3763 43.1992 25.307 42.9045 25.307C42.6098 25.307 42.3412 25.3763 42.0985 25.515C41.8558 25.6537 41.6608 25.853 41.5135 26.113C41.3748 26.373 41.3055 26.672 41.3055 27.01ZM47.6437 19.86H49.2687V30H47.6437V19.86ZM51.4657 24.02H53.4807L50.9067 26.49L53.7407 30H51.7387L48.8917 26.49L51.4657 24.02ZM60.3415 27.933L60.5625 26.464H64.9305L65.1515 27.933H60.3415ZM62.7205 23.851L61.3555 26.984L61.3945 27.4L60.1985 30H58.1055L62.7205 20.367L67.3355 30H65.2295L64.0595 27.478L64.0855 27.01L62.7205 23.851ZM70.0177 32.86H68.3277V24.02H70.0177V32.86ZM74.9317 27.01C74.9317 27.686 74.7974 28.2623 74.5287 28.739C74.2601 29.2157 73.9047 29.5753 73.4627 29.818C73.0294 30.0607 72.5614 30.182 72.0587 30.182C71.5474 30.182 71.1011 30.052 70.7197 29.792C70.3471 29.532 70.0567 29.1637 69.8487 28.687C69.6494 28.2103 69.5497 27.6513 69.5497 27.01C69.5497 26.36 69.6494 25.801 69.8487 25.333C70.0567 24.8563 70.3471 24.488 70.7197 24.228C71.1011 23.968 71.5474 23.838 72.0587 23.838C72.5614 23.838 73.0294 23.9593 73.4627 24.202C73.9047 24.4447 74.2601 24.8043 74.5287 25.281C74.7974 25.749 74.9317 26.3253 74.9317 27.01ZM73.1897 27.01C73.1897 26.6547 73.1161 26.3513 72.9687 26.1C72.8214 25.8487 72.6221 25.658 72.3707 25.528C72.1281 25.398 71.8594 25.333 71.5647 25.333C71.3134 25.333 71.0664 25.398 70.8237 25.528C70.5897 25.6493 70.3947 25.8357 70.2387 26.087C70.0914 26.3383 70.0177 26.646 70.0177 27.01C70.0177 27.374 70.0914 27.6817 70.2387 27.933C70.3947 28.1843 70.5897 28.375 70.8237 28.505C71.0664 28.6263 71.3134 28.687 71.5647 28.687C71.8594 28.687 72.1281 28.622 72.3707 28.492C72.6221 28.362 72.8214 28.1713 72.9687 27.92C73.1161 27.6687 73.1897 27.3653 73.1897 27.01ZM78.038 32.86H76.348V24.02H78.038V32.86ZM82.952 27.01C82.952 27.686 82.8177 28.2623 82.549 28.739C82.2804 29.2157 81.925 29.5753 81.483 29.818C81.0497 30.0607 80.5817 30.182 80.079 30.182C79.5677 30.182 79.1214 30.052 78.74 29.792C78.3674 29.532 78.077 29.1637 77.869 28.687C77.6697 28.2103 77.57 27.6513 77.57 27.01C77.57 26.36 77.6697 25.801 77.869 25.333C78.077 24.8563 78.3674 24.488 78.74 24.228C79.1214 23.968 79.5677 23.838 80.079 23.838C80.5817 23.838 81.0497 23.9593 81.483 24.202C81.925 24.4447 82.2804 24.8043 82.549 25.281C82.8177 25.749 82.952 26.3253 82.952 27.01ZM81.21 27.01C81.21 26.6547 81.1364 26.3513 80.989 26.1C80.8417 25.8487 80.6424 25.658 80.391 25.528C80.1484 25.398 79.8797 25.333 79.585 25.333C79.3337 25.333 79.0867 25.398 78.844 25.528C78.61 25.6493 78.415 25.8357 78.259 26.087C78.1117 26.3383 78.038 26.646 78.038 27.01C78.038 27.374 78.1117 27.6817 78.259 27.933C78.415 28.1843 78.61 28.375 78.844 28.505C79.0867 28.6263 79.3337 28.687 79.585 28.687C79.8797 28.687 80.1484 28.622 80.391 28.492C80.6424 28.362 80.8417 28.1713 80.989 27.92C81.1364 27.6687 81.21 27.3653 81.21 27.01ZM84.0043 27.01C84.0043 26.386 84.1473 25.84 84.4333 25.372C84.728 24.904 85.1223 24.54 85.6163 24.28C86.119 24.02 86.6867 23.89 87.3193 23.89C87.952 23.89 88.5153 24.02 89.0093 24.28C89.512 24.54 89.9063 24.904 90.1923 25.372C90.487 25.84 90.6343 26.386 90.6343 27.01C90.6343 27.6253 90.487 28.1713 90.1923 28.648C89.9063 29.116 89.512 29.48 89.0093 29.74C88.5153 30 87.952 30.13 87.3193 30.13C86.6867 30.13 86.119 30 85.6163 29.74C85.1223 29.48 84.728 29.116 84.4333 28.648C84.1473 28.1713 84.0043 27.6253 84.0043 27.01ZM85.7203 27.01C85.7203 27.348 85.7897 27.647 85.9283 27.907C86.0757 28.1583 86.2707 28.3577 86.5133 28.505C86.756 28.6437 87.0247 28.713 87.3193 28.713C87.614 28.713 87.8827 28.6437 88.1253 28.505C88.368 28.3577 88.5587 28.1583 88.6973 27.907C88.8447 27.647 88.9183 27.348 88.9183 27.01C88.9183 26.672 88.8447 26.373 88.6973 26.113C88.5587 25.853 88.368 25.6537 88.1253 25.515C87.8827 25.3763 87.614 25.307 87.3193 25.307C87.0247 25.307 86.756 25.3763 86.5133 25.515C86.2707 25.6537 86.0757 25.853 85.9283 26.113C85.7897 26.373 85.7203 26.672 85.7203 27.01ZM92.0196 21.706C92.0196 21.4287 92.1192 21.2033 92.3186 21.03C92.5179 20.848 92.7562 20.757 93.0336 20.757C93.3109 20.757 93.5449 20.848 93.7356 21.03C93.9349 21.2033 94.0346 21.4287 94.0346 21.706C94.0346 21.9747 93.9349 22.2 93.7356 22.382C93.5449 22.564 93.3109 22.655 93.0336 22.655C92.7562 22.655 92.5179 22.564 92.3186 22.382C92.1192 22.2 92.0196 21.9747 92.0196 21.706ZM92.2016 24.02H93.8396V30H92.2016V24.02ZM99.6879 26.36C99.6879 25.9613 99.6099 25.658 99.4539 25.45C99.2979 25.242 99.0465 25.138 98.6999 25.138C98.4659 25.138 98.2579 25.19 98.0759 25.294C97.8939 25.3893 97.7552 25.528 97.6599 25.71C97.5645 25.892 97.5169 26.1087 97.5169 26.36V30H95.8269V24.02H97.5169V24.93C97.6989 24.592 97.9372 24.3363 98.2319 24.163C98.5352 23.981 98.8992 23.89 99.3239 23.89C100.035 23.89 100.563 24.0937 100.91 24.501C101.257 24.8997 101.43 25.4587 101.43 26.178V30H99.6879V26.36ZM102.522 24.02H106.214V25.437H102.522V24.02ZM103.549 21.94H105.174V30H103.549V21.94ZM116.15 26.178V30H114.46V26.36C114.46 25.9527 114.391 25.6493 114.252 25.45C114.113 25.242 113.888 25.138 113.576 25.138C113.368 25.138 113.186 25.1857 113.03 25.281C112.874 25.3677 112.753 25.5063 112.666 25.697C112.579 25.879 112.536 26.1 112.536 26.36V30H110.859V26.36C110.859 25.9527 110.79 25.6493 110.651 25.45C110.512 25.242 110.287 25.138 109.975 25.138C109.767 25.138 109.585 25.1857 109.429 25.281C109.273 25.3677 109.152 25.5063 109.065 25.697C108.978 25.879 108.935 26.1 108.935 26.36V30H107.31V24.02H108.935V24.904C109.108 24.5747 109.338 24.3233 109.624 24.15C109.91 23.9767 110.252 23.89 110.651 23.89C111.093 23.89 111.457 23.9767 111.743 24.15C112.029 24.3233 112.237 24.579 112.367 24.917C112.584 24.579 112.848 24.3233 113.16 24.15C113.481 23.9767 113.845 23.89 114.252 23.89C114.694 23.89 115.054 23.981 115.331 24.163C115.608 24.3363 115.812 24.5963 115.942 24.943C116.081 25.281 116.15 25.6927 116.15 26.178ZM120.83 30.13C120.18 30.13 119.612 30 119.127 29.74C118.642 29.48 118.265 29.1203 117.996 28.661C117.736 28.193 117.606 27.6427 117.606 27.01C117.606 26.3687 117.736 25.8183 117.996 25.359C118.265 24.891 118.642 24.5313 119.127 24.28C119.612 24.02 120.184 23.89 120.843 23.89C121.502 23.89 122.061 24.0113 122.52 24.254C122.988 24.488 123.343 24.8347 123.586 25.294C123.829 25.7447 123.95 26.2907 123.95 26.932C123.95 27.01 123.946 27.0923 123.937 27.179C123.937 27.2657 123.933 27.335 123.924 27.387H118.568V26.347H122.455L122 26.945C122.035 26.893 122.065 26.8237 122.091 26.737C122.126 26.6417 122.143 26.5637 122.143 26.503C122.143 26.2083 122.087 25.957 121.974 25.749C121.87 25.541 121.718 25.3763 121.519 25.255C121.32 25.1337 121.086 25.073 120.817 25.073C120.488 25.073 120.21 25.1467 119.985 25.294C119.768 25.4327 119.599 25.645 119.478 25.931C119.365 26.2083 119.305 26.555 119.296 26.971C119.296 27.3697 119.352 27.7077 119.465 27.985C119.586 28.2623 119.764 28.4747 119.998 28.622C120.232 28.7693 120.514 28.843 120.843 28.843C121.216 28.843 121.532 28.7737 121.792 28.635C122.061 28.4877 122.282 28.271 122.455 27.985L123.924 28.44C123.612 29.0033 123.196 29.428 122.676 29.714C122.165 29.9913 121.549 30.13 120.83 30.13ZM129.281 26.36C129.281 25.9613 129.203 25.658 129.047 25.45C128.891 25.242 128.64 25.138 128.293 25.138C128.059 25.138 127.851 25.19 127.669 25.294C127.487 25.3893 127.348 25.528 127.253 25.71C127.158 25.892 127.11 26.1087 127.11 26.36V30H125.42V24.02H127.11V24.93C127.292 24.592 127.53 24.3363 127.825 24.163C128.128 23.981 128.492 23.89 128.917 23.89C129.628 23.89 130.156 24.0937 130.503 24.501C130.85 24.8997 131.023 25.4587 131.023 26.178V30H129.281V26.36ZM132.115 24.02H135.807V25.437H132.115V24.02ZM133.142 21.94H134.767V30H133.142V21.94Z" fill="white"/>
</svg>
