<svg width="89" height="49" viewBox="0 0 89 49" fill="none" xmlns="http://www.w3.org/2000/svg">
<path d="M23.0125 29H20.8796C20.7019 29 20.575 28.873 20.575 28.6953V27.6797C20.575 27.5273 20.7019 27.375 20.8796 27.375H23.0125C23.4441 27.375 23.825 27.0195 23.825 26.5625V21.6875C23.825 21.2559 23.4441 20.875 23.0125 20.875H20.8796C20.7019 20.875 20.575 20.748 20.575 20.5703V19.5547C20.575 19.4023 20.7019 19.25 20.8796 19.25H23.0125C24.3582 19.25 25.45 20.3418 25.45 21.6875V26.5625C25.45 27.9082 24.3582 29 23.0125 29ZM21.8191 23.8965C22.0476 24.1504 22.0476 24.5312 21.8191 24.7598L17.5535 29.0254C17.1726 29.4062 16.5125 29.1523 16.5125 28.5938V26.1562H13.0593C12.7039 26.1562 12.45 25.9023 12.45 25.5469V23.1094C12.45 22.7793 12.7039 22.5 13.0593 22.5H16.5125V20.0625C16.5125 19.5293 17.1726 19.25 17.5535 19.6309L21.8191 23.8965Z" fill="#001F2C"/>
<path d="M35.4539 25.945C35.6446 26.283 35.8526 26.5777 36.0779 26.829C36.3119 27.0803 36.5676 27.2753 36.8449 27.414C37.1223 27.5527 37.4213 27.622 37.7419 27.622C38.1146 27.622 38.4179 27.5267 38.6519 27.336C38.8859 27.1453 39.0029 26.8853 39.0029 26.556C39.0029 26.27 38.9293 26.0403 38.7819 25.867C38.6433 25.6937 38.4309 25.542 38.1449 25.412C37.8676 25.2733 37.5253 25.126 37.1179 24.97C36.9013 24.892 36.6499 24.788 36.3639 24.658C36.0866 24.5193 35.8223 24.346 35.5709 24.138C35.3196 23.9213 35.1116 23.6613 34.9469 23.358C34.7823 23.046 34.6999 22.6733 34.6999 22.24C34.6999 21.72 34.8299 21.2737 35.0899 20.901C35.3586 20.5197 35.7183 20.2293 36.1689 20.03C36.6283 19.822 37.1396 19.718 37.7029 19.718C38.2836 19.718 38.7819 19.8177 39.1979 20.017C39.6226 20.2077 39.9736 20.4547 40.2509 20.758C40.5369 21.0527 40.7579 21.3603 40.9139 21.681L39.4579 22.487C39.3366 22.2703 39.1893 22.0753 39.0159 21.902C38.8513 21.72 38.6606 21.577 38.4439 21.473C38.2273 21.3603 37.9803 21.304 37.7029 21.304C37.3389 21.304 37.0659 21.3907 36.8839 21.564C36.7019 21.7287 36.6109 21.9237 36.6109 22.149C36.6109 22.3743 36.6846 22.5737 36.8319 22.747C36.9793 22.9117 37.2046 23.072 37.5079 23.228C37.8113 23.3753 38.1926 23.527 38.6519 23.683C38.9466 23.787 39.2283 23.917 39.4969 24.073C39.7743 24.229 40.0213 24.4197 40.2379 24.645C40.4633 24.8617 40.6366 25.1217 40.7579 25.425C40.8879 25.7197 40.9529 26.062 40.9529 26.452C40.9529 26.894 40.8663 27.2883 40.6929 27.635C40.5196 27.9817 40.2813 28.2763 39.9779 28.519C39.6746 28.753 39.3323 28.9307 38.9509 29.052C38.5783 29.182 38.1839 29.247 37.7679 29.247C37.2133 29.247 36.6933 29.143 36.2079 28.935C35.7313 28.7183 35.3153 28.428 34.9599 28.064C34.6046 27.7 34.3273 27.3057 34.1279 26.881L35.4539 25.945ZM42.4346 20.706C42.4346 20.4287 42.5342 20.2033 42.7336 20.03C42.9329 19.848 43.1712 19.757 43.4486 19.757C43.7259 19.757 43.9599 19.848 44.1506 20.03C44.3499 20.2033 44.4496 20.4287 44.4496 20.706C44.4496 20.9747 44.3499 21.2 44.1506 21.382C43.9599 21.564 43.7259 21.655 43.4486 21.655C43.1712 21.655 42.9329 21.564 42.7336 21.382C42.5342 21.2 42.4346 20.9747 42.4346 20.706ZM42.6166 23.02H44.2546V29H42.6166V23.02ZM45.9559 29.416H47.6069C47.6155 29.676 47.6849 29.897 47.8149 30.079C47.9449 30.2697 48.1225 30.417 48.3479 30.521C48.5732 30.625 48.8375 30.677 49.1409 30.677C49.4182 30.677 49.6782 30.612 49.9209 30.482C50.1722 30.352 50.3715 30.1527 50.5189 29.884C50.6749 29.6153 50.7529 29.2773 50.7529 28.87V23.02H52.3779V28.87C52.3779 29.6067 52.2305 30.2133 51.9359 30.69C51.6499 31.1667 51.2642 31.5133 50.7789 31.73C50.2935 31.9553 49.7649 32.068 49.1929 32.068C48.4995 32.068 47.9189 31.9553 47.4509 31.73C46.9829 31.5133 46.6232 31.2013 46.3719 30.794C46.1292 30.3953 45.9905 29.936 45.9559 29.416ZM45.8389 25.958C45.8389 25.2907 45.9732 24.7317 46.2419 24.281C46.5105 23.8217 46.8659 23.475 47.3079 23.241C47.7499 23.007 48.2179 22.89 48.7119 22.89C49.2145 22.89 49.6565 23.0113 50.0379 23.254C50.4279 23.4967 50.7312 23.8477 50.9479 24.307C51.1732 24.7577 51.2859 25.308 51.2859 25.958C51.2859 26.5993 51.1732 27.1497 50.9479 27.609C50.7312 28.0683 50.4279 28.4193 50.0379 28.662C49.6565 28.896 49.2145 29.013 48.7119 29.013C48.2179 29.013 47.7499 28.896 47.3079 28.662C46.8659 28.428 46.5105 28.0857 46.2419 27.635C45.9732 27.1757 45.8389 26.6167 45.8389 25.958ZM47.5809 25.958C47.5809 26.3133 47.6545 26.6167 47.8019 26.868C47.9492 27.1107 48.1485 27.297 48.3999 27.427C48.6512 27.557 48.9199 27.622 49.2059 27.622C49.4572 27.622 49.6999 27.5613 49.9339 27.44C50.1765 27.31 50.3715 27.1237 50.5189 26.881C50.6749 26.6297 50.7529 26.322 50.7529 25.958C50.7529 25.6807 50.7095 25.438 50.6229 25.23C50.5362 25.022 50.4149 24.8487 50.2589 24.71C50.1115 24.5713 49.9469 24.4673 49.7649 24.398C49.5829 24.32 49.3965 24.281 49.2059 24.281C48.9199 24.281 48.6512 24.346 48.3999 24.476C48.1485 24.606 47.9492 24.7967 47.8019 25.048C47.6545 25.2907 47.5809 25.594 47.5809 25.958ZM58.0724 25.36C58.0724 24.9613 57.9944 24.658 57.8384 24.45C57.6824 24.242 57.4311 24.138 57.0844 24.138C56.8504 24.138 56.6424 24.19 56.4604 24.294C56.2784 24.3893 56.1397 24.528 56.0444 24.71C55.9491 24.892 55.9014 25.1087 55.9014 25.36V29H54.2114V23.02H55.9014V23.93C56.0834 23.592 56.3217 23.3363 56.6164 23.163C56.9197 22.981 57.2837 22.89 57.7084 22.89C58.4191 22.89 58.9477 23.0937 59.2944 23.501C59.6411 23.8997 59.8144 24.4587 59.8144 25.178V29H58.0724V25.36ZM65.9266 19.9H67.8116V29H65.9266V19.9ZM73.6783 25.36C73.6783 24.9613 73.6003 24.658 73.4443 24.45C73.2883 24.242 73.0369 24.138 72.6903 24.138C72.4563 24.138 72.2483 24.19 72.0663 24.294C71.8843 24.3893 71.7456 24.528 71.6503 24.71C71.5549 24.892 71.5073 25.1087 71.5073 25.36V29H69.8173V23.02H71.5073V23.93C71.6893 23.592 71.9276 23.3363 72.2223 23.163C72.5256 22.981 72.8896 22.89 73.3143 22.89C74.0249 22.89 74.5536 23.0937 74.9003 23.501C75.2469 23.8997 75.4203 24.4587 75.4203 25.178V29H73.6783V25.36Z" fill="#001F2C"/>
</svg>
