<svg width="239" height="106" viewBox="0 0 239 106" fill="none" xmlns="http://www.w3.org/2000/svg">
<g filter="url(#filter0_d_5_362)">
<rect x="16" y="8.18506" width="206.02" height="73.2" rx="6.4" fill="#F8F9FA" shape-rendering="crispEdges"/>
<path d="M62.0137 33.2051C62.847 32.2051 63.5137 30.8719 63.6804 29.5385C63.847 28.5385 62.847 27.8718 62.0137 28.2051C60.6804 28.7051 59.5137 29.5385 58.5137 30.5385C57.6804 31.5385 57.0137 32.8719 56.847 34.3719C56.847 35.2052 57.6804 35.8718 58.347 35.5385C59.847 35.3718 61.1804 34.3718 62.0137 33.2051Z" fill="#0264D6"/>
<path opacity="0.3" d="M67.6803 41.5384C68.347 40.8718 68.347 39.7051 67.5136 39.0385C66.347 38.2051 65.0136 37.5385 63.5136 37.3718C61.347 37.2051 59.5136 38.7052 57.347 38.7052C55.347 38.7052 53.847 37.3718 51.5136 37.3718C49.1803 37.3718 46.6803 38.8718 45.0136 41.3718C42.8469 44.8719 43.1803 51.3719 46.8469 57.0386C48.1803 59.0386 49.8469 61.2052 52.1803 61.3719C54.1803 61.3719 54.847 60.0386 57.5136 60.0386C60.1803 60.0386 60.847 61.3719 62.847 61.3719C65.1803 61.3719 67.0136 58.8719 68.1803 56.8719C68.847 55.8719 69.1803 55.3719 69.5136 54.5386C69.847 53.8719 69.5136 52.8719 68.847 52.5386C65.0136 49.8719 64.5136 44.5384 67.6803 41.5384Z" fill="#0264D6"/>
<path d="M94.224 35.9851C94.224 36.6811 94.372 37.3051 94.668 37.8571C94.972 38.4091 95.384 38.8451 95.904 39.1651C96.432 39.4771 97.032 39.6331 97.704 39.6331C98.376 39.6331 98.972 39.4771 99.492 39.1651C100.02 38.8451 100.432 38.4091 100.728 37.8571C101.024 37.3051 101.172 36.6811 101.172 35.9851C101.172 35.2811 101.024 34.6571 100.728 34.1131C100.432 33.5611 100.02 33.1291 99.492 32.8171C98.972 32.4971 98.376 32.3371 97.704 32.3371C97.032 32.3371 96.432 32.4971 95.904 32.8171C95.384 33.1291 94.972 33.5611 94.668 34.1131C94.372 34.6571 94.224 35.2811 94.224 35.9851ZM93.528 35.9851C93.528 35.3691 93.632 34.8011 93.84 34.2811C94.048 33.7531 94.34 33.2971 94.716 32.9131C95.092 32.5211 95.532 32.2171 96.036 32.0011C96.548 31.7851 97.104 31.6771 97.704 31.6771C98.304 31.6771 98.856 31.7851 99.36 32.0011C99.872 32.2171 100.316 32.5211 100.692 32.9131C101.068 33.2971 101.36 33.7531 101.568 34.2811C101.776 34.8011 101.88 35.3691 101.88 35.9851C101.88 36.6011 101.776 37.1731 101.568 37.7011C101.36 38.2211 101.068 38.6771 100.692 39.0691C100.316 39.4531 99.872 39.7531 99.36 39.9691C98.856 40.1851 98.304 40.2931 97.704 40.2931C97.104 40.2931 96.548 40.1851 96.036 39.9691C95.532 39.7531 95.092 39.4531 94.716 39.0691C94.34 38.6771 94.048 38.2211 93.84 37.7011C93.632 37.1731 93.528 36.6011 93.528 35.9851ZM106.898 36.6331C106.898 36.1611 106.794 35.7931 106.586 35.5291C106.378 35.2651 106.05 35.1331 105.602 35.1331C105.29 35.1331 105.01 35.2091 104.762 35.3611C104.522 35.5051 104.33 35.7051 104.186 35.9611C104.05 36.2171 103.982 36.5051 103.982 36.8251V40.1851H103.358V34.6651H103.982V35.8171C104.134 35.4171 104.362 35.1051 104.666 34.8811C104.978 34.6571 105.338 34.5451 105.746 34.5451C106.322 34.5451 106.762 34.7291 107.066 35.0971C107.37 35.4571 107.522 35.9451 107.522 36.5611V40.1851H106.898V36.6331ZM113.05 31.7851H113.71V40.1851H113.05V31.7851ZM115.915 35.9851C115.915 36.6811 116.063 37.3051 116.359 37.8571C116.663 38.4091 117.075 38.8451 117.595 39.1651C118.123 39.4771 118.723 39.6331 119.395 39.6331C120.067 39.6331 120.663 39.4771 121.183 39.1651C121.711 38.8451 122.123 38.4091 122.419 37.8571C122.715 37.3051 122.863 36.6811 122.863 35.9851C122.863 35.2811 122.715 34.6571 122.419 34.1131C122.123 33.5611 121.711 33.1291 121.183 32.8171C120.663 32.4971 120.067 32.3371 119.395 32.3371C118.723 32.3371 118.123 32.4971 117.595 32.8171C117.075 33.1291 116.663 33.5611 116.359 34.1131C116.063 34.6571 115.915 35.2811 115.915 35.9851ZM115.219 35.9851C115.219 35.3691 115.323 34.8011 115.531 34.2811C115.739 33.7531 116.031 33.2971 116.407 32.9131C116.783 32.5211 117.223 32.2171 117.727 32.0011C118.239 31.7851 118.795 31.6771 119.395 31.6771C119.995 31.6771 120.547 31.7851 121.051 32.0011C121.563 32.2171 122.007 32.5211 122.383 32.9131C122.759 33.2971 123.051 33.7531 123.259 34.2811C123.467 34.8011 123.571 35.3691 123.571 35.9851C123.571 36.6011 123.467 37.1731 123.259 37.7011C123.051 38.2211 122.759 38.6771 122.383 39.0691C122.007 39.4531 121.563 39.7531 121.051 39.9691C120.547 40.1851 119.995 40.2931 119.395 40.2931C118.795 40.2931 118.239 40.1851 117.727 39.9691C117.223 39.7531 116.783 39.4531 116.407 39.0691C116.031 38.6771 115.739 38.2211 115.531 37.7011C115.323 37.1731 115.219 36.6011 115.219 35.9851ZM125.17 37.7611C125.306 38.1131 125.47 38.4331 125.662 38.7211C125.862 39.0091 126.106 39.2411 126.394 39.4171C126.682 39.5851 127.026 39.6691 127.426 39.6691C127.97 39.6691 128.394 39.5211 128.698 39.2251C129.01 38.9211 129.166 38.5371 129.166 38.0731C129.166 37.6651 129.074 37.3371 128.89 37.0891C128.706 36.8411 128.466 36.6411 128.17 36.4891C127.882 36.3291 127.578 36.1891 127.258 36.0691C127.018 35.9811 126.766 35.8771 126.502 35.7571C126.246 35.6291 126.006 35.4771 125.782 35.3011C125.558 35.1171 125.374 34.8971 125.23 34.6411C125.094 34.3851 125.026 34.0771 125.026 33.7171C125.026 33.3171 125.122 32.9651 125.314 32.6611C125.506 32.3491 125.774 32.1091 126.118 31.9411C126.462 31.7651 126.85 31.6771 127.282 31.6771C127.73 31.6771 128.114 31.7611 128.434 31.9291C128.762 32.0971 129.034 32.3091 129.25 32.5651C129.466 32.8211 129.63 33.0851 129.742 33.3571L129.166 33.6811C129.078 33.4651 128.95 33.2531 128.782 33.0451C128.622 32.8371 128.418 32.6651 128.17 32.5291C127.922 32.3851 127.614 32.3131 127.246 32.3131C126.758 32.3131 126.382 32.4411 126.118 32.6971C125.854 32.9451 125.722 33.2571 125.722 33.6331C125.722 33.9451 125.798 34.2131 125.95 34.4371C126.102 34.6611 126.33 34.8651 126.634 35.0491C126.938 35.2251 127.314 35.3931 127.762 35.5531C127.994 35.6411 128.234 35.7491 128.482 35.8771C128.73 36.0051 128.954 36.1651 129.154 36.3571C129.362 36.5491 129.53 36.7811 129.658 37.0531C129.786 37.3171 129.85 37.6331 129.85 38.0011C129.85 38.3451 129.786 38.6571 129.658 38.9371C129.538 39.2171 129.366 39.4611 129.142 39.6691C128.926 39.8691 128.67 40.0251 128.374 40.1371C128.078 40.2411 127.758 40.2931 127.414 40.2931C126.926 40.2931 126.498 40.1931 126.13 39.9931C125.762 39.7931 125.454 39.5251 125.206 39.1891C124.958 38.8531 124.766 38.4891 124.63 38.0971L125.17 37.7611ZM135.06 37.7611C135.196 38.1131 135.36 38.4331 135.552 38.7211C135.752 39.0091 135.996 39.2411 136.284 39.4171C136.572 39.5851 136.916 39.6691 137.316 39.6691C137.86 39.6691 138.284 39.5211 138.588 39.2251C138.9 38.9211 139.056 38.5371 139.056 38.0731C139.056 37.6651 138.964 37.3371 138.78 37.0891C138.596 36.8411 138.356 36.6411 138.06 36.4891C137.772 36.3291 137.468 36.1891 137.148 36.0691C136.908 35.9811 136.656 35.8771 136.392 35.7571C136.136 35.6291 135.896 35.4771 135.672 35.3011C135.448 35.1171 135.264 34.8971 135.12 34.6411C134.984 34.3851 134.916 34.0771 134.916 33.7171C134.916 33.3171 135.012 32.9651 135.204 32.6611C135.396 32.3491 135.664 32.1091 136.008 31.9411C136.352 31.7651 136.74 31.6771 137.172 31.6771C137.62 31.6771 138.004 31.7611 138.324 31.9291C138.652 32.0971 138.924 32.3091 139.14 32.5651C139.356 32.8211 139.52 33.0851 139.632 33.3571L139.056 33.6811C138.968 33.4651 138.84 33.2531 138.672 33.0451C138.512 32.8371 138.308 32.6651 138.06 32.5291C137.812 32.3851 137.504 32.3131 137.136 32.3131C136.648 32.3131 136.272 32.4411 136.008 32.6971C135.744 32.9451 135.612 33.2571 135.612 33.6331C135.612 33.9451 135.688 34.2131 135.84 34.4371C135.992 34.6611 136.22 34.8651 136.524 35.0491C136.828 35.2251 137.204 35.3931 137.652 35.5531C137.884 35.6411 138.124 35.7491 138.372 35.8771C138.62 36.0051 138.844 36.1651 139.044 36.3571C139.252 36.5491 139.42 36.7811 139.548 37.0531C139.676 37.3171 139.74 37.6331 139.74 38.0011C139.74 38.3451 139.676 38.6571 139.548 38.9371C139.428 39.2171 139.256 39.4611 139.032 39.6691C138.816 39.8691 138.56 40.0251 138.264 40.1371C137.968 40.2411 137.648 40.2931 137.304 40.2931C136.816 40.2931 136.388 40.1931 136.02 39.9931C135.652 39.7931 135.344 39.5251 135.096 39.1891C134.848 38.8531 134.656 38.4891 134.52 38.0971L135.06 37.7611ZM140.393 34.6651H142.817V35.2531H140.393V34.6651ZM141.293 32.7451H141.917V40.1851H141.293V32.7451ZM143.39 37.4251C143.39 36.8651 143.514 36.3691 143.762 35.9371C144.01 35.5051 144.346 35.1651 144.77 34.9171C145.202 34.6691 145.686 34.5451 146.222 34.5451C146.758 34.5451 147.238 34.6691 147.662 34.9171C148.094 35.1651 148.434 35.5051 148.682 35.9371C148.93 36.3691 149.054 36.8651 149.054 37.4251C149.054 37.9771 148.93 38.4731 148.682 38.9131C148.434 39.3451 148.094 39.6851 147.662 39.9331C147.238 40.1811 146.758 40.3051 146.222 40.3051C145.686 40.3051 145.202 40.1811 144.77 39.9331C144.346 39.6851 144.01 39.3451 143.762 38.9131C143.514 38.4731 143.39 37.9771 143.39 37.4251ZM144.026 37.4251C144.026 37.8731 144.122 38.2691 144.314 38.6131C144.506 38.9571 144.766 39.2291 145.094 39.4291C145.43 39.6211 145.806 39.7171 146.222 39.7171C146.638 39.7171 147.01 39.6211 147.338 39.4291C147.674 39.2291 147.938 38.9571 148.13 38.6131C148.322 38.2691 148.418 37.8731 148.418 37.4251C148.418 36.9851 148.322 36.5931 148.13 36.2491C147.938 35.8971 147.674 35.6251 147.338 35.4331C147.01 35.2331 146.638 35.1331 146.222 35.1331C145.806 35.1331 145.43 35.2331 145.094 35.4331C144.766 35.6251 144.506 35.8931 144.314 36.2371C144.122 36.5811 144.026 36.9771 144.026 37.4251ZM151.092 34.6651V40.1851H150.468V34.6651H151.092ZM152.928 35.3971C152.808 35.3091 152.692 35.2451 152.58 35.2051C152.476 35.1571 152.352 35.1331 152.208 35.1331C151.936 35.1331 151.716 35.2091 151.548 35.3611C151.388 35.5131 151.272 35.7171 151.2 35.9731C151.128 36.2291 151.092 36.5131 151.092 36.8251H150.804C150.804 36.3851 150.872 35.9971 151.008 35.6611C151.144 35.3171 151.328 35.0451 151.56 34.8451C151.8 34.6451 152.064 34.5451 152.352 34.5451C152.528 34.5451 152.692 34.5731 152.844 34.6291C153.004 34.6771 153.148 34.7611 153.276 34.8811L152.928 35.3971ZM156.235 40.3051C155.739 40.3051 155.299 40.1811 154.915 39.9331C154.531 39.6851 154.227 39.3451 154.003 38.9131C153.787 38.4731 153.679 37.9731 153.679 37.4131C153.679 36.8531 153.791 36.3571 154.015 35.9251C154.239 35.4931 154.551 35.1571 154.951 34.9171C155.351 34.6691 155.811 34.5451 156.331 34.5451C156.835 34.5451 157.275 34.6611 157.651 34.8931C158.035 35.1251 158.331 35.4491 158.539 35.8651C158.755 36.2731 158.863 36.7451 158.863 37.2811C158.863 37.3291 158.859 37.3811 158.851 37.4371C158.851 37.4931 158.847 37.5411 158.839 37.5811H154.075V37.0411H158.371L158.107 37.4131C158.123 37.3731 158.139 37.3211 158.155 37.2571C158.179 37.1851 158.191 37.1171 158.191 37.0531C158.191 36.6771 158.107 36.3411 157.939 36.0451C157.779 35.7491 157.559 35.5171 157.279 35.3491C156.999 35.1811 156.683 35.0971 156.331 35.0971C155.923 35.0971 155.567 35.1931 155.263 35.3851C154.967 35.5691 154.735 35.8331 154.567 36.1771C154.399 36.5131 154.315 36.9131 154.315 37.3771C154.315 37.8491 154.395 38.2611 154.555 38.6131C154.723 38.9651 154.955 39.2371 155.251 39.4291C155.555 39.6211 155.907 39.7171 156.307 39.7171C156.731 39.7171 157.099 39.6251 157.411 39.4411C157.731 39.2571 158.015 38.9691 158.263 38.5771L158.767 38.9011C158.455 39.3811 158.091 39.7371 157.675 39.9691C157.267 40.1931 156.787 40.3051 156.235 40.3051Z" fill="#A0ABB8"/>
<path d="M94.248 50.9851H96.168V62.1851H94.248V50.9851ZM97.864 62.1851H95.416V60.4091H97.816C98.3707 60.4091 98.8827 60.3291 99.352 60.1691C99.8213 60.0091 100.227 59.7691 100.568 59.4491C100.92 59.1291 101.192 58.7291 101.384 58.2491C101.587 57.7691 101.688 57.2144 101.688 56.5851C101.688 55.9557 101.587 55.4011 101.384 54.9211C101.192 54.4411 100.92 54.0411 100.568 53.7211C100.227 53.4011 99.8213 53.1611 99.352 53.0011C98.8827 52.8411 98.3707 52.7611 97.816 52.7611H95.416V50.9851H97.864C99.0053 50.9851 100.008 51.2197 100.872 51.6891C101.736 52.1477 102.408 52.7984 102.888 53.6411C103.379 54.4731 103.624 55.4544 103.624 56.5851C103.624 57.7157 103.379 58.7024 102.888 59.5451C102.408 60.3771 101.736 61.0277 100.872 61.4971C100.008 61.9557 99.0053 62.1851 97.864 62.1851ZM104.763 58.5051C104.763 57.7477 104.933 57.0811 105.275 56.5051C105.627 55.9291 106.101 55.4811 106.699 55.1611C107.296 54.8304 107.973 54.6651 108.731 54.6651C109.488 54.6651 110.16 54.8304 110.747 55.1611C111.344 55.4811 111.819 55.9291 112.171 56.5051C112.523 57.0811 112.699 57.7477 112.699 58.5051C112.699 59.2517 112.523 59.9184 112.171 60.5051C111.819 61.0811 111.344 61.5344 110.747 61.8651C110.16 62.1851 109.488 62.3451 108.731 62.3451C107.973 62.3451 107.296 62.1851 106.699 61.8651C106.101 61.5344 105.627 61.0811 105.275 60.5051C104.933 59.9184 104.763 59.2517 104.763 58.5051ZM106.539 58.5051C106.539 58.9637 106.635 59.3691 106.827 59.7211C107.019 60.0624 107.28 60.3344 107.611 60.5371C107.941 60.7291 108.315 60.8251 108.731 60.8251C109.136 60.8251 109.504 60.7291 109.835 60.5371C110.176 60.3344 110.443 60.0624 110.635 59.7211C110.827 59.3691 110.923 58.9637 110.923 58.5051C110.923 58.0464 110.827 57.6411 110.635 57.2891C110.443 56.9371 110.176 56.6651 109.835 56.4731C109.504 56.2811 109.136 56.1851 108.731 56.1851C108.315 56.1851 107.941 56.2811 107.611 56.4731C107.28 56.6651 107.019 56.9371 106.827 57.2891C106.635 57.6411 106.539 58.0464 106.539 58.5051ZM113 54.8251H114.872L116.6 59.2091L118.632 54.2651L120.792 59.2251L122.52 54.8251H124.392L120.952 62.7131L118.648 57.7371L116.44 62.7131L113 54.8251ZM130.231 57.7051C130.231 57.1611 130.119 56.7504 129.895 56.4731C129.671 56.1957 129.324 56.0571 128.855 56.0571C128.535 56.0571 128.252 56.1264 128.007 56.2651C127.761 56.3931 127.569 56.5851 127.431 56.8411C127.292 57.0864 127.223 57.3744 127.223 57.7051V62.1851H125.495V54.8251H127.223V55.9611C127.457 55.5237 127.756 55.1984 128.119 54.9851C128.492 54.7717 128.935 54.6651 129.447 54.6651C130.279 54.6651 130.913 54.9211 131.351 55.4331C131.788 55.9344 132.007 56.6277 132.007 57.5131V62.1851H130.231V57.7051ZM134.213 49.7051H135.941V62.1851H134.213V49.7051ZM137.591 58.5051C137.591 57.7477 137.762 57.0811 138.103 56.5051C138.455 55.9291 138.93 55.4811 139.527 55.1611C140.124 54.8304 140.802 54.6651 141.559 54.6651C142.316 54.6651 142.988 54.8304 143.575 55.1611C144.172 55.4811 144.647 55.9291 144.999 56.5051C145.351 57.0811 145.527 57.7477 145.527 58.5051C145.527 59.2517 145.351 59.9184 144.999 60.5051C144.647 61.0811 144.172 61.5344 143.575 61.8651C142.988 62.1851 142.316 62.3451 141.559 62.3451C140.802 62.3451 140.124 62.1851 139.527 61.8651C138.93 61.5344 138.455 61.0811 138.103 60.5051C137.762 59.9184 137.591 59.2517 137.591 58.5051ZM139.367 58.5051C139.367 58.9637 139.463 59.3691 139.655 59.7211C139.847 60.0624 140.108 60.3344 140.439 60.5371C140.77 60.7291 141.143 60.8251 141.559 60.8251C141.964 60.8251 142.332 60.7291 142.663 60.5371C143.004 60.3344 143.271 60.0624 143.463 59.7211C143.655 59.3691 143.751 58.9637 143.751 58.5051C143.751 58.0464 143.655 57.6411 143.463 57.2891C143.271 56.9371 143.004 56.6651 142.663 56.4731C142.332 56.2811 141.964 56.1851 141.559 56.1851C141.143 56.1851 140.77 56.2811 140.439 56.4731C140.108 56.6651 139.847 56.9371 139.655 57.2891C139.463 57.6411 139.367 58.0464 139.367 58.5051ZM148.255 59.8971C148.255 60.1424 148.313 60.3557 148.431 60.5371C148.548 60.7077 148.708 60.8357 148.911 60.9211C149.124 61.0064 149.364 61.0491 149.631 61.0491C149.972 61.0491 150.281 60.9797 150.559 60.8411C150.847 60.7024 151.076 60.4997 151.247 60.2331C151.428 59.9557 151.519 59.6357 151.519 59.2731L151.775 60.2331C151.775 60.7024 151.636 61.0971 151.359 61.4171C151.092 61.7264 150.751 61.9611 150.335 62.1211C149.929 62.2704 149.513 62.3451 149.087 62.3451C148.628 62.3451 148.201 62.2544 147.807 62.0731C147.412 61.8917 147.097 61.6251 146.863 61.2731C146.628 60.9211 146.511 60.4944 146.511 59.9931C146.511 59.2784 146.761 58.7131 147.263 58.2971C147.764 57.8704 148.473 57.6571 149.391 57.6571C149.881 57.6571 150.303 57.7104 150.655 57.8171C151.017 57.9237 151.316 58.0517 151.551 58.2011C151.785 58.3397 151.951 58.4677 152.047 58.5851V59.4651C151.716 59.2304 151.364 59.0597 150.991 58.9531C150.617 58.8464 150.223 58.7931 149.807 58.7931C149.444 58.7931 149.151 58.8411 148.927 58.9371C148.703 59.0224 148.532 59.1451 148.414 59.3051C148.308 59.4651 148.255 59.6624 148.255 59.8971ZM147.711 56.7451L147.007 55.5291C147.337 55.3264 147.764 55.1291 148.287 54.9371C148.82 54.7451 149.428 54.6491 150.111 54.6491C150.719 54.6491 151.252 54.7397 151.711 54.9211C152.18 55.1024 152.548 55.3637 152.815 55.7051C153.081 56.0357 153.215 56.4464 153.215 56.9371V62.1851H151.519V57.2731C151.519 57.0384 151.476 56.8464 151.391 56.6971C151.316 56.5477 151.209 56.4251 151.071 56.3291C150.932 56.2331 150.767 56.1637 150.575 56.1211C150.383 56.0784 150.175 56.0571 149.951 56.0571C149.609 56.0571 149.284 56.0997 148.975 56.1851C148.676 56.2597 148.415 56.3557 148.191 56.4731C147.977 56.5797 147.817 56.6704 147.711 56.7451ZM160.765 49.7051H162.509V62.1851H160.765V49.7051ZM154.669 58.5051C154.669 57.6944 154.834 57.0064 155.165 56.4411C155.496 55.8651 155.933 55.4277 156.477 55.1291C157.032 54.8197 157.624 54.6651 158.253 54.6651C158.872 54.6651 159.41 54.8197 159.869 55.1291C160.338 55.4384 160.706 55.8811 160.973 56.4571C161.25 57.0224 161.389 57.7051 161.389 58.5051C161.389 59.2944 161.25 59.9771 160.973 60.5531C160.706 61.1291 160.338 61.5717 159.869 61.8811C159.41 62.1904 158.872 62.3451 158.253 62.3451C157.624 62.3451 157.032 62.1957 156.477 61.8971C155.933 61.5877 155.496 61.1451 155.165 60.5691C154.834 59.9931 154.669 59.3051 154.669 58.5051ZM156.461 58.5051C156.461 58.9957 156.562 59.4171 156.765 59.7691C156.968 60.1211 157.234 60.3877 157.565 60.5691C157.906 60.7504 158.274 60.8411 158.669 60.8411C159 60.8411 159.325 60.7504 159.645 60.5691C159.976 60.3877 160.242 60.1264 160.445 59.7851C160.658 59.4331 160.765 59.0064 160.765 58.5051C160.765 58.0037 160.658 57.5824 160.445 57.2411C160.242 56.8891 159.976 56.6224 159.645 56.4411C159.325 56.2597 159 56.1691 158.669 56.1691C158.274 56.1691 157.906 56.2597 157.565 56.4411C157.234 56.6224 156.968 56.8891 156.765 57.2411C156.562 57.5931 156.461 58.0144 156.461 58.5051ZM177.768 50.9851H179.624V62.7451L171.448 54.6651V62.1851H169.592V50.4251L177.768 58.5051V50.9851ZM181.403 58.5051C181.403 57.7477 181.574 57.0811 181.915 56.5051C182.267 55.9291 182.742 55.4811 183.339 55.1611C183.937 54.8304 184.614 54.6651 185.371 54.6651C186.129 54.6651 186.801 54.8304 187.387 55.1611C187.985 55.4811 188.459 55.9291 188.811 56.5051C189.163 57.0811 189.339 57.7477 189.339 58.5051C189.339 59.2517 189.163 59.9184 188.811 60.5051C188.459 61.0811 187.985 61.5344 187.387 61.8651C186.801 62.1851 186.129 62.3451 185.371 62.3451C184.614 62.3451 183.937 62.1851 183.339 61.8651C182.742 61.5344 182.267 61.0811 181.915 60.5051C181.574 59.9184 181.403 59.2517 181.403 58.5051ZM183.179 58.5051C183.179 58.9637 183.275 59.3691 183.467 59.7211C183.659 60.0624 183.921 60.3344 184.251 60.5371C184.582 60.7291 184.955 60.8251 185.371 60.8251C185.777 60.8251 186.145 60.7291 186.475 60.5371C186.817 60.3344 187.083 60.0624 187.275 59.7211C187.467 59.3691 187.563 58.9637 187.563 58.5051C187.563 58.0464 187.467 57.6411 187.275 57.2891C187.083 56.9371 186.817 56.6651 186.475 56.4731C186.145 56.2811 185.777 56.1851 185.371 56.1851C184.955 56.1851 184.582 56.2811 184.251 56.4731C183.921 56.6651 183.659 56.9371 183.467 57.2891C183.275 57.6411 183.179 58.0464 183.179 58.5051ZM189.641 54.8251H191.513L193.241 59.2091L195.273 54.2651L197.433 59.2251L199.161 54.8251H201.033L197.593 62.7131L195.289 57.7371L193.081 62.7131L189.641 54.8251Z" fill="#212529"/>
<rect x="16.5" y="8.68506" width="205.02" height="72.2" rx="5.9" stroke="#F8F9FA" shape-rendering="crispEdges"/>
</g>
<defs>
<filter id="filter0_d_5_362" x="0" y="0.185059" width="238.02" height="105.2" filterUnits="userSpaceOnUse" color-interpolation-filters="sRGB">
<feFlood flood-opacity="0" result="BackgroundImageFix"/>
<feColorMatrix in="SourceAlpha" type="matrix" values="0 0 0 0 0 0 0 0 0 0 0 0 0 0 0 0 0 0 127 0" result="hardAlpha"/>
<feOffset dy="8"/>
<feGaussianBlur stdDeviation="8"/>
<feComposite in2="hardAlpha" operator="out"/>
<feColorMatrix type="matrix" values="0 0 0 0 0.0941176 0 0 0 0 0.556863 0 0 0 0 0.945098 0 0 0 0.2 0"/>
<feBlend mode="normal" in2="BackgroundImageFix" result="effect1_dropShadow_5_362"/>
<feBlend mode="normal" in="SourceGraphic" in2="effect1_dropShadow_5_362" result="shape"/>
</filter>
</defs>
</svg>
