<svg width="217" height="50" viewBox="0 0 217 50" fill="none" xmlns="http://www.w3.org/2000/svg">
<rect x="16.02" width="50" height="50" rx="25" fill="#009868" fill-opacity="0.1"/>
<path d="M50.2778 16.4766C50.7075 16.5938 51.02 16.9453 51.02 17.375C51.02 27.4141 42.895 35.5 32.895 35.5C32.4263 35.5 32.0747 35.2266 31.9575 34.7969L31.02 30.7344C30.9419 30.3047 31.1372 29.8359 31.5669 29.6406L35.9419 27.7656C36.3325 27.6094 36.7622 27.7266 37.0356 28.0391L38.9888 30.4219C42.0356 28.9766 44.4966 26.4766 45.9028 23.5078L43.52 21.5547C43.2075 21.2812 43.0903 20.8516 43.2466 20.4609L45.1216 16.0859C45.3169 15.6562 45.7856 15.4219 46.2153 15.5391L50.2778 16.4766Z" fill="#009868"/>
<path d="M75.97 14.9C75.97 15.71 76.15 16.425 76.51 17.045C76.88 17.665 77.36 18.15 77.95 18.5C78.54 18.85 79.18 19.025 79.87 19.025C80.37 19.025 80.825 18.96 81.235 18.83C81.655 18.7 82.035 18.52 82.375 18.29C82.715 18.05 83.005 17.775 83.245 17.465V19.145C82.805 19.535 82.325 19.825 81.805 20.015C81.285 20.205 80.64 20.3 79.87 20.3C79.14 20.3 78.455 20.17 77.815 19.91C77.185 19.64 76.63 19.265 76.15 18.785C75.67 18.295 75.295 17.72 75.025 17.06C74.755 16.4 74.62 15.68 74.62 14.9C74.62 14.12 74.755 13.4 75.025 12.74C75.295 12.08 75.67 11.51 76.15 11.03C76.63 10.54 77.185 10.165 77.815 9.90502C78.455 9.63502 79.14 9.50002 79.87 9.50002C80.64 9.50002 81.285 9.59502 81.805 9.78502C82.325 9.97502 82.805 10.265 83.245 10.655V12.335C83.005 12.025 82.715 11.755 82.375 11.525C82.035 11.285 81.655 11.1 81.235 10.97C80.825 10.84 80.37 10.775 79.87 10.775C79.18 10.775 78.54 10.95 77.95 11.3C77.36 11.65 76.88 12.135 76.51 12.755C76.15 13.365 75.97 14.08 75.97 14.9ZM85.9536 18.02C85.9536 18.28 86.0136 18.505 86.1336 18.695C86.2636 18.885 86.4386 19.03 86.6586 19.13C86.8886 19.22 87.1486 19.265 87.4386 19.265C87.8086 19.265 88.1386 19.19 88.4286 19.04C88.7286 18.89 88.9636 18.68 89.1336 18.41C89.3136 18.13 89.4036 17.81 89.4036 17.45L89.6436 18.35C89.6436 18.79 89.5086 19.155 89.2386 19.445C88.9786 19.735 88.6536 19.95 88.2636 20.09C87.8836 20.23 87.5036 20.3 87.1236 20.3C86.7036 20.3 86.3086 20.215 85.9386 20.045C85.5786 19.865 85.2886 19.61 85.0686 19.28C84.8486 18.95 84.7386 18.55 84.7386 18.08C84.7386 17.41 84.9736 16.875 85.4436 16.475C85.9236 16.065 86.5886 15.86 87.4386 15.86C87.9386 15.86 88.3536 15.92 88.6836 16.04C89.0236 16.15 89.2936 16.28 89.4936 16.43C89.6936 16.57 89.8286 16.685 89.8986 16.775V17.48C89.5486 17.24 89.1886 17.07 88.8186 16.97C88.4486 16.86 88.0536 16.805 87.6336 16.805C87.2436 16.805 86.9236 16.855 86.6736 16.955C86.4336 17.055 86.2536 17.195 86.1336 17.375C86.0136 17.555 85.9536 17.77 85.9536 18.02ZM85.7736 14.84L85.1886 13.955C85.4486 13.765 85.8036 13.575 86.2536 13.385C86.7136 13.195 87.2636 13.1 87.9036 13.1C88.4436 13.1 88.9136 13.185 89.3136 13.355C89.7236 13.515 90.0386 13.75 90.2586 14.06C90.4886 14.37 90.6036 14.75 90.6036 15.2V20.15H89.4036V15.365C89.4036 15.125 89.3636 14.93 89.2836 14.78C89.2036 14.62 89.0886 14.495 88.9386 14.405C88.7986 14.315 88.6336 14.25 88.4436 14.21C88.2536 14.17 88.0536 14.15 87.8436 14.15C87.5036 14.15 87.1936 14.19 86.9136 14.27C86.6436 14.35 86.4136 14.445 86.2236 14.555C86.0336 14.665 85.8836 14.76 85.7736 14.84ZM92.6353 8.45002H93.8353V20.15H92.6353V8.45002ZM96.0923 8.45002H97.2923V20.15H96.0923V8.45002ZM104.046 9.65002H105.321V16.7C105.321 17.42 105.516 18 105.906 18.44C106.296 18.88 106.866 19.1 107.616 19.1C108.366 19.1 108.936 18.88 109.326 18.44C109.716 18 109.911 17.42 109.911 16.7V9.65002H111.186V16.7C111.186 17.22 111.101 17.7 110.931 18.14C110.771 18.58 110.531 18.96 110.211 19.28C109.901 19.6 109.526 19.85 109.086 20.03C108.646 20.21 108.156 20.3 107.616 20.3C107.076 20.3 106.586 20.21 106.146 20.03C105.706 19.85 105.326 19.6 105.006 19.28C104.696 18.96 104.456 18.58 104.286 18.14C104.126 17.7 104.046 17.22 104.046 16.7V9.65002ZM113.721 18.035C113.861 18.245 114.021 18.44 114.201 18.62C114.381 18.8 114.586 18.945 114.816 19.055C115.056 19.155 115.316 19.205 115.596 19.205C115.936 19.205 116.201 19.13 116.391 18.98C116.591 18.82 116.691 18.605 116.691 18.335C116.691 18.095 116.611 17.895 116.451 17.735C116.301 17.565 116.106 17.425 115.866 17.315C115.626 17.195 115.371 17.085 115.101 16.985C114.801 16.865 114.496 16.725 114.186 16.565C113.886 16.395 113.631 16.18 113.421 15.92C113.221 15.65 113.121 15.315 113.121 14.915C113.121 14.505 113.226 14.165 113.436 13.895C113.656 13.625 113.936 13.425 114.276 13.295C114.626 13.165 114.986 13.1 115.356 13.1C115.726 13.1 116.071 13.16 116.391 13.28C116.721 13.4 117.011 13.56 117.261 13.76C117.511 13.96 117.706 14.19 117.846 14.45L116.886 15.065C116.696 14.805 116.456 14.59 116.166 14.42C115.886 14.25 115.566 14.165 115.206 14.165C114.956 14.165 114.741 14.22 114.561 14.33C114.381 14.44 114.291 14.61 114.291 14.84C114.291 15.02 114.361 15.18 114.501 15.32C114.641 15.46 114.821 15.585 115.041 15.695C115.261 15.805 115.491 15.91 115.731 16.01C116.131 16.17 116.496 16.345 116.826 16.535C117.156 16.715 117.416 16.935 117.606 17.195C117.806 17.455 117.906 17.79 117.906 18.2C117.906 18.8 117.686 19.3 117.246 19.7C116.816 20.1 116.246 20.3 115.536 20.3C115.076 20.3 114.661 20.22 114.291 20.06C113.921 19.89 113.606 19.675 113.346 19.415C113.096 19.155 112.906 18.89 112.776 18.62L113.721 18.035Z" fill="#A0ABB8"/>
<path d="M75.06 38.418V36.418H83.476V38.418H75.06ZM78.196 33.202H80.34V41.634H78.196V33.202ZM85.656 33.362V31.298L90.568 30.258V41.65H88.344V32.658L85.656 33.362ZM93.5154 33.362V31.298L98.4274 30.258V41.65H96.2034V32.658L93.5154 33.362ZM114.316 38.034C114.316 38.6954 114.193 39.266 113.948 39.746C113.702 40.226 113.372 40.6207 112.956 40.93C112.54 41.2394 112.076 41.4687 111.564 41.618C111.052 41.7674 110.524 41.842 109.98 41.842C109.297 41.842 108.684 41.762 108.14 41.602C107.606 41.442 107.137 41.234 106.732 40.978C106.326 40.7114 105.969 40.4234 105.66 40.114L106.732 38.338C106.998 38.6047 107.286 38.8447 107.596 39.058C107.916 39.2714 108.246 39.442 108.588 39.57C108.929 39.6874 109.254 39.746 109.564 39.746C110.044 39.746 110.449 39.6714 110.78 39.522C111.121 39.3727 111.382 39.1594 111.564 38.882C111.745 38.594 111.836 38.242 111.836 37.826C111.836 37.4207 111.729 37.0794 111.516 36.802C111.313 36.5247 111.036 36.3167 110.684 36.178C110.342 36.0287 109.969 35.954 109.564 35.954C109.265 35.954 108.95 35.9807 108.62 36.034C108.289 36.0767 107.948 36.1567 107.596 36.274C107.254 36.3807 106.892 36.5407 106.508 36.754L108.044 30.45H114.14V32.434H109.74L109.068 34.738C109.345 34.5887 109.638 34.4874 109.948 34.434C110.268 34.37 110.593 34.338 110.924 34.338C111.532 34.338 112.092 34.4874 112.604 34.786C113.116 35.0847 113.526 35.5114 113.836 36.066C114.156 36.61 114.316 37.266 114.316 38.034ZM115.214 39.586L121.63 30.45H123.182V41.65H120.83V38.834L121.022 38.658V34.098L118.382 37.874H122.382L122.654 37.634H124.942V39.586H115.214ZM128.591 37.794C128.591 38.2207 128.682 38.594 128.863 38.914C129.045 39.2234 129.29 39.4687 129.599 39.65C129.919 39.8207 130.277 39.906 130.671 39.906C131.066 39.906 131.418 39.8207 131.727 39.65C132.047 39.4687 132.298 39.2234 132.479 38.914C132.661 38.594 132.751 38.2207 132.751 37.794C132.751 37.378 132.661 37.01 132.479 36.69C132.298 36.3594 132.047 36.1087 131.727 35.938C131.418 35.7567 131.066 35.666 130.671 35.666C130.277 35.666 129.919 35.7567 129.599 35.938C129.29 36.1087 129.045 36.3594 128.863 36.69C128.682 37.01 128.591 37.378 128.591 37.794ZM130.863 30.482H133.759L130.175 34.706L129.759 34.85C130.037 34.562 130.309 34.3754 130.575 34.29C130.853 34.2047 131.189 34.162 131.583 34.162C132.01 34.162 132.426 34.2474 132.831 34.418C133.247 34.5887 133.615 34.834 133.935 35.154C134.255 35.474 134.511 35.858 134.703 36.306C134.895 36.754 134.991 37.25 134.991 37.794C134.991 38.6687 134.794 39.41 134.399 40.018C134.015 40.626 133.498 41.09 132.847 41.41C132.197 41.7194 131.471 41.874 130.671 41.874C129.871 41.874 129.146 41.7194 128.495 41.41C127.845 41.09 127.322 40.626 126.927 40.018C126.543 39.41 126.351 38.6687 126.351 37.794C126.351 37.2394 126.458 36.7274 126.671 36.258C126.885 35.778 127.151 35.3354 127.471 34.93L130.863 30.482ZM149.863 38.034C149.863 38.6954 149.74 39.266 149.495 39.746C149.249 40.226 148.919 40.6207 148.503 40.93C148.087 41.2394 147.623 41.4687 147.111 41.618C146.599 41.7674 146.071 41.842 145.527 41.842C144.844 41.842 144.231 41.762 143.687 41.602C143.153 41.442 142.684 41.234 142.279 40.978C141.873 40.7114 141.516 40.4234 141.207 40.114L142.279 38.338C142.545 38.6047 142.833 38.8447 143.143 39.058C143.463 39.2714 143.793 39.442 144.135 39.57C144.476 39.6874 144.801 39.746 145.111 39.746C145.591 39.746 145.996 39.6714 146.327 39.522C146.668 39.3727 146.929 39.1594 147.111 38.882C147.292 38.594 147.383 38.242 147.383 37.826C147.383 37.4207 147.276 37.0794 147.063 36.802C146.86 36.5247 146.583 36.3167 146.231 36.178C145.889 36.0287 145.516 35.954 145.111 35.954C144.812 35.954 144.497 35.9807 144.167 36.034C143.836 36.0767 143.495 36.1567 143.143 36.274C142.801 36.3807 142.439 36.5407 142.055 36.754L143.591 30.45H149.687V32.434H145.287L144.615 34.738C144.892 34.5887 145.185 34.4874 145.495 34.434C145.815 34.37 146.14 34.338 146.471 34.338C147.079 34.338 147.639 34.4874 148.151 34.786C148.663 35.0847 149.073 35.5114 149.383 36.066C149.703 36.61 149.863 37.266 149.863 38.034ZM150.824 41.65L155.912 36.338C156.2 36.0287 156.446 35.7407 156.648 35.474C156.851 35.2074 157.006 34.9407 157.112 34.674C157.219 34.4074 157.272 34.13 157.272 33.842C157.272 33.6394 157.235 33.442 157.16 33.25C157.086 33.058 156.974 32.8874 156.824 32.738C156.675 32.5887 156.494 32.4714 156.28 32.386C156.067 32.29 155.822 32.242 155.544 32.242C155.15 32.242 154.808 32.338 154.52 32.53C154.243 32.7114 154.024 32.9727 153.864 33.314C153.715 33.6554 153.64 34.05 153.64 34.498H151.4C151.4 33.698 151.56 32.978 151.88 32.338C152.2 31.698 152.67 31.1914 153.288 30.818C153.918 30.434 154.686 30.242 155.592 30.242C156.264 30.242 156.851 30.3487 157.352 30.562C157.864 30.7647 158.286 31.0367 158.616 31.378C158.958 31.7087 159.208 32.0767 159.368 32.482C159.539 32.8874 159.624 33.2927 159.624 33.698C159.624 34.2954 159.48 34.8554 159.192 35.378C158.904 35.9007 158.526 36.3754 158.056 36.802L155.144 39.554H159.832V41.65H150.824ZM160.823 39.586L167.239 30.45H168.791V41.65H166.439V38.834L166.631 38.658V34.098L163.991 37.874H167.991L168.263 37.634H170.551V39.586H160.823ZM177.206 33.154C177.206 32.5567 177.366 32.0394 177.686 31.602C178.006 31.1647 178.432 30.8287 178.966 30.594C179.51 30.3487 180.112 30.226 180.774 30.226C181.424 30.226 182.016 30.3487 182.55 30.594C183.094 30.8287 183.526 31.1647 183.846 31.602C184.176 32.0394 184.342 32.5567 184.342 33.154C184.342 33.6447 184.24 34.0767 184.038 34.45C183.846 34.8127 183.579 35.1167 183.238 35.362C182.907 35.6074 182.528 35.794 182.102 35.922C181.675 36.05 181.232 36.114 180.774 36.114C180.315 36.114 179.872 36.05 179.446 35.922C179.019 35.794 178.635 35.6074 178.294 35.362C177.963 35.1167 177.696 34.8127 177.494 34.45C177.302 34.0767 177.206 33.6447 177.206 33.154ZM179.35 33.378C179.35 33.666 179.414 33.9167 179.542 34.13C179.67 34.3434 179.84 34.514 180.054 34.642C180.267 34.7594 180.507 34.818 180.774 34.818C181.04 34.818 181.28 34.7594 181.494 34.642C181.707 34.514 181.872 34.3434 181.99 34.13C182.118 33.9167 182.182 33.666 182.182 33.378C182.182 33.1007 182.123 32.85 182.006 32.626C181.888 32.402 181.723 32.2314 181.51 32.114C181.296 31.9967 181.051 31.938 180.774 31.938C180.496 31.938 180.251 31.9967 180.038 32.114C179.824 32.2314 179.654 32.402 179.526 32.626C179.408 32.85 179.35 33.1007 179.35 33.378ZM176.806 38.61C176.806 38.0447 176.923 37.5594 177.158 37.154C177.392 36.738 177.702 36.3967 178.086 36.13C178.48 35.8634 178.912 35.666 179.382 35.538C179.851 35.41 180.315 35.346 180.774 35.346C181.232 35.346 181.696 35.41 182.166 35.538C182.635 35.666 183.062 35.8634 183.446 36.13C183.84 36.3967 184.155 36.738 184.39 37.154C184.624 37.5594 184.742 38.0447 184.742 38.61C184.742 39.1007 184.635 39.5487 184.422 39.954C184.208 40.3487 183.915 40.69 183.542 40.978C183.179 41.266 182.758 41.49 182.278 41.65C181.808 41.7994 181.307 41.874 180.774 41.874C180.24 41.874 179.734 41.7994 179.254 41.65C178.784 41.49 178.363 41.266 177.99 40.978C177.616 40.69 177.323 40.3487 177.11 39.954C176.907 39.5487 176.806 39.1007 176.806 38.61ZM179.062 38.274C179.062 38.6474 179.136 38.962 179.286 39.218C179.446 39.4634 179.654 39.6554 179.91 39.794C180.176 39.922 180.464 39.986 180.774 39.986C181.072 39.986 181.35 39.922 181.606 39.794C181.872 39.6554 182.086 39.4634 182.246 39.218C182.406 38.962 182.486 38.6474 182.486 38.274C182.486 37.9647 182.406 37.682 182.246 37.426C182.086 37.17 181.872 36.9674 181.606 36.818C181.35 36.6687 181.072 36.594 180.774 36.594C180.464 36.594 180.176 36.6687 179.91 36.818C179.654 36.9674 179.446 37.17 179.286 37.426C179.136 37.682 179.062 37.9647 179.062 38.274ZM194.863 38.034C194.863 38.6954 194.74 39.266 194.495 39.746C194.249 40.226 193.919 40.6207 193.503 40.93C193.087 41.2394 192.623 41.4687 192.111 41.618C191.599 41.7674 191.071 41.842 190.527 41.842C189.844 41.842 189.231 41.762 188.687 41.602C188.153 41.442 187.684 41.234 187.279 40.978C186.873 40.7114 186.516 40.4234 186.207 40.114L187.279 38.338C187.545 38.6047 187.833 38.8447 188.143 39.058C188.463 39.2714 188.793 39.442 189.135 39.57C189.476 39.6874 189.801 39.746 190.111 39.746C190.591 39.746 190.996 39.6714 191.327 39.522C191.668 39.3727 191.929 39.1594 192.111 38.882C192.292 38.594 192.383 38.242 192.383 37.826C192.383 37.4207 192.276 37.0794 192.063 36.802C191.86 36.5247 191.583 36.3167 191.231 36.178C190.889 36.0287 190.516 35.954 190.111 35.954C189.812 35.954 189.497 35.9807 189.167 36.034C188.836 36.0767 188.495 36.1567 188.143 36.274C187.801 36.3807 187.439 36.5407 187.055 36.754L188.591 30.45H194.687V32.434H190.287L189.615 34.738C189.892 34.5887 190.185 34.4874 190.495 34.434C190.815 34.37 191.14 34.338 191.471 34.338C192.079 34.338 192.639 34.4874 193.151 34.786C193.663 35.0847 194.073 35.5114 194.383 36.066C194.703 36.61 194.863 37.266 194.863 38.034ZM195.76 39.586L202.176 30.45H203.728V41.65H201.376V38.834L201.568 38.658V34.098L198.928 37.874H202.928L203.2 37.634H205.488V39.586H195.76ZM206.578 32.594V30.45H215.314L209.922 41.65H207.458L211.954 32.594H206.578Z" fill="#05264E"/>
</svg>
