<svg width="41" height="41" viewBox="0 0 41 41" fill="none" xmlns="http://www.w3.org/2000/svg">
<rect x="0.543945" y="0.875977" width="40" height="40" rx="6" fill="#0A5F59" fill-opacity="0.1"/>
<path d="M17.0919 26.376H14.3673V17.6162H17.0919V26.376ZM15.7149 16.4443C14.8653 16.4443 14.1622 15.7119 14.1622 14.833C14.1622 13.9834 14.8653 13.2803 15.7149 13.2803C16.5938 13.2803 17.297 13.9834 17.297 14.833C17.297 15.7119 16.5938 16.4443 15.7149 16.4443ZM27.2579 26.376H24.5626V22.1279C24.5626 21.1025 24.5333 19.8135 23.127 19.8135C21.7208 19.8135 21.5157 20.8975 21.5157 22.04V26.376H18.7911V17.6162H21.3985V18.8174H21.4278C21.8087 18.1436 22.6876 17.4111 24.0059 17.4111C26.7599 17.4111 27.2872 19.2275 27.2872 21.5713V26.376H27.2579Z" fill="#0A5F59"/>
</svg>
