<svg width="201" height="51" viewBox="0 0 201 51" fill="none" xmlns="http://www.w3.org/2000/svg">
<rect x="0.0200195" y="0.780029" width="50" height="50" rx="25" fill="#008AFF"/>
<path d="M34.2778 17.2566C34.7075 17.3738 35.02 17.7253 35.02 18.155C35.02 28.1941 26.895 36.28 16.895 36.28C16.4263 36.28 16.0747 36.0066 15.9575 35.5769L15.02 31.5144C14.9419 31.0847 15.1372 30.616 15.5669 30.4207L19.9419 28.5457C20.3325 28.3894 20.7622 28.5066 21.0356 28.8191L22.9888 31.2019C26.0356 29.7566 28.4966 27.2566 29.9028 24.2878L27.52 22.3347C27.2075 22.0613 27.0903 21.6316 27.2466 21.241L29.1216 16.866C29.3169 16.4363 29.7856 16.2019 30.2153 16.3191L34.2778 17.2566Z" fill="#F8F9FA"/>
<path d="M59.97 15.6799C59.97 16.4899 60.15 17.2049 60.51 17.8249C60.88 18.4449 61.36 18.9299 61.95 19.2799C62.54 19.6299 63.18 19.8049 63.87 19.8049C64.37 19.8049 64.825 19.7399 65.235 19.6099C65.655 19.4799 66.035 19.2999 66.375 19.0699C66.715 18.8299 67.005 18.5549 67.245 18.2449V19.9249C66.805 20.3149 66.325 20.6049 65.805 20.7949C65.285 20.9849 64.64 21.0799 63.87 21.0799C63.14 21.0799 62.455 20.9499 61.815 20.6899C61.185 20.4199 60.63 20.0449 60.15 19.5649C59.67 19.0749 59.295 18.4999 59.025 17.8399C58.755 17.1799 58.62 16.4599 58.62 15.6799C58.62 14.8999 58.755 14.1799 59.025 13.5199C59.295 12.8599 59.67 12.2899 60.15 11.8099C60.63 11.3199 61.185 10.9449 61.815 10.6849C62.455 10.4149 63.14 10.2799 63.87 10.2799C64.64 10.2799 65.285 10.3749 65.805 10.5649C66.325 10.7549 66.805 11.0449 67.245 11.4349V13.1149C67.005 12.8049 66.715 12.5349 66.375 12.3049C66.035 12.0649 65.655 11.8799 65.235 11.7499C64.825 11.6199 64.37 11.5549 63.87 11.5549C63.18 11.5549 62.54 11.7299 61.95 12.0799C61.36 12.4299 60.88 12.9149 60.51 13.5349C60.15 14.1449 59.97 14.8599 59.97 15.6799ZM69.9536 18.7999C69.9536 19.0599 70.0136 19.2849 70.1336 19.4749C70.2636 19.6649 70.4386 19.8099 70.6586 19.9099C70.8886 19.9999 71.1486 20.0449 71.4386 20.0449C71.8086 20.0449 72.1386 19.9699 72.4286 19.8199C72.7286 19.6699 72.9636 19.4599 73.1336 19.1899C73.3136 18.9099 73.4036 18.5899 73.4036 18.2299L73.6436 19.1299C73.6436 19.5699 73.5086 19.9349 73.2386 20.2249C72.9786 20.5149 72.6536 20.7299 72.2636 20.8699C71.8836 21.0099 71.5036 21.0799 71.1236 21.0799C70.7036 21.0799 70.3086 20.9949 69.9386 20.8249C69.5786 20.6449 69.2886 20.3899 69.0686 20.0599C68.8486 19.7299 68.7386 19.3299 68.7386 18.8599C68.7386 18.1899 68.9736 17.6549 69.4436 17.2549C69.9236 16.8449 70.5886 16.6399 71.4386 16.6399C71.9386 16.6399 72.3536 16.6999 72.6836 16.8199C73.0236 16.9299 73.2936 17.0599 73.4936 17.2099C73.6936 17.3499 73.8286 17.4649 73.8986 17.5549V18.2599C73.5486 18.0199 73.1886 17.8499 72.8186 17.7499C72.4486 17.6399 72.0536 17.5849 71.6336 17.5849C71.2436 17.5849 70.9236 17.6349 70.6736 17.7349C70.4336 17.8349 70.2536 17.9749 70.1336 18.1549C70.0136 18.3349 69.9536 18.5499 69.9536 18.7999ZM69.7736 15.6199L69.1886 14.7349C69.4486 14.5449 69.8036 14.3549 70.2536 14.1649C70.7136 13.9749 71.2636 13.8799 71.9036 13.8799C72.4436 13.8799 72.9136 13.9649 73.3136 14.1349C73.7236 14.2949 74.0386 14.5299 74.2586 14.8399C74.4886 15.1499 74.6036 15.5299 74.6036 15.9799V20.9299H73.4036V16.1449C73.4036 15.9049 73.3636 15.7099 73.2836 15.5599C73.2036 15.3999 73.0886 15.2749 72.9386 15.1849C72.7986 15.0949 72.6336 15.0299 72.4436 14.9899C72.2536 14.9499 72.0536 14.9299 71.8436 14.9299C71.5036 14.9299 71.1936 14.9699 70.9136 15.0499C70.6436 15.1299 70.4136 15.2249 70.2236 15.3349C70.0336 15.4449 69.8836 15.5399 69.7736 15.6199ZM76.6353 9.22993H77.8353V20.9299H76.6353V9.22993ZM80.0923 9.22993H81.2923V20.9299H80.0923V9.22993ZM88.0464 10.4299H89.3214V17.4799C89.3214 18.1999 89.5164 18.7799 89.9064 19.2199C90.2964 19.6599 90.8664 19.8799 91.6164 19.8799C92.3664 19.8799 92.9364 19.6599 93.3264 19.2199C93.7164 18.7799 93.9114 18.1999 93.9114 17.4799V10.4299H95.1864V17.4799C95.1864 17.9999 95.1014 18.4799 94.9314 18.9199C94.7714 19.3599 94.5314 19.7399 94.2114 20.0599C93.9014 20.3799 93.5264 20.6299 93.0864 20.8099C92.6464 20.9899 92.1564 21.0799 91.6164 21.0799C91.0764 21.0799 90.5864 20.9899 90.1464 20.8099C89.7064 20.6299 89.3264 20.3799 89.0064 20.0599C88.6964 19.7399 88.4564 19.3599 88.2864 18.9199C88.1264 18.4799 88.0464 17.9999 88.0464 17.4799V10.4299ZM97.721 18.8149C97.861 19.0249 98.021 19.2199 98.201 19.3999C98.381 19.5799 98.586 19.7249 98.816 19.8349C99.056 19.9349 99.316 19.9849 99.596 19.9849C99.936 19.9849 100.201 19.9099 100.391 19.7599C100.591 19.5999 100.691 19.3849 100.691 19.1149C100.691 18.8749 100.611 18.6749 100.451 18.5149C100.301 18.3449 100.106 18.2049 99.866 18.0949C99.626 17.9749 99.371 17.8649 99.101 17.7649C98.801 17.6449 98.496 17.5049 98.186 17.3449C97.886 17.1749 97.631 16.9599 97.421 16.6999C97.221 16.4299 97.121 16.0949 97.121 15.6949C97.121 15.2849 97.226 14.9449 97.436 14.6749C97.656 14.4049 97.936 14.2049 98.276 14.0749C98.626 13.9449 98.986 13.8799 99.356 13.8799C99.726 13.8799 100.071 13.9399 100.391 14.0599C100.721 14.1799 101.011 14.3399 101.261 14.5399C101.511 14.7399 101.706 14.9699 101.846 15.2299L100.886 15.8449C100.696 15.5849 100.456 15.3699 100.166 15.1999C99.886 15.0299 99.566 14.9449 99.206 14.9449C98.956 14.9449 98.741 14.9999 98.561 15.1099C98.381 15.2199 98.291 15.3899 98.291 15.6199C98.291 15.7999 98.361 15.9599 98.501 16.0999C98.641 16.2399 98.821 16.3649 99.041 16.4749C99.261 16.5849 99.491 16.6899 99.731 16.7899C100.131 16.9499 100.496 17.1249 100.826 17.3149C101.156 17.4949 101.416 17.7149 101.606 17.9749C101.806 18.2349 101.906 18.5699 101.906 18.9799C101.906 19.5799 101.686 20.0799 101.246 20.4799C100.816 20.8799 100.246 21.0799 99.536 21.0799C99.076 21.0799 98.661 20.9999 98.291 20.8399C97.921 20.6699 97.606 20.4549 97.346 20.1949C97.096 19.9349 96.906 19.6699 96.776 19.3999L97.721 18.8149Z" fill="#022F5D"/>
<path d="M59.06 39.1979V37.1979H67.476V39.1979H59.06ZM62.196 33.9819H64.34V42.4139H62.196V33.9819ZM69.656 34.1419V32.0779L74.568 31.0379V42.4299H72.344V33.4379L69.656 34.1419ZM77.5154 34.1419V32.0779L82.4274 31.0379V42.4299H80.2034V33.4379L77.5154 34.1419ZM98.3156 38.8139C98.3156 39.4753 98.193 40.0459 97.9476 40.5259C97.7023 41.0059 97.3716 41.4006 96.9556 41.7099C96.5396 42.0193 96.0756 42.2486 95.5636 42.3979C95.0516 42.5473 94.5236 42.6219 93.9796 42.6219C93.297 42.6219 92.6836 42.5419 92.1396 42.3819C91.6063 42.2219 91.137 42.0139 90.7316 41.7579C90.3263 41.4913 89.969 41.2033 89.6596 40.8939L90.7316 39.1179C90.9983 39.3846 91.2863 39.6246 91.5956 39.8379C91.9156 40.0513 92.2463 40.2219 92.5876 40.3499C92.929 40.4673 93.2543 40.5259 93.5636 40.5259C94.0436 40.5259 94.449 40.4513 94.7796 40.3019C95.121 40.1526 95.3823 39.9393 95.5636 39.6619C95.745 39.3739 95.8356 39.0219 95.8356 38.6059C95.8356 38.2006 95.729 37.8593 95.5156 37.5819C95.313 37.3046 95.0356 37.0966 94.6836 36.9579C94.3423 36.8086 93.969 36.7339 93.5636 36.7339C93.265 36.7339 92.9503 36.7606 92.6196 36.8139C92.289 36.8566 91.9476 36.9366 91.5956 37.0539C91.2543 37.1606 90.8916 37.3206 90.5076 37.5339L92.0436 31.2299H98.1396V33.2139H93.7396L93.0676 35.5179C93.345 35.3686 93.6383 35.2673 93.9476 35.2139C94.2676 35.1499 94.593 35.1179 94.9236 35.1179C95.5316 35.1179 96.0916 35.2673 96.6036 35.5659C97.1156 35.8646 97.5263 36.2913 97.8356 36.8459C98.1556 37.3899 98.3156 38.0459 98.3156 38.8139ZM99.2135 40.3659L105.63 31.2299H107.182V42.4299H104.83V39.6139L105.022 39.4379V34.8779L102.382 38.6539H106.382L106.654 38.4139H108.942V40.3659H99.2135ZM112.591 38.5739C112.591 39.0006 112.682 39.3739 112.863 39.6939C113.045 40.0033 113.29 40.2486 113.599 40.4299C113.919 40.6006 114.277 40.6859 114.671 40.6859C115.066 40.6859 115.418 40.6006 115.727 40.4299C116.047 40.2486 116.298 40.0033 116.479 39.6939C116.661 39.3739 116.751 39.0006 116.751 38.5739C116.751 38.1579 116.661 37.7899 116.479 37.4699C116.298 37.1393 116.047 36.8886 115.727 36.7179C115.418 36.5366 115.066 36.4459 114.671 36.4459C114.277 36.4459 113.919 36.5366 113.599 36.7179C113.29 36.8886 113.045 37.1393 112.863 37.4699C112.682 37.7899 112.591 38.1579 112.591 38.5739ZM114.863 31.2619H117.759L114.175 35.4859L113.759 35.6299C114.037 35.3419 114.309 35.1553 114.575 35.0699C114.853 34.9846 115.189 34.9419 115.583 34.9419C116.01 34.9419 116.426 35.0273 116.831 35.1979C117.247 35.3686 117.615 35.6139 117.935 35.9339C118.255 36.2539 118.511 36.6379 118.703 37.0859C118.895 37.5339 118.991 38.0299 118.991 38.5739C118.991 39.4486 118.794 40.1899 118.399 40.7979C118.015 41.4059 117.498 41.8699 116.847 42.1899C116.197 42.4993 115.471 42.6539 114.671 42.6539C113.871 42.6539 113.146 42.4993 112.495 42.1899C111.845 41.8699 111.322 41.4059 110.927 40.7979C110.543 40.1899 110.351 39.4486 110.351 38.5739C110.351 38.0193 110.458 37.5073 110.671 37.0379C110.885 36.5579 111.151 36.1153 111.471 35.7099L114.863 31.2619ZM133.863 38.8139C133.863 39.4753 133.74 40.0459 133.495 40.5259C133.249 41.0059 132.919 41.4006 132.503 41.7099C132.087 42.0193 131.623 42.2486 131.111 42.3979C130.599 42.5473 130.071 42.6219 129.527 42.6219C128.844 42.6219 128.231 42.5419 127.687 42.3819C127.153 42.2219 126.684 42.0139 126.279 41.7579C125.873 41.4913 125.516 41.2033 125.207 40.8939L126.279 39.1179C126.545 39.3846 126.833 39.6246 127.143 39.8379C127.463 40.0513 127.793 40.2219 128.135 40.3499C128.476 40.4673 128.801 40.5259 129.111 40.5259C129.591 40.5259 129.996 40.4513 130.327 40.3019C130.668 40.1526 130.929 39.9393 131.111 39.6619C131.292 39.3739 131.383 39.0219 131.383 38.6059C131.383 38.2006 131.276 37.8593 131.063 37.5819C130.86 37.3046 130.583 37.0966 130.231 36.9579C129.889 36.8086 129.516 36.7339 129.111 36.7339C128.812 36.7339 128.497 36.7606 128.167 36.8139C127.836 36.8566 127.495 36.9366 127.143 37.0539C126.801 37.1606 126.439 37.3206 126.055 37.5339L127.591 31.2299H133.687V33.2139H129.287L128.615 35.5179C128.892 35.3686 129.185 35.2673 129.495 35.2139C129.815 35.1499 130.14 35.1179 130.471 35.1179C131.079 35.1179 131.639 35.2673 132.151 35.5659C132.663 35.8646 133.073 36.2913 133.383 36.8459C133.703 37.3899 133.863 38.0459 133.863 38.8139ZM134.824 42.4299L139.912 37.1179C140.2 36.8086 140.446 36.5206 140.648 36.2539C140.851 35.9873 141.006 35.7206 141.112 35.4539C141.219 35.1873 141.272 34.9099 141.272 34.6219C141.272 34.4193 141.235 34.2219 141.16 34.0299C141.086 33.8379 140.974 33.6673 140.824 33.5179C140.675 33.3686 140.494 33.2513 140.28 33.1659C140.067 33.0699 139.822 33.0219 139.544 33.0219C139.15 33.0219 138.808 33.1179 138.52 33.3099C138.243 33.4913 138.024 33.7526 137.864 34.0939C137.715 34.4353 137.64 34.8299 137.64 35.2779H135.4C135.4 34.4779 135.56 33.7579 135.88 33.1179C136.2 32.4779 136.67 31.9713 137.288 31.5979C137.918 31.2139 138.686 31.0219 139.592 31.0219C140.264 31.0219 140.851 31.1286 141.352 31.3419C141.864 31.5446 142.286 31.8166 142.616 32.1579C142.958 32.4886 143.208 32.8566 143.368 33.2619C143.539 33.6673 143.624 34.0726 143.624 34.4779C143.624 35.0753 143.48 35.6353 143.192 36.1579C142.904 36.6806 142.526 37.1553 142.056 37.5819L139.144 40.3339H143.832V42.4299H134.824ZM144.823 40.3659L151.239 31.2299H152.791V42.4299H150.439V39.6139L150.631 39.4379V34.8779L147.991 38.6539H151.991L152.263 38.4139H154.551V40.3659H144.823ZM161.206 33.9339C161.206 33.3366 161.366 32.8193 161.686 32.3819C162.006 31.9446 162.432 31.6086 162.966 31.3739C163.51 31.1286 164.112 31.0059 164.774 31.0059C165.424 31.0059 166.016 31.1286 166.55 31.3739C167.094 31.6086 167.526 31.9446 167.846 32.3819C168.176 32.8193 168.342 33.3366 168.342 33.9339C168.342 34.4246 168.24 34.8566 168.038 35.2299C167.846 35.5926 167.579 35.8966 167.238 36.1419C166.907 36.3873 166.528 36.5739 166.102 36.7019C165.675 36.8299 165.232 36.8939 164.774 36.8939C164.315 36.8939 163.872 36.8299 163.446 36.7019C163.019 36.5739 162.635 36.3873 162.294 36.1419C161.963 35.8966 161.696 35.5926 161.494 35.2299C161.302 34.8566 161.206 34.4246 161.206 33.9339ZM163.35 34.1579C163.35 34.4459 163.414 34.6966 163.542 34.9099C163.67 35.1233 163.84 35.2939 164.054 35.4219C164.267 35.5393 164.507 35.5979 164.774 35.5979C165.04 35.5979 165.28 35.5393 165.494 35.4219C165.707 35.2939 165.872 35.1233 165.99 34.9099C166.118 34.6966 166.182 34.4459 166.182 34.1579C166.182 33.8806 166.123 33.6299 166.006 33.4059C165.888 33.1819 165.723 33.0113 165.51 32.8939C165.296 32.7766 165.051 32.7179 164.774 32.7179C164.496 32.7179 164.251 32.7766 164.038 32.8939C163.824 33.0113 163.654 33.1819 163.526 33.4059C163.408 33.6299 163.35 33.8806 163.35 34.1579ZM160.806 39.3899C160.806 38.8246 160.923 38.3393 161.158 37.9339C161.392 37.5179 161.702 37.1766 162.086 36.9099C162.48 36.6433 162.912 36.4459 163.382 36.3179C163.851 36.1899 164.315 36.1259 164.774 36.1259C165.232 36.1259 165.696 36.1899 166.166 36.3179C166.635 36.4459 167.062 36.6433 167.446 36.9099C167.84 37.1766 168.155 37.5179 168.39 37.9339C168.624 38.3393 168.742 38.8246 168.742 39.3899C168.742 39.8806 168.635 40.3286 168.422 40.7339C168.208 41.1286 167.915 41.4699 167.542 41.7579C167.179 42.0459 166.758 42.2699 166.278 42.4299C165.808 42.5793 165.307 42.6539 164.774 42.6539C164.24 42.6539 163.734 42.5793 163.254 42.4299C162.784 42.2699 162.363 42.0459 161.99 41.7579C161.616 41.4699 161.323 41.1286 161.11 40.7339C160.907 40.3286 160.806 39.8806 160.806 39.3899ZM163.062 39.0539C163.062 39.4273 163.136 39.7419 163.286 39.9979C163.446 40.2433 163.654 40.4353 163.91 40.5739C164.176 40.7019 164.464 40.7659 164.774 40.7659C165.072 40.7659 165.35 40.7019 165.606 40.5739C165.872 40.4353 166.086 40.2433 166.246 39.9979C166.406 39.7419 166.486 39.4273 166.486 39.0539C166.486 38.7446 166.406 38.4619 166.246 38.2059C166.086 37.9499 165.872 37.7473 165.606 37.5979C165.35 37.4486 165.072 37.3739 164.774 37.3739C164.464 37.3739 164.176 37.4486 163.91 37.5979C163.654 37.7473 163.446 37.9499 163.286 38.2059C163.136 38.4619 163.062 38.7446 163.062 39.0539ZM178.863 38.8139C178.863 39.4753 178.74 40.0459 178.495 40.5259C178.249 41.0059 177.919 41.4006 177.503 41.7099C177.087 42.0193 176.623 42.2486 176.111 42.3979C175.599 42.5473 175.071 42.6219 174.527 42.6219C173.844 42.6219 173.231 42.5419 172.687 42.3819C172.153 42.2219 171.684 42.0139 171.279 41.7579C170.873 41.4913 170.516 41.2033 170.207 40.8939L171.279 39.1179C171.545 39.3846 171.833 39.6246 172.143 39.8379C172.463 40.0513 172.793 40.2219 173.135 40.3499C173.476 40.4673 173.801 40.5259 174.111 40.5259C174.591 40.5259 174.996 40.4513 175.327 40.3019C175.668 40.1526 175.929 39.9393 176.111 39.6619C176.292 39.3739 176.383 39.0219 176.383 38.6059C176.383 38.2006 176.276 37.8593 176.063 37.5819C175.86 37.3046 175.583 37.0966 175.231 36.9579C174.889 36.8086 174.516 36.7339 174.111 36.7339C173.812 36.7339 173.497 36.7606 173.167 36.8139C172.836 36.8566 172.495 36.9366 172.143 37.0539C171.801 37.1606 171.439 37.3206 171.055 37.5339L172.591 31.2299H178.687V33.2139H174.287L173.615 35.5179C173.892 35.3686 174.185 35.2673 174.495 35.2139C174.815 35.1499 175.14 35.1179 175.471 35.1179C176.079 35.1179 176.639 35.2673 177.151 35.5659C177.663 35.8646 178.073 36.2913 178.383 36.8459C178.703 37.3899 178.863 38.0459 178.863 38.8139ZM179.76 40.3659L186.176 31.2299H187.728V42.4299H185.376V39.6139L185.568 39.4379V34.8779L182.928 38.6539H186.928L187.2 38.4139H189.488V40.3659H179.76ZM190.578 33.3739V31.2299H199.314L193.922 42.4299H191.458L195.954 33.3739H190.578Z" fill="#05264E"/>
</svg>
