<svg width="240" height="54" viewBox="0 0 240 54" fill="none" xmlns="http://www.w3.org/2000/svg">
<rect y="15.3301" width="38" height="38" rx="3.2" fill="#EDF3F7"/>
<path d="M26.2656 34.2051C26.2656 37.8379 23.5996 40.8555 20.1133 41.3828V36.3145H21.8125L22.1348 34.2051H20.1133V32.8574C20.1133 32.2715 20.4062 31.7148 21.3145 31.7148H22.2227V29.9277C22.2227 29.9277 21.4023 29.7812 20.582 29.7812C18.9414 29.7812 17.8574 30.8066 17.8574 32.623V34.2051H16.0117V36.3145H17.8574V41.3828C14.3711 40.8555 11.7344 37.8379 11.7344 34.2051C11.7344 30.1914 14.9863 26.9395 19 26.9395C23.0137 26.9395 26.2656 30.1914 26.2656 34.2051Z" fill="#6E8497"/>
<rect x="48" y="15.3301" width="38" height="38" rx="3.2" fill="#EDF3F7"/>
<path d="M72.6275 27.6426C73.1255 27.6426 73.565 28.082 73.565 28.6094V39.8301C73.565 40.3574 73.1255 40.7676 72.6275 40.7676H61.3482C60.8502 40.7676 60.44 40.3574 60.44 39.8301V28.6094C60.44 28.082 60.8502 27.6426 61.3482 27.6426H72.6275ZM64.3951 38.8926V32.6523H62.4615V38.8926H64.3951ZM63.4283 31.7734C64.0435 31.7734 64.5416 31.2754 64.5416 30.6602C64.5416 30.0449 64.0435 29.5176 63.4283 29.5176C62.7838 29.5176 62.2857 30.0449 62.2857 30.6602C62.2857 31.2754 62.7838 31.7734 63.4283 31.7734ZM71.69 38.8926V35.4648C71.69 33.7949 71.3091 32.4766 69.3463 32.4766C68.4088 32.4766 67.7642 33.0039 67.5005 33.502H67.4713V32.6523H65.6255V38.8926H67.5591V35.8164C67.5591 34.9961 67.7056 34.2051 68.731 34.2051C69.7271 34.2051 69.7271 35.1426 69.7271 35.8457V38.8926H71.69Z" fill="#6E8497"/>
<rect x="96" y="15.3301" width="38" height="38" rx="3.2" fill="#EDF3F7"/>
<path d="M115 26.9395C118.984 26.9395 122.266 30.2207 122.266 34.2051C122.266 38.2188 118.984 41.4707 115 41.4707C110.986 41.4707 107.734 38.2188 107.734 34.2051C107.734 30.2207 110.986 26.9395 115 26.9395ZM112.92 37.8379C115 37.8379 116.406 36.373 116.406 34.293C116.406 34.0879 116.377 33.8828 116.348 33.707H112.92V34.9375H114.971C114.824 35.9336 113.857 36.4902 112.92 36.4902C111.66 36.4902 110.664 35.4648 110.664 34.2051C110.664 32.9746 111.66 31.9199 112.92 31.9199C113.447 31.9199 113.975 32.0957 114.355 32.4766L115.352 31.5391C114.678 30.8945 113.828 30.5723 112.92 30.5723C110.898 30.5723 109.287 32.2129 109.287 34.2051C109.287 36.2266 110.898 37.8379 112.92 37.8379ZM119.658 34.7324H120.684V33.707H119.658V32.6523H118.633V33.707H117.578V34.7324H118.633V35.7871H119.658V34.7324Z" fill="#6E8497"/>
<rect x="144" y="15.3301" width="38" height="38" rx="3.2" fill="#EDF3F7"/>
<path d="M168.947 31.1582C168.947 31.3047 168.947 31.4219 168.947 31.5684C168.947 35.6406 165.871 40.2988 160.217 40.2988C158.459 40.2988 156.848 39.8008 155.5 38.9219C155.734 38.9512 155.969 38.9805 156.232 38.9805C157.668 38.9805 158.986 38.4824 160.041 37.6621C158.693 37.6328 157.551 36.7539 157.17 35.5234C157.375 35.5527 157.551 35.582 157.756 35.582C158.02 35.582 158.312 35.5234 158.547 35.4648C157.141 35.1719 156.086 33.9414 156.086 32.4473V32.418C156.496 32.6523 156.994 32.7695 157.492 32.7988C156.643 32.2422 156.115 31.3047 156.115 30.25C156.115 29.6641 156.262 29.1367 156.525 28.6973C158.049 30.543 160.334 31.7734 162.883 31.9199C162.824 31.6855 162.795 31.4512 162.795 31.2168C162.795 29.5176 164.172 28.1406 165.871 28.1406C166.75 28.1406 167.541 28.4922 168.127 29.1074C168.801 28.9609 169.475 28.6973 170.061 28.3457C169.826 29.0781 169.357 29.6641 168.713 30.0449C169.328 29.9863 169.943 29.8105 170.471 29.5762C170.061 30.1914 169.533 30.7188 168.947 31.1582Z" fill="#6E8497"/>
<rect x="192" y="15.3301" width="38" height="38" rx="3.2" fill="#EDF3F7"/>
<path d="M211 26.9395C214.984 26.9395 218.266 30.2207 218.266 34.2051C218.266 38.2188 214.984 41.4707 211 41.4707C206.986 41.4707 203.734 38.2188 203.734 34.2051C203.734 30.2207 206.986 26.9395 211 26.9395ZM215.775 30.3086C215.658 30.4844 214.633 31.8027 212.318 32.7402C212.553 33.209 212.699 33.5605 212.875 33.9707C214.926 33.707 216.977 34.1172 217.182 34.1758C217.182 32.7109 216.654 31.3633 215.775 30.3086ZM215.102 29.5762C213.578 28.2285 211.498 27.7305 209.535 28.1992C209.711 28.4336 210.824 29.957 211.85 31.832C214.047 31.0117 214.984 29.752 215.102 29.5762ZM208.334 28.6094C206.605 29.4297 205.316 31.041 204.906 32.9453C205.199 32.9746 207.748 32.9746 210.648 32.2129C209.623 30.3672 208.51 28.8438 208.334 28.6094ZM204.789 34.2344C204.789 35.8164 205.375 37.2812 206.371 38.3652C207.367 36.666 209.418 34.8496 211.674 34.2051C211.498 33.8535 211.352 33.502 211.146 33.1504C208.07 34.0879 205.053 34.0586 204.789 34.0293C204.789 34.1172 204.789 34.1758 204.789 34.2344ZM207.162 39.127C209.008 40.5625 211.41 40.7969 213.402 39.9473C213.314 39.3906 212.963 37.4863 212.084 35.2305C209.594 36.0801 207.836 37.8086 207.162 39.127ZM214.457 39.3613C215.834 38.4238 216.83 36.9297 217.123 35.2012C216.889 35.1426 215.189 34.6445 213.256 34.9375C214.047 37.1934 214.398 39.0098 214.457 39.3613Z" fill="#6E8497"/>
</svg>
