<svg width="88" height="88" viewBox="0 0 88 88" fill="none" xmlns="http://www.w3.org/2000/svg">
<rect width="88" height="88" rx="44" fill="#6363F5" fill-opacity="0.1"/>
<path d="M63.375 44C63.375 54.7031 54.625 63.375 44 63.375C33.2969 63.375 24.625 54.7031 24.625 44C24.625 33.375 33.2969 24.625 44 24.625C54.625 24.625 63.375 33.375 63.375 44ZM41.7344 54.3125L56.1094 39.9375C56.5781 39.4688 56.5781 38.6094 56.1094 38.1406L54.3125 36.4219C53.8438 35.875 53.0625 35.875 52.5938 36.4219L40.875 48.1406L35.3281 42.6719C34.8594 42.125 34.0781 42.125 33.6094 42.6719L31.8125 44.3906C31.3438 44.8594 31.3438 45.7188 31.8125 46.1875L39.9375 54.3125C40.4062 54.7812 41.2656 54.7812 41.7344 54.3125Z" fill="#6363F5"/>
</svg>
