<svg width="88" height="88" viewBox="0 0 88 88" fill="none" xmlns="http://www.w3.org/2000/svg">
<rect width="88" height="88" rx="44" fill="#009868" fill-opacity="0.1"/>
<path d="M39 40.25V49C39 50.4062 37.8281 51.5 36.5 51.5H35.25C32.4375 51.5 30.25 49.3125 30.25 46.5V42.75C30.25 40.0156 32.4375 37.75 35.25 37.75H36.5C37.8281 37.75 39 38.9219 39 40.25ZM52.75 51.5H51.5C50.0938 51.5 49 50.4062 49 49V40.25C49 38.9219 50.0938 37.75 51.5 37.75H52.75C55.4844 37.75 57.75 40.0156 57.75 42.75V46.5C57.75 49.3125 55.4844 51.5 52.75 51.5ZM44 24C55.0938 24 63.6094 33.2969 64 44V56.9688C64 60.875 60.7969 64 56.8906 64H42.75C40.6406 64 39 62.3594 39 60.25C39 58.2188 40.6406 56.5 42.75 56.5H45.25C47.2812 56.5 49 58.2188 49 60.25H56.8906C58.7656 60.25 60.25 58.8438 60.25 56.9688C60.25 56.9688 60.1719 44.2344 60.1719 44H60.25C60.25 35.0938 52.9062 27.75 44 27.75C35.0156 27.75 27.75 35.0938 27.75 44V45.25C27.75 45.9531 27.125 46.5 26.5 46.5H25.25C24.5469 46.5 24 45.9531 24 45.25V44C24.3125 33.2969 32.8281 24 44 24Z" fill="#009868"/>
</svg>
