<svg width="91" height="14" viewBox="0 0 91 14" fill="none" xmlns="http://www.w3.org/2000/svg">
<path d="M7.17095 0.926757C7.47798 0.312695 8.3479 0.338281 8.62935 0.926757L10.318 4.32969L14.0536 4.86699C14.7188 4.96934 14.9747 5.78809 14.4885 6.27422L11.802 8.90957L12.4417 12.6195C12.544 13.2848 11.8276 13.7965 11.2391 13.4895L7.91294 11.724L4.56118 13.4895C3.97271 13.7965 3.2563 13.2848 3.35864 12.6195L3.99829 8.90957L1.31177 6.27422C0.825635 5.78809 1.08149 4.96934 1.74673 4.86699L5.50786 4.32969L7.17095 0.926757Z" fill="#F69520"/>
<path d="M25.9209 0.926757C26.228 0.312695 27.0979 0.338281 27.3793 0.926757L29.068 4.32969L32.8036 4.86699C33.4688 4.96934 33.7247 5.78809 33.2385 6.27422L30.552 8.90957L31.1917 12.6195C31.294 13.2848 30.5776 13.7965 29.9891 13.4895L26.6629 11.724L23.3112 13.4895C22.7227 13.7965 22.0063 13.2848 22.1086 12.6195L22.7483 8.90957L20.0618 6.27422C19.5756 5.78809 19.8315 4.96934 20.4967 4.86699L24.2579 4.32969L25.9209 0.926757Z" fill="#F69520"/>
<path d="M44.6709 0.926757C44.978 0.312695 45.8479 0.338281 46.1293 0.926757L47.818 4.32969L51.5536 4.86699C52.2188 4.96934 52.4747 5.78809 51.9885 6.27422L49.302 8.90957L49.9417 12.6195C50.044 13.2848 49.3276 13.7965 48.7391 13.4895L45.4129 11.724L42.0612 13.4895C41.4727 13.7965 40.7563 13.2848 40.8586 12.6195L41.4983 8.90957L38.8118 6.27422C38.3256 5.78809 38.5815 4.96934 39.2467 4.86699L43.0079 4.32969L44.6709 0.926757Z" fill="#F69520"/>
<path d="M63.4209 0.926757C63.728 0.312695 64.5979 0.338281 64.8793 0.926757L66.568 4.32969L70.3036 4.86699C70.9688 4.96934 71.2247 5.78809 70.7385 6.27422L68.052 8.90957L68.6917 12.6195C68.794 13.2848 68.0776 13.7965 67.4891 13.4895L64.1629 11.724L60.8112 13.4895C60.2227 13.7965 59.5063 13.2848 59.6086 12.6195L60.2483 8.90957L57.5618 6.27422C57.0756 5.78809 57.3315 4.96934 57.9967 4.86699L61.7579 4.32969L63.4209 0.926757Z" fill="#F69520"/>
<path d="M82.1709 0.926757C82.478 0.312695 83.3479 0.338281 83.6293 0.926757L85.318 4.32969L89.0536 4.86699C89.7188 4.96934 89.9747 5.78809 89.4885 6.27422L86.802 8.90957L87.4417 12.6195C87.544 13.2848 86.8276 13.7965 86.2391 13.4895L82.9129 11.724L79.5612 13.4895C78.9727 13.7965 78.2563 13.2848 78.3586 12.6195L78.9983 8.90957L76.3118 6.27422C75.8256 5.78809 76.0815 4.96934 76.7467 4.86699L80.5079 4.32969L82.1709 0.926757Z" fill="#A0ABB8"/>
</svg>
