<svg width="140" height="52" viewBox="0 0 140 52" fill="none" xmlns="http://www.w3.org/2000/svg">
<rect x="0.96994" y="0.5" width="138.758" height="51" rx="4" fill="#008AFF"/>
<path d="M26.2115 26.262H28.1745L31.1385 30.5H28.9415L26.2115 26.262ZM24.1445 21.4H26.0035V30.5H24.1445V21.4ZM25.2755 22.986V21.4H27.1995C27.9188 21.4 28.5298 21.5213 29.0325 21.764C29.5352 22.0067 29.9208 22.3447 30.1895 22.778C30.4582 23.2113 30.5925 23.7183 30.5925 24.299C30.5925 24.871 30.4582 25.378 30.1895 25.82C29.9208 26.2533 29.5352 26.5913 29.0325 26.834C28.5298 27.0767 27.9188 27.198 27.1995 27.198H25.2755V25.716H27.0825C27.4118 25.716 27.6935 25.664 27.9275 25.56C28.1702 25.4473 28.3565 25.2913 28.4865 25.092C28.6165 24.884 28.6815 24.637 28.6815 24.351C28.6815 24.065 28.6165 23.8223 28.4865 23.623C28.3565 23.415 28.1702 23.259 27.9275 23.155C27.6935 23.0423 27.4118 22.986 27.0825 22.986H25.2755ZM35.071 30.63C34.421 30.63 33.8534 30.5 33.368 30.24C32.8827 29.98 32.5057 29.6203 32.237 29.161C31.977 28.693 31.847 28.1427 31.847 27.51C31.847 26.8687 31.977 26.3183 32.237 25.859C32.5057 25.391 32.8827 25.0313 33.368 24.78C33.8534 24.52 34.4254 24.39 35.084 24.39C35.7427 24.39 36.3017 24.5113 36.761 24.754C37.229 24.988 37.5844 25.3347 37.827 25.794C38.0697 26.2447 38.191 26.7907 38.191 27.432C38.191 27.51 38.1867 27.5923 38.178 27.679C38.178 27.7657 38.1737 27.835 38.165 27.887H32.809V26.847H36.696L36.241 27.445C36.2757 27.393 36.306 27.3237 36.332 27.237C36.3667 27.1417 36.384 27.0637 36.384 27.003C36.384 26.7083 36.3277 26.457 36.215 26.249C36.111 26.041 35.9594 25.8763 35.76 25.755C35.5607 25.6337 35.3267 25.573 35.058 25.573C34.7287 25.573 34.4514 25.6467 34.226 25.794C34.0094 25.9327 33.8404 26.145 33.719 26.431C33.6064 26.7083 33.5457 27.055 33.537 27.471C33.537 27.8697 33.5934 28.2077 33.706 28.485C33.8274 28.7623 34.005 28.9747 34.239 29.122C34.473 29.2693 34.7547 29.343 35.084 29.343C35.4567 29.343 35.773 29.2737 36.033 29.135C36.3017 28.9877 36.5227 28.771 36.696 28.485L38.165 28.94C37.853 29.5033 37.437 29.928 36.917 30.214C36.4057 30.4913 35.7904 30.63 35.071 30.63ZM39.96 28.433C40.2113 28.667 40.4453 28.8577 40.662 29.005C40.8786 29.1437 41.0823 29.2477 41.273 29.317C41.4723 29.3863 41.6586 29.421 41.832 29.421C42.0573 29.421 42.2306 29.3733 42.352 29.278C42.4733 29.174 42.534 29.0353 42.534 28.862C42.534 28.706 42.482 28.576 42.378 28.472C42.2826 28.3593 42.1396 28.2597 41.949 28.173C41.7583 28.0863 41.5156 27.9953 41.221 27.9C40.9436 27.796 40.675 27.6747 40.415 27.536C40.155 27.3887 39.9383 27.198 39.765 26.964C39.6003 26.7213 39.518 26.4137 39.518 26.041C39.518 25.6857 39.6133 25.3867 39.804 25.144C39.9946 24.8927 40.2503 24.7063 40.571 24.585C40.9003 24.455 41.2643 24.39 41.663 24.39C42.001 24.39 42.3173 24.4333 42.612 24.52C42.9066 24.6067 43.1796 24.7237 43.431 24.871C43.6823 25.0097 43.9033 25.1743 44.094 25.365L43.353 26.405C43.1363 26.171 42.8763 25.9803 42.573 25.833C42.2783 25.6857 41.988 25.612 41.702 25.612C41.5113 25.612 41.3596 25.651 41.247 25.729C41.143 25.7983 41.091 25.9067 41.091 26.054C41.091 26.184 41.143 26.301 41.247 26.405C41.3596 26.5003 41.5156 26.587 41.715 26.665C41.923 26.743 42.157 26.8383 42.417 26.951C42.7376 27.0723 43.0323 27.211 43.301 27.367C43.5783 27.5143 43.7993 27.7007 43.964 27.926C44.1286 28.1513 44.211 28.446 44.211 28.81C44.211 29.408 44.016 29.876 43.626 30.214C43.236 30.5433 42.6986 30.708 42.014 30.708C41.5893 30.708 41.1993 30.6517 40.844 30.539C40.4973 30.4263 40.181 30.279 39.895 30.097C39.6176 29.9063 39.3663 29.7027 39.141 29.486L39.96 28.433ZM45.4958 22.206C45.4958 21.9287 45.5955 21.7033 45.7948 21.53C45.9942 21.348 46.2325 21.257 46.5098 21.257C46.7872 21.257 47.0212 21.348 47.2118 21.53C47.4112 21.7033 47.5108 21.9287 47.5108 22.206C47.5108 22.4747 47.4112 22.7 47.2118 22.882C47.0212 23.064 46.7872 23.155 46.5098 23.155C46.2325 23.155 45.9942 23.064 45.7948 22.882C45.5955 22.7 45.4958 22.4747 45.4958 22.206ZM45.6778 24.52H47.3158V30.5H45.6778V24.52ZM48.5361 24.52H52.2281V25.937H48.5361V24.52ZM49.5631 22.44H51.1881V30.5H49.5631V22.44ZM56.1454 30.63C55.4954 30.63 54.9278 30.5 54.4424 30.24C53.9571 29.98 53.5801 29.6203 53.3114 29.161C53.0514 28.693 52.9214 28.1427 52.9214 27.51C52.9214 26.8687 53.0514 26.3183 53.3114 25.859C53.5801 25.391 53.9571 25.0313 54.4424 24.78C54.9278 24.52 55.4998 24.39 56.1584 24.39C56.8171 24.39 57.3761 24.5113 57.8354 24.754C58.3034 24.988 58.6588 25.3347 58.9014 25.794C59.1441 26.2447 59.2654 26.7907 59.2654 27.432C59.2654 27.51 59.2611 27.5923 59.2524 27.679C59.2524 27.7657 59.2481 27.835 59.2394 27.887H53.8834V26.847H57.7704L57.3154 27.445C57.3501 27.393 57.3804 27.3237 57.4064 27.237C57.4411 27.1417 57.4584 27.0637 57.4584 27.003C57.4584 26.7083 57.4021 26.457 57.2894 26.249C57.1854 26.041 57.0338 25.8763 56.8344 25.755C56.6351 25.6337 56.4011 25.573 56.1324 25.573C55.8031 25.573 55.5258 25.6467 55.3004 25.794C55.0838 25.9327 54.9148 26.145 54.7934 26.431C54.6808 26.7083 54.6201 27.055 54.6114 27.471C54.6114 27.8697 54.6678 28.2077 54.7804 28.485C54.9018 28.7623 55.0794 28.9747 55.3134 29.122C55.5474 29.2693 55.8291 29.343 56.1584 29.343C56.5311 29.343 56.8474 29.2737 57.1074 29.135C57.3761 28.9877 57.5971 28.771 57.7704 28.485L59.2394 28.94C58.9274 29.5033 58.5114 29.928 57.9914 30.214C57.4801 30.4913 56.8648 30.63 56.1454 30.63ZM62.3864 24.52V30.5H60.7354V24.52H62.3864ZM64.1414 26.275C64.0287 26.171 63.9117 26.093 63.7904 26.041C63.6777 25.9803 63.5347 25.95 63.3614 25.95C63.1534 25.95 62.9757 26.0063 62.8284 26.119C62.681 26.2317 62.5684 26.392 62.4904 26.6C62.421 26.7993 62.3864 27.042 62.3864 27.328L61.9184 26.86C61.9184 26.3833 62.0094 25.963 62.1914 25.599C62.3734 25.2263 62.6117 24.9317 62.9064 24.715C63.201 24.4897 63.5044 24.377 63.8164 24.377C64.033 24.377 64.2367 24.416 64.4274 24.494C64.6267 24.572 64.787 24.689 64.9084 24.845L64.1414 26.275ZM76.7283 21.4H78.5223V30.955L72.0483 24.858V30.5H70.2543V20.945L76.7283 27.042V21.4ZM80.1404 27.51C80.1404 26.886 80.2834 26.34 80.5694 25.872C80.864 25.404 81.2584 25.04 81.7524 24.78C82.255 24.52 82.8227 24.39 83.4554 24.39C84.088 24.39 84.6514 24.52 85.1454 24.78C85.648 25.04 86.0424 25.404 86.3284 25.872C86.623 26.34 86.7704 26.886 86.7704 27.51C86.7704 28.1253 86.623 28.6713 86.3284 29.148C86.0424 29.616 85.648 29.98 85.1454 30.24C84.6514 30.5 84.088 30.63 83.4554 30.63C82.8227 30.63 82.255 30.5 81.7524 30.24C81.2584 29.98 80.864 29.616 80.5694 29.148C80.2834 28.6713 80.1404 28.1253 80.1404 27.51ZM81.8564 27.51C81.8564 27.848 81.9257 28.147 82.0644 28.407C82.2117 28.6583 82.4067 28.8577 82.6494 29.005C82.892 29.1437 83.1607 29.213 83.4554 29.213C83.75 29.213 84.0187 29.1437 84.2614 29.005C84.504 28.8577 84.6947 28.6583 84.8334 28.407C84.9807 28.147 85.0544 27.848 85.0544 27.51C85.0544 27.172 84.9807 26.873 84.8334 26.613C84.6947 26.353 84.504 26.1537 84.2614 26.015C84.0187 25.8763 83.75 25.807 83.4554 25.807C83.1607 25.807 82.892 25.8763 82.6494 26.015C82.4067 26.1537 82.2117 26.353 82.0644 26.613C81.9257 26.873 81.8564 27.172 81.8564 27.51ZM87.1592 24.52H88.9532L90.2662 27.835L91.9562 24.065L93.7112 27.848L95.0372 24.52H96.8182L93.8932 30.903L91.9692 27.094L90.0972 30.903L87.1592 24.52Z" fill="white"/>
<path d="M117.525 25.625C117.525 29.1035 114.707 31.9219 111.228 31.9219C107.75 31.9219 104.931 29.1035 104.931 25.625C104.931 22.1465 107.75 19.3281 111.228 19.3281C114.707 19.3281 117.525 22.1465 117.525 25.625ZM106.15 25.625C106.15 28.4434 108.41 30.7031 111.228 30.7031C114.021 30.7031 116.306 28.4434 116.306 25.625C116.306 22.832 114.021 20.5469 111.228 20.5469C108.41 20.5469 106.15 22.832 106.15 25.625ZM107.978 26.1328V25.1172C107.978 24.9648 108.105 24.8125 108.283 24.8125H111.228V23.1113C111.228 22.8574 111.533 22.7051 111.736 22.9082L114.25 25.4219C114.376 25.5488 114.376 25.7266 114.25 25.8535L111.736 28.3672C111.533 28.5703 111.228 28.418 111.228 28.1387V26.4375H108.283C108.105 26.4375 107.978 26.3105 107.978 26.1328Z" fill="white"/>
</svg>
