<svg width="88" height="88" viewBox="0 0 88 88" fill="none" xmlns="http://www.w3.org/2000/svg">
<rect width="88" height="88" rx="44" fill="#A70A29" fill-opacity="0.1"/>
<path d="M63.4531 25.5625C64 28.0625 64 30.0156 63.9219 31.9688C63.9219 40.0156 59.625 44.8594 53.9219 48.4531V56.6562C53.9219 57.9062 53.0625 59.3906 51.8906 60.0156L44.1562 63.8438C43.9219 63.9219 43.6094 64 43.375 64C42.2812 64 41.5 63.2188 41.4219 62.125V54.0781L39.7031 55.7969C38.6875 56.8125 37.0469 56.6562 36.1875 55.7969L32.2031 51.8125C31.1875 50.7969 31.2656 49.1562 32.2031 48.2969L33.9219 46.5H25.875C24.7812 46.5 24 45.7188 24 44.625C24 44.3906 24.0781 44.0781 24.1562 43.8438L27.9844 36.1094C28.6094 34.9375 30.0938 34.0781 31.3438 34H39.5469C43.1406 28.375 47.9844 24 56.0312 24C57.9844 24 59.9375 24 62.4375 24.5469C62.9062 24.7031 63.2969 25.0938 63.4531 25.5625ZM54 37.125C55.7188 37.125 57.125 35.7969 57.125 34C57.125 32.2812 55.7188 30.875 54 30.875C52.2031 30.875 50.875 32.2812 50.875 34C50.875 35.7969 52.2031 37.125 54 37.125Z" fill="#A70A29"/>
</svg>
