<svg width="18" height="16" viewBox="0 0 18 16" fill="none" xmlns="http://www.w3.org/2000/svg">
<path d="M14.8956 10.05H6.31165L6.51672 10.9875H14.3683C14.8077 10.9875 15.1593 11.427 15.0421 11.8665L14.8956 12.5696C15.4523 12.8333 15.8331 13.3899 15.8331 14.0344C15.8331 14.9719 15.0714 15.7043 14.1632 15.675C13.2843 15.675 12.5519 14.9719 12.5519 14.093C12.5226 13.6243 12.7277 13.1848 13.0206 12.8625H6.89758C7.19055 13.1848 7.39563 13.595 7.39563 14.0344C7.39563 14.9719 6.60461 15.7336 5.66711 15.675C4.8175 15.6458 4.14368 14.9719 4.11438 14.1516C4.05579 13.4778 4.40735 12.9211 4.93469 12.6282L2.85461 2.55005H0.83313C0.422974 2.55005 0.130005 2.25708 0.130005 1.84692V1.37817C0.130005 0.997314 0.422974 0.675049 0.83313 0.675049H3.82141C4.14368 0.675049 4.43665 0.938721 4.52454 1.26099L4.78821 2.55005H16.2726C16.7413 2.55005 17.0636 2.9895 16.9757 3.42896L15.5988 9.52271C15.5109 9.84497 15.2179 10.05 14.8956 10.05ZM12.0831 5.59692H10.6769V4.42505C10.6769 4.19067 10.4425 3.9563 10.2081 3.9563H9.73938C9.47571 3.9563 9.27063 4.19067 9.27063 4.42505V5.59692H7.86438C7.60071 5.59692 7.39563 5.8313 7.39563 6.06567V6.53442C7.39563 6.7981 7.60071 7.00317 7.86438 7.00317H9.27063V8.17505C9.27063 8.43872 9.47571 8.6438 9.73938 8.6438H10.2081C10.4425 8.6438 10.6769 8.43872 10.6769 8.17505V7.00317H12.0831C12.3175 7.00317 12.5519 6.7981 12.5519 6.53442V6.06567C12.5519 5.8313 12.3175 5.59692 12.0831 5.59692Z" fill="#212529"/>
</svg>
