<svg width="50" height="50" viewBox="0 0 50 50" fill="none" xmlns="http://www.w3.org/2000/svg">
<path d="M37.5 45.0001C34.5834 42.5001 18.9584 42.2917 13.125 44.1667C11.875 44.5834 10.625 44.1667 9.79169 43.3334L4.16669 37.5001C8.75002 32.9167 22.5 31.4584 32.9167 32.9167C33.75 38.1251 35.4167 42.7084 37.5 45.0001ZM39.1667 5.83341C38.3334 5.00008 37.0834 4.58344 35.8334 5.0001C30 6.8751 14.375 6.66675 11.4584 4.16675C14.1667 6.87508 15.4167 11.4584 16.0417 16.0417C18.75 16.4584 21.4584 16.6667 24.375 16.6667C32.9167 16.6667 41.25 15.0001 44.7917 11.4584L39.1667 5.83341Z" fill="#0264D6"/>
<path opacity="0.3" d="M44.1666 36.0417C44.5833 37.2917 44.1666 38.5417 43.3333 39.3751L37.5 45.0001C32.9166 40.4167 31.4583 26.6667 32.9166 16.2501C38.125 15.4167 42.5 13.9584 44.7916 11.6668C42.5 14.5834 42.0833 30.2084 44.1666 36.0417ZM16.6666 24.3751C16.6666 18.7501 16.0416 8.75008 11.4583 4.16675L5.83331 10.0001C4.99998 10.8334 4.58331 12.0834 4.99998 13.3334C5.62498 15.4168 6.25 19.1667 6.45833 24.3751C6.45833 32.2917 5 36.6667 4.375 37.5001C6.66667 35.2084 11.0416 33.7501 16.25 32.9167C16.6666 29.5834 16.6666 26.4584 16.6666 24.3751Z" fill="#0264D6"/>
</svg>
