<svg width="50" height="50" viewBox="0 0 50 50" fill="none" xmlns="http://www.w3.org/2000/svg">
<path d="M33.3694 18.75H32.0719C29.7569 18.75 27.6313 20.0297 26.5481 22.0756L25.3208 24.394C25.1344 24.746 25.2233 25.1808 25.5331 25.4315L26.3338 26.0798C27.6315 27.1302 28.6575 28.4773 29.3258 30.0073L29.6502 30.7502C29.7827 31.0538 30.0825 31.25 30.414 31.25H38.9056C41.1036 31.25 42.5119 28.9112 41.4833 26.9687L38.8929 22.0756C37.8098 20.0297 35.6844 18.75 33.3694 18.75Z" fill="#0264D6"/>
<path opacity="0.3" d="M37.5 12.4999C37.5 10.1987 35.6345 8.33325 33.3334 8.33325C31.0322 8.33325 29.1667 10.1987 29.1667 12.4999C29.1667 14.8011 31.0322 16.6666 33.3334 16.6666C35.6345 16.6666 37.5 14.8011 37.5 12.4999Z" fill="#0264D6"/>
<path d="M9.69765 30.9498C11.2581 27.3383 14.8159 25 18.75 25C22.6842 25 26.2419 27.3383 27.8023 30.9498L30.8188 37.9306C32.0075 40.6815 29.9906 43.75 26.994 43.75H10.5061C7.50946 43.75 5.4926 40.6815 6.68123 37.9306L9.69765 30.9498Z" fill="#0264D6"/>
<path opacity="0.3" d="M25 16.6667C25 13.215 22.2018 10.4167 18.75 10.4167C15.2982 10.4167 12.5 13.215 12.5 16.6667C12.5 20.1185 15.2982 22.9167 18.75 22.9167C22.2018 22.9167 25 20.1185 25 16.6667Z" fill="#0264D6"/>
</svg>
