<svg width="50" height="50" viewBox="0 0 50 50" fill="none" xmlns="http://www.w3.org/2000/svg">
<path opacity="0.3" d="M41.6666 29.1667H22.9166C21.6666 29.1667 20.8333 28.3333 20.8333 27.0833V20.8333C20.8333 19.5833 21.6666 18.75 22.9166 18.75H41.6666C42.9166 18.75 43.75 19.5833 43.75 20.8333V27.0833C43.75 28.3333 42.9166 29.1667 41.6666 29.1667ZM43.75 41.6667V35.4167C43.75 34.1667 42.9166 33.3333 41.6666 33.3333H22.9166C21.6666 33.3333 20.8333 34.1667 20.8333 35.4167V41.6667C20.8333 42.9167 21.6666 43.75 22.9166 43.75H41.6666C42.9166 43.75 43.75 42.9167 43.75 41.6667Z" fill="#0264D6"/>
<path d="M41.6667 14.5834H6.25002C5.00002 14.5834 4.16669 13.7501 4.16669 12.5001V6.25008C4.16669 5.00008 5.00002 4.16675 6.25002 4.16675H41.6667C42.9167 4.16675 43.75 5.00008 43.75 6.25008V12.5001C43.75 13.7501 42.9167 14.5834 41.6667 14.5834ZM14.5834 18.7501H6.25002C5.00002 18.7501 4.16669 19.5834 4.16669 20.8334V41.6667C4.16669 42.9167 5.00002 43.7501 6.25002 43.7501H14.5834C15.8334 43.7501 16.6667 42.9167 16.6667 41.6667V20.8334C16.6667 19.5834 15.8334 18.7501 14.5834 18.7501Z" fill="#0264D6"/>
</svg>
