<svg width="36" height="36" viewBox="0 0 36 36" fill="none" xmlns="http://www.w3.org/2000/svg">
<path d="M18.5781 0C28.1875 0.078125 36 7.89062 36 17.5781C36 27.2656 28.1094 35.0781 18.4219 35H5.14062C2.875 35 0.921875 33.125 0.921875 30.8594C0.921875 30.7812 0.921875 30.7812 1 30.7812V17.5C1 7.8125 8.89062 0 18.5781 0ZM31.7812 12.3438C31.7812 11.7188 31.7031 11.1719 31.625 10.5469L27.25 6.17188V6.32812C27.25 6.71875 27.1719 7.03125 27.0156 7.42188L31.7812 12.3438ZM26.8594 4.92188C26.9375 5.15625 27.0938 5.39062 27.1719 5.625L31.3906 9.92188C30.6094 7.65625 28.9688 5.85938 26.8594 4.92188ZM10.2188 16.875C9.75 16.875 9.35938 16.9531 8.89062 17.1094L9.59375 17.7344C9.75 17.4219 9.98438 17.1094 10.2188 16.875ZM8.57812 17.1875C8.1875 17.2656 7.79688 17.4219 7.48438 17.5781L9.59375 19.6875C9.4375 19.375 9.35938 19.0625 9.35938 18.75L9.4375 18.125L8.57812 17.1875ZM7.09375 17.7344C6.78125 17.8906 6.54688 18.125 6.23438 18.2812L8.96875 21.0938C9.35938 20.9375 9.75 20.8594 10.1406 20.7812L7.09375 17.7344ZM5.92188 18.5156C5.60938 18.75 5.375 18.9844 5.14062 19.2188L7.875 21.9531C8.10938 21.7188 8.42188 21.4844 8.65625 21.3281L5.92188 18.5156ZM4.90625 19.4531C4.67188 19.7656 4.4375 20 4.20312 20.3125L7.01562 23.125C7.17188 22.8125 7.40625 22.5 7.64062 22.1875L4.90625 19.4531ZM4.04688 20.625C3.8125 20.9375 3.65625 21.25 3.5 21.5625L6.625 24.6094C6.625 24.2188 6.70312 23.8281 6.85938 23.4375L4.04688 20.625ZM3.34375 21.875C3.1875 22.2656 3.10938 22.6562 2.95312 22.9688L7.09375 27.1875C6.78125 26.5625 6.625 25.8594 6.54688 25.1562L3.34375 21.875ZM2.71875 25.2344C2.71875 25.8594 2.79688 26.4062 2.95312 26.9531L7.25 31.3281V31.1719C7.25 30.7812 7.40625 30.3906 7.5625 30.0781L2.71875 25.2344ZM3.10938 27.6562C3.89062 29.8438 5.53125 31.7188 7.71875 32.5781C7.5625 32.4219 7.48438 32.1875 7.40625 31.875L3.10938 27.6562ZM2.71875 24.7656L7.79688 29.7656C7.95312 29.4531 8.26562 29.2969 8.5 29.0625L2.875 23.4375C2.79688 23.8281 2.71875 24.2969 2.71875 24.7656ZM22.4844 20.7031C25.0625 20.7031 25.0625 16.875 22.5625 16.7969H19.9062C19.5156 16.7969 19.2031 16.4844 19.2031 16.0938V12.4219C19.2031 9.29688 22.25 7.73438 24.3594 8.125C25.6094 8.4375 26.7812 7.5 26.7812 6.32812C26.7812 5.3125 26.0781 4.53125 25.2188 4.45312C24.6719 4.29688 24.2031 4.21875 23.6562 4.21875C23.6562 4.21875 23.6562 4.21875 23.5781 4.21875C19.0469 4.21875 15.375 7.89062 15.375 12.4219V16.7969H12.0156C9.51562 16.7969 9.4375 20.625 12.0156 20.625L14.6719 20.7031C14.9844 20.7031 15.375 21.0156 15.375 21.4062L15.2969 25.0781C15.2969 27.4219 13.3438 29.375 10.9219 29.375C10.2188 29.375 10.2188 29.2969 9.75 29.2969C8.65625 29.2969 7.79688 30.1562 7.79688 31.1719C7.79688 32.4219 8.89062 33.125 9.35938 33.125C14.125 34.1406 19.2031 30.4688 19.2031 25.0781V20.7031H22.4844ZM24.3594 20.7031C24.75 20.625 25.2188 20.5469 25.6094 20.4688L24.9844 19.7656C24.8281 20.0781 24.5938 20.3906 24.3594 20.7031ZM26 20.3125C26.3906 20.2344 26.7031 20.0781 27.0938 19.9219L24.9844 17.8125C25.0625 18.125 25.1406 18.4375 25.1406 18.75L25.0625 19.375L26 20.3125ZM27.4062 19.7656C27.7188 19.6094 28.0312 19.375 28.3438 19.2188L25.5312 16.4062C25.2188 16.5625 24.8281 16.6406 24.4375 16.7969L27.4062 19.7656ZM28.5781 18.9844C28.8906 18.75 29.125 18.5156 29.4375 18.2812L26.7031 15.5469C26.3906 15.7812 26.1562 16.0156 25.8438 16.25L28.5781 18.9844ZM29.6719 18.0469C29.9062 17.8125 30.0625 17.5 30.2969 17.1875L27.4844 14.375C27.3281 14.7656 27.1719 15 26.9375 15.3125L29.6719 18.0469ZM30.5312 16.9531C30.6875 16.6406 30.8438 16.3281 31 16.0156L27.9531 12.8906C27.875 13.2812 27.7969 13.6719 27.6406 14.0625L30.5312 16.9531ZM31.5469 14.5312L27.4062 10.3125C27.7188 10.9375 27.9531 11.6406 27.9531 12.3438L31.1562 15.625C31.3125 15.2344 31.4688 14.9219 31.5469 14.5312ZM31.625 14.0625C31.7031 13.6719 31.7812 13.2031 31.7812 12.7344L26.7812 7.73438C26.5469 8.04688 26.3125 8.28125 26 8.4375L31.625 14.0625Z" fill="#0264D6"/>
</svg>
