<svg width="28" height="41" viewBox="0 0 28 41" fill="none" xmlns="http://www.w3.org/2000/svg">
<path d="M7.5 36.0469V33H19.9219V36.0469C19.9219 36.5156 19.7656 36.9844 19.5312 37.4531L18.2031 39.4062C17.7344 40.1094 16.9531 40.5781 16.0938 40.5781H11.3281C10.4688 40.5781 9.6875 40.1094 9.21875 39.4062L7.89062 37.4531C7.57812 36.9844 7.5 36.5156 7.5 36.0469ZM0 14.25C0 6.98438 5.70312 0.578125 13.6719 0.5C21.25 0.5 27.5 6.67188 27.5 14.25C27.5 17.7656 26.1719 20.8906 24.0625 23.3125C22.7344 24.7969 20.7812 27.9219 20 30.5C20 30.5 20 30.5 20 30.5781H7.42188C7.42188 30.5 7.42188 30.5 7.42188 30.5C6.64062 27.9219 4.6875 24.7969 3.35938 23.3125C1.25 20.8906 0 17.7656 0 14.25ZM13.75 8C14.375 8 15 7.45312 15 6.75C15 6.125 14.375 5.5 13.75 5.5C8.90625 5.5 5 9.48438 5 14.25C5 14.9531 5.54688 15.5 6.25 15.5C6.875 15.5 7.5 14.9531 7.5 14.25C7.5 10.8125 10.2344 8 13.75 8Z" fill="#009868"/>
</svg>
