<svg width="40" height="33" viewBox="0 0 40 33" fill="none" xmlns="http://www.w3.org/2000/svg">
<path d="M35.8594 8.375C35.8594 8.76562 35.8594 9.07812 35.8594 9.46875C35.8594 20.3281 27.6562 32.75 12.5781 32.75C7.89062 32.75 3.59375 31.4219 0 29.0781C0.625 29.1562 1.25 29.2344 1.95312 29.2344C5.78125 29.2344 9.29688 27.9062 12.1094 25.7188C8.51562 25.6406 5.46875 23.2969 4.45312 20.0156C5 20.0938 5.46875 20.1719 6.01562 20.1719C6.71875 20.1719 7.5 20.0156 8.125 19.8594C4.375 19.0781 1.5625 15.7969 1.5625 11.8125V11.7344C2.65625 12.3594 3.98438 12.6719 5.3125 12.75C3.04688 11.2656 1.64062 8.76562 1.64062 5.95312C1.64062 4.39062 2.03125 2.98438 2.73438 1.8125C6.79688 6.73438 12.8906 10.0156 19.6875 10.4062C19.5312 9.78125 19.4531 9.15625 19.4531 8.53125C19.4531 4 23.125 0.328125 27.6562 0.328125C30 0.328125 32.1094 1.26562 33.6719 2.90625C35.4688 2.51562 37.2656 1.8125 38.8281 0.875C38.2031 2.82812 36.9531 4.39062 35.2344 5.40625C36.875 5.25 38.5156 4.78125 39.9219 4.15625C38.8281 5.79688 37.4219 7.20312 35.8594 8.375Z" fill="#A70A29"/>
</svg>
