<svg width="40" height="41" viewBox="0 0 40 41" fill="none" xmlns="http://www.w3.org/2000/svg">
<path d="M13.75 17.375C13.0469 17.375 12.5 16.8281 12.5 16.125V14.875C12.5 14.25 13.0469 13.625 13.75 13.625H26.25C26.875 13.625 27.5 14.25 27.5 14.875V16.125C27.5 16.8281 26.875 17.375 26.25 17.375H13.75ZM12.5 23.625V22.375C12.5 21.75 13.0469 21.125 13.75 21.125H26.25C26.875 21.125 27.5 21.75 27.5 22.375V23.625C27.5 24.3281 26.875 24.875 26.25 24.875H13.75C13.0469 24.875 12.5 24.3281 12.5 23.625ZM20 33.1562C21.25 33.1562 22.5 32.7656 23.5938 31.9062L40 20.1094V36.75C40 38.8594 38.2812 40.5 36.25 40.5H3.75C1.64062 40.5 0 38.8594 0 36.75V20.1094L16.3281 31.9062C17.4219 32.7656 18.6719 33.1562 20 33.1562ZM38.5156 13.2344C39.4531 14.0156 40 15.0312 40 16.2031V17.0625L32.5 22.4531V8H7.5V22.4531L0 17.0625V16.2031C0 15.0312 0.546875 13.9375 1.40625 13.2344C2.10938 12.7656 2.73438 12.2188 3.75 11.5156V8C3.75 5.96875 5.39062 4.25 7.5 4.25H13.5156C13.75 4.09375 13.9844 3.9375 14.2188 3.78125C15.5469 2.84375 18.125 0.5 20 0.5C21.7969 0.5 24.375 2.84375 25.7031 3.78125C25.9375 3.9375 26.1719 4.09375 26.4062 4.25H32.5C34.5312 4.25 36.25 5.96875 36.25 8V11.5156C37.1875 12.2188 37.8125 12.7656 38.5156 13.2344Z" fill="#F69520"/>
</svg>
